/* XPM */
static char * cobblestone_xpm[] = {
"48 48 132 2",
"  	c #000000",
". 	c #B1B1B1",
"+ 	c #A7A6A7",
"@ 	c #949494",
"# 	c #7F7F7F",
"$ 	c #5F5F5F",
"% 	c #5C5C5C",
"& 	c #5B5B5B",
"* 	c #818181",
"= 	c #B4B4B4",
"- 	c #8F8F8F",
"; 	c #5E5E5E",
"> 	c #676767",
", 	c #686868",
"' 	c #2A2A2A",
") 	c #2B2B2B",
"! 	c #888888",
"~ 	c #878787",
"{ 	c #909090",
"] 	c #393939",
"^ 	c #3A3A3A",
"/ 	c #6F6F6F",
"( 	c #6E6E6E",
"_ 	c #9D9D9D",
": 	c #2C2C2C",
"< 	c #595959",
"[ 	c #2E2E2E",
"} 	c #848484",
"| 	c #323232",
"1 	c #333333",
"2 	c #252525",
"3 	c #242424",
"4 	c #8B8B8B",
"5 	c #373737",
"6 	c #5A5A5A",
"7 	c #2F2F2F",
"8 	c #262626",
"9 	c #383838",
"0 	c #838383",
"a 	c #717171",
"b 	c #474747",
"c 	c #484848",
"d 	c #313131",
"e 	c #B9B9B9",
"f 	c #B8B8B8",
"g 	c #3C3C3C",
"h 	c #3D3D3D",
"i 	c #A9A9A9",
"j 	c #B7B7B7",
"k 	c #B3B3B3",
"l 	c #B2B2B2",
"m 	c #858585",
"n 	c #A4A4A4",
"o 	c #9F9F9F",
"p 	c #9E9E9E",
"q 	c #9C9C9C",
"r 	c #525252",
"s 	c #525152",
"t 	c #7D7D7D",
"u 	c #AAAAAA",
"v 	c #515051",
"w 	c #ABABAB",
"x 	c #727272",
"y 	c #7E7E7E",
"z 	c #797979",
"A 	c #8A8A8A",
"B 	c #363636",
"C 	c #C4C4C4",
"D 	c #787878",
"E 	c #636363",
"F 	c #626262",
"G 	c #2D2D2D",
"H 	c #616161",
"I 	c #606060",
"J 	c #8E8E8E",
"K 	c #A3A3A3",
"L 	c #565656",
"M 	c #555555",
"N 	c #545454",
"O 	c #535353",
"P 	c #535253",
"Q 	c #4C4C4C",
"R 	c #353535",
"S 	c #C1C1C1",
"T 	c #C0C0C0",
"U 	c #303030",
"V 	c #222222",
"W 	c #232323",
"X 	c #BABABA",
"Y 	c #6D6D6D",
"Z 	c #A8A8A8",
"` 	c #494949",
" .	c #3E3E3E",
"..	c #212121",
"+.	c #1E1E1E",
"@.	c #C5C5C5",
"#.	c #6C6C6C",
"$.	c #1B1B1B",
"%.	c #3B3B3B",
"&.	c #696969",
"*.	c #929292",
"=.	c #5D5D5D",
"-.	c #808080",
";.	c #959595",
">.	c #868686",
",.	c #9B9B9B",
"'.	c #A0A0A0",
").	c #ACACAC",
"!.	c #464646",
"~.	c #343434",
"{.	c #7A7A7A",
"].	c #7B7B7B",
"^.	c #707070",
"/.	c #B6B6B6",
"(.	c #CCCCCC",
"_.	c #CBCBCB",
":.	c #898989",
"<.	c #919191",
"[.	c #767676",
"}.	c #434343",
"|.	c #444444",
"1.	c #A2A2A2",
"2.	c #8C8C8C",
"3.	c #4D4D4D",
"4.	c #4E4E4E",
"5.	c #292929",
"6.	c #282828",
"7.	c #AFAFAF",
"8.	c #575757",
"9.	c #585858",
"0.	c #4A4A4A",
"a.	c #4B4B4B",
"                                                                                                ",
"  . . . . . . . . + + + @ @ @ # # # $ $ $ % % % % % & . . . . . . . . . * * * % % & = = = - -   ",
"  . . . . . . . . + + + @ @ @ # # # ; ; ; & & & % % & . . . . . . . . . * * * % % % = = = - -   ",
"  . . . . . > , > # # # ' ) ) % % & . . . . . . & % % # # # ! ! ~ # # # { { { ] ^ ] / / ( _ _   ",
"  . . . . . , , , # # # ) : : % % & . . . . . . & % % # # # ! ! ! # # # { { { ] ^ ^ / / / _ _   ",
"  . . . . . > , , # # # ) : ) % & & . . . . . . % % % # # # ! ! ! # # # { { { ] ^ ] / / / _ _   ",
"  < < # # # # # # [ [ [ & & & . . . . . . } } } | 1 1 2 2 3 4 4 4 # # # 5 5 5 % % % % % % } }   ",
"  6 6 # # # # # # [ 7 7 & & 6 . . . . . . } } } | 1 1 8 8 2 4 4 4 # # # 5 9 9 % % % % % % } }   ",
"  6 6 # # # # # # [ 7 [ & 6 6 . . . . . . 0 } } 1 1 1 8 8 2 4 4 4 # # # 5 9 9 % % % & & & } }   ",
"  a a b c c d d d % % % e f f > , > @ @ @ # # # 5 9 9 & & & 5 5 9 g h g % % % i i i j j f 6 &   ",
"  a a c c c | | | % % & f f f , , , @ @ @ # # # 5 9 9 & & & 9 9 9 h h h % % % i i i j j j 6 &   ",
"  a a b b b | | d % % & f f f > , , @ @ @ # # # 5 9 9 & & & 5 5 5 g g g & % % i i i j j j 6 &   ",
"  k k . . l % % % % % & l . . m m m m m m g h g % % % n n n o p p q q q r s s t t t u u u % %   ",
"  k k . . . & % % % % & . . . m m m m m m g h h % % % n n n p p p q q q s s s t t t u u u % %   ",
"  k k . . . & % % % % & . . . m m m m m m g h h % % & n n n p p p q q q v s s t t t u u w % %   ",
"  x x m m } y t t % % % z z z A 4 4 # # # 5 5 B i i i C C C D z z ! ! ! E E F & & & G [ [ ] ^   ",
"  x x m m m t t t % % % z z z 4 4 4 # # # B 5 B i i i C C C z z z ! ! ! E E E & & & 7 7 7 ^ ^   ",
"  x x m m m t t t % % % z z z 4 4 4 # # # B 5 B i i i C C C D z z ! ! ! E E E & & & [ [ [ ^ ^   ",
"  # # # # # # # # % % % , , , 5 5 5 5 5 5 $ $ $ H H I J J J K K K # # # x x x # # # y y y L L   ",
"  # # # # # # # # % % % , , , 9 9 9 9 9 9 $ $ $ H H H J J J K K K # # # x x x # # # y y y L L   ",
"  # # # # # # # # & % % , , , 5 5 5 9 9 9 $ $ $ H H H J J J K K K # # # x x x # # # y y y M M   ",
"  # # # # # 7 7 7 M N O u u w . . l % % & P s s ; ; ; Q Q Q B B R ! ! ! # # # 5 5 5 F F H S T   ",
"  # # # # # 7 U U N N O u u u . . . & % % s s s ; ; ; Q Q Q 5 5 B ! ! ! # # # 5 9 9 F F H T T   ",
"  # # # # # 7 U U O O O w u u . . . & % % v v v ; ; ; Q Q Q 5 5 B ! ! ! # # # 9 9 9 H H H T T   ",
"  t t V W W % % % X e e . . . y # # Y Y Y . . . i Z Z y y y $ $ $ ` ` c  . . .....+.@.C C . .   ",
"  t t W 3 3 % % & e e e . . . # # # Y Y Y . . . Z Z Z y y y $ $ $ ` ` `  . . .....+.C C C . .   ",
"  t t W 3 W % & & e e e . . . # # # Y Y #.. . . Z Z Z y y y $ $ $ ` ` `  . . .+.+.$.@.C C . .   ",
"  4 4 % % % . . . = = = ! ! ! ^ %.] . . . , &., e e e { { { *.*.*.% % % ; ; =.S T S y # # # #   ",
"  4 4 % % & . . . = = = ! ! ! ^ %.^ . . . &.&.&.e e e { { { *.*.*.% % % ; ; =.T T T # # # # #   ",
"  4 4 & % & . . . = = = ~ ! ! ^ %.^ . . . , &., e e e { { { *.*.*.% % % ; ; =.S T T # # # # #   ",
"  % & + + + D z z y # # -.# # 1 1 | . . . ;.;.;.# # # # # # >.>.>.5 9 9 $ $ $ % & & ,.,.,.0 }   ",
"  % % + + + z z z # # # # # # | 1 | . . . ;.;.;.# # # # # # >.>.>.5 9 9 $ $ $ % % % ,.,.,.} }   ",
"  % % + + + z z z # # # # # # 1 1 | . . . ;.;.;.# # # # # # >.>.>.5 9 9 $ $ $ % % % ,.,.,.} }   ",
"  % % % % & '.'.'.t t t / / / 5 9 9 # # # * * * *.*.*.# # # 5 5 5 s s v ).).).& % % % % % 5 5   ",
"  % % % % % '.'.'.t t t / / / 9 9 5 # # # * * * *.*.*.# # # 5 9 9 s s v ).).).& % % % % % 9 9   ",
"  & & & & & '.'.'.t t t / / / 9 9 5 # # # * * * *.*.*.# # # B 5 5 s v v ).).).& % % % % % 9 9   ",
"  . . . . l B 5 5 9 9 9 9 9 9 9 9 9 E E E # # # !.!.b R R ~.l . . '.'.'.# # # # # # % % % % %   ",
"  . . . . . 5 9 9 9 9 9 9 9 9 9 9 9 E E E # # # b b b B B R . . . '.'.'.# # # # # # % % % % %   ",
"  . . . . . B 9 9 5 5 5 5 5 5 5 5 B E E E # # # b b b ~.~.1 . . . '.'.'.# # # # # # % % % % %   ",
"  f f {.].{.a ^.^.f j j Z Z Z /./.j % % % 5 5 5 E E F (._._.n n n # # # *.*.*.# # -.! :.:.R B   ",
"  f f ].].].^.^.^.j j j Z Z Z /././.& % % 9 9 9 E E F _._._.n n n # # # *.*.*.# # # :.:.:.R B   ",
"  f f ].].].^.^.^.j j j Z Z Z /././.& % % 9 9 9 F E F (._._.n n n # # # <.*.*.# # # :.:.:.B B   ",
"  [.[.:.:.:.}.|.}.1.1.1.} } 0 {.z z y y y % % % =.% % & & & # # # { { { 2.4 4 @ @ @ g g g 9 9   ",
"  [.[.:.:.:.|.|.}.1.1.1.} } } z z z y y y % % % % % % % % % # # # { { { 4 4 4 @ @ @ g h h 9 9   ",
"  [.[.:.:.:.}.|.}.1.1.1.} } } z z z y y y % % % & & & % % % # # # { { { 4 4 4 @ @ @ g h h 9 9   ",
"  D D [.[.[.x x x 3.3.4.5.5.5.6.6.6.9 9 5 % % & 7.7.7.* * * 8.8.9.=.; ; !.b b 0.a.a.h h h F F   ",
"  D D [.[.[.x x x 4.4.4.' ' ' 5.5.5.9 9 9 % % & 7.7.7.* * * 8.8.8.; ; ; b b b a.a.a.h h h F F   ",
"                                                                                                "};
