/* XPM */
static char * Controls2_xpm[] = {
"369 44 45 1",
" 	c #000000",
".	c #040403",
"+	c #020202",
"@	c #080807",
"#	c #040404",
"$	c #0D0D0B",
"%	c #050504",
"&	c #11110F",
"*	c #111111",
"=	c #141411",
"-	c #181714",
";	c #191916",
">	c #1C1B17",
",	c #161616",
"'	c #0A0A09",
")	c #1D1D19",
"!	c #1C1B18",
"~	c #21201C",
"{	c #6F6F6F",
"]	c #AAAAAA",
"^	c #858585",
"/	c #ACACAC",
"(	c #848484",
"_	c #9D9D9D",
":	c #7B7B7B",
"<	c #939393",
"[	c #767676",
"}	c #737373",
"|	c #707070",
"1	c #838383",
"2	c #6C6C6C",
"3	c #686868",
"4	c #676767",
"5	c #717171",
"6	c #656565",
"7	c #5B5B5B",
"8	c #5D5D5D",
"9	c #555555",
"0	c #505050",
"a	c #9B9B9B",
"b	c #FAE04E",
"c	c #2C2C2C",
"d	c #2F2F2F",
"e	c #272727",
"f	c #0B0B0A",
"                                                                                                                                                        ..+++@@###$$$%%%%&&&***====-;;;>;;>;;;-====***&&&%%%%$$$###@@+++..                                                                                                                                                       ",
"                                                                                                                                                       .+++@@@##$$%%%&&**====,;;;';)!))~~~~)););';;;,====**&&%%%$$##@@@+++.                                                                                                                                                      ",
"                                                                                                                                                                                                                                                                                                                                                                                 ",
"   {{]]]]]]]]]]]]]]]]]^^^]]]]^^]]]]]]]]]]]]]]]]]]]]//]]]]]]]]]]]]]^^^]]]]]]]]^^^^^]]]]]]]]]]]]]]]]]]]]]]]]]]]]]]]]]^^^^^^^^^]]]]]]^^]]]]]]]^^]]]]]^^^(____:<[[}}||1234455{{3367778999900000099998777633{{5544321||}}[[<:____(^^^]]]]]^^]]]]]]]^^]]]]]]]^^^^^^^^]]]]]]]]]]]]]]]]]]]]]]]]]]]]]]]]]^^^^^]]]]]]]]^^^]]]]]]]]]]]]]//]]]]]]]]]]]]]]]]]]]]^^]]]]^^^]]]]]]]]]]]]]]]]]{{  ",
"   {{]]]]]]]]]]]]]]]]]^^^]]]]^^]]]]]]]]]]]]]]]]]]]]//]]]]]]]]]]]]]^^^]]]]]]]]^^^^^]]]]]]]]^]]]]]]]]]]]]]]]]]]]]]]]]^^^^^^^^^]]]]]]^^]]]]]]]^^]]]]]]]]]]]]]]]]]]]]]]]]]]]]]]]]]]]^^]]]]]]]]]]]]]]^^]]]]]]]]]]]]]]]]]]]]]]//]]]]]]]]]]]^^]]]]]]]^^]]]]]]]^^^^^^^^]]]]]]]]]]]]]]]]]]]]]]]]]]]^^]]]]^^^^^]]]]]]]]^^^]]]]]]]]]]]]]//]]]]]]]]]]]]]]]]]]]]^^]]]]^^^]]]]]]]]]]]]]]]]]{{  ",
"   0033{{4455555{{55{{{{{{{{{5544444{{{{{{{{55555{{{{{{{{{55{{{{{{55555{{{{{{{{{33{{44{{{{{{{{{{{{{5555555{{{{55544555544{{{{{{{{{{{55{{{{{{{{{55554444343322221||}}}[[[[<[<<<::::aaaaa____aaaaa::::<<<[<[[[[}}}||12222333344445555{{{{{{{{{55{{33{{{{{{{44555544555{{{{5555555{{{{{{{{{{{{{44{{33{{{{{{{{{55555{{{{{{55{{{{{{{{{55555{{{{{{{{4444455{{{{{{{{{{{{{5555544{{3300  ",
"   0033{{4455555{{55{{{{{{{{{5544444{{{{{{{{55555{{{{{{{{{55{{{{{{55555{{{{{{{{{33{{44{{{{{{{{{{{{{5555555{{{{55544555545{{{{{{{{{{{55{{{{{{{{{{{5555555{{{{{{3{{{{5{55{{{{{{{{{55{{{{{{55{{{{{{55{{{{{{{{{55{5{{{{3{{{{{{5555555{{{{{{{{{{{55{{33{{{{{{{44555544555{{{{5555555{{{{{{{{{{{{{44{{33{{{{{{{{{55555{{{{{{55{{{{{{{{{55555{{{{{{{{4444455{{{{{{{{{{{{{5555544{{3300  ",
"   99{{{{{{{{{{{55{{{{{{{{{{{{{{{{{{{{554455{{{{{{{55{{{{{{{33{{55555{{{{{{{{555{{{{{{{{{{{{333{{5544455{{{{33{{{{{{{55{{333{{554455{{555{{{{{{{{5555555{{{{{{{{{{{{{{{{{{{{{55555{{{{{{{{{{{{{{55555{{{{{{{{{{{{{{{{{{{{{5555555{{{{{{{{555{{554455{{{33{{55{{{{{{{33{{{{5544455{{333{{{{{{{{{{{{555{{{{{{{{55555{{33{{{{{{{55{{{{{{{554455{{{{{{{{{{{{{{{{{{{{55{{{{{{{{{{{99  ",
"   99{{{{{{{{{{{55{{{{{{{{{{{{{{{{{{55554455{{{{{{{55{{{{{{{33{{55555{{{{{{{{555{{{{{{{{{{{{{33{{5544455{{{{36{{{{{{{55{{333{{554455{{555{{{{{{{{5555555{{{{{{{{{{{{{5555{{{{{{{{{{{33{{{{{{33{{{{{{{{{{{5555{{{{{55{{{{{{5555555{{{{{{{{555{{554455{{{33{{55{{{{{{{33{{{{5544455{{33{{{{{{{{{{{{{555{{{{{{{{55555{{33{{{{{{{55{{{{{{{554455{{{{{{{{{{{{{{{{{{{{55{{{{{{{{{{{99  ",
"   9933{{445555544{{{{5555555{{{{3335555{{{{{{{4455{{{{555{{{{{{{{{{{55{{{{33666{{{{{{{{{{{{{33{{5544455{{{{{{{{{{{554455{{{{{{{{{{{55{{{33{{{{55{{{{{{{{{{{{{{{{{{{{555{{{{{{{{{{{{33{{{{{{33{{{{{{{{{{{5555{{{{{55{{{{{{{{{{{{{55{{{{33{{{55{{{{{{{{{{{554455{{{{{{{{{{{5544455{{33{{{{{{{{{{{{{66633{{{{55{{{{{{{{{{{555{{{{5544{{{{{{{5555333{{{{5555555{{{{335555544{{3399  ",
"   9033{{445555544{{{{5555555{{{{3335555{{{{{{{4455{{{{555{{{{{{{{{{{55{{{{33666{{{{{{{{{{{{{33{{5544455{{{{{{{{{{{554455{{{{{{{{{{{55{{{33{{{{55{{{{{{{{{55{{{{{{555{{{{5{{{333{{{{{{{{{{{{{{{{{{333{{55{{{{555{{{{{{55{{{{{{{{{55{{{{33{{{55{{{{{{{{{{{554455{{{{{{{{{{{5544455{{33{{{{{{{{{{{{{66633{{{{55{{{{{{{{{{{555{{{{5544{{{{{{{5555333{{{{5555555{{{{335555544{{3399  ",
"   9933{{445555534{{{{5555555{{{{3335555{{{{{{{4455{{{{555{{{{{{{{{{{55{{{{33666{{{{{{{{{{{{{33{{5544455{{{{{{{{{{{554455{{{{{{{{{{{55{{{33{{{{55{{{{{{{{{55{{{{{{555{{{{55{{333{{{{{{{{{{{{{{{{{{333{{55{{{{555{{{{{{55{{{{{{{{{55{{{{33{{{55{{{{{{{{{{{554455{{{{{{{{{{{5544455{{33{{{{{{{{{{{{{66633{{{{55{{{{{{{{{{{555{{{{5544{{{{{{{5555333{{{{5555555{{{{335555544{{3399  ",
"   99{{{{33{{{{{{{33{{{{{{{{{{{{{{{{{{33{{{{{{{{{33{{33{{{55{{{{{{{{{{{{5555{{{{{{{{55{{{{{{{5555{{{{{{{{{{{{{{{{33{{{{{{{{{{{{{{{{{{{555{{{{{{{{333{{{{{{{{{{{{{{555{{{{{5{{{33{{{{{{{{{{{{{{{{{{33{{{5{{{{{555{{{{{{{{{{{{{{333{{{{{{{{555{{{{{{{{{{{{{{{{{{{33{{{{{{{{{{{{{{{{5555{{{{{{{55{{{{{{{{{{{{{{{{{{{{{{{{55{{{33{{33{{{{{{{{{33{{{{{{{{{{{{{{{{{{33{{{{{{{33{{{{99  ",
"   99{{{{33{{{{{{{33{{{{{{{{{{{{{{{{{{33{{{{{{{{{33{{33{{{55{{{{{{{{{{{{555{{{{{{{{{55{{{{{{{5555{{{{{{{{{{{{{{{{33{{{{{{{{{{{{{{{{{{{555{{bbbbbb333{{{{33{{{{{{{{{{{{{{{{{{{{{{{{bbb{445544{{{{{{{{{{{{{{{{{{{{{{{bbb{{33{{{{333{{{{{{{{555{{{{{{{{{{{{{{{{{{{33{{{{{{{{{{{{{{{{5555{{{{{{{55{{{{{{{{{{{{{{{{{{{{{{{{55{5{33{{33{{{{{{{{{33{{{{{{{{{{{{{{{{{{33{{{{{{{33{{{{99  ",
"   99{{{{{{{{{{{33{{{{{{{{{{{3355555{{{{{{{{{{{333333{{{{{{{{{{{{{{{{{{{5{{33333{{{{33{{33366{{{{33333{{{{{{33{{{{{{{{{{{333{{55444444555{{bbbbbb{{{{{{{{3{{{{{{{{{{{{{{{{{{{{55{{bbb{445544{{{{{{{{{{{{{{{{{{{{{{{bbb{{3{{{{{{{{{{{{33{{55544444455{{{33{{{{{{{{{{{33{{{{{{33333{{{{66333{{33{{{{33333{{{{{{{{{{{{{{{{{{{{{{333363{{{{{{{{{{{5555533{{{{{{{{{{{33{{{{{{{{{{{99  ",
"   99{{{{{{{{{{{33{{{{{{{{{{{3355555{{{{{{{{{{{333333{{{{{{{{{{{{{{{{{{{{{{33333{{{{33{{33366{{{{33333{{{{{{33{{{{{{{{{{{333{{55444444555bb33****bbb555555{{{{{{55{{{33{{5555{{{bbbbbbb3{{3366{{55{{{5555{{33{{{55{bbb**5555555{{{{{{33{{55544444455{{{33{{{{{{{{{{{33{{{{{{33333{{{{66333{{33{{{{33333{{{{{{{{{{{{{{{{{{{{{{333363{{{{{{{{{{{5555533{{{{{{{{{{{33{{{{{{{{{{{99  ",
"   99{{{{33{{{{{{{{{{{{{{5555{{{{{{{{{{{{{{{55544555{{{{{{5555{{{{{{{55{55555{{{{{{{5555{{{{{55{{55{{{{{33{{{{5554455{{{{{{{{{{{{{{{{{555bb{{****bbb{{5555{{{{{{{{{{{33{{5555{{{bbbbbbb3{{3366{{55{{{5555{{33{{{{{{bbb**5555{{{{{{{{{{{{{555{{{{{{{{{{{{{{{{{5545555{{{{{{{{{{{55{{55{{{{{5555{{{{{{{55555555{{{{{{{5555{{{{{555544555{{{{{{{{{{{{{{{5555{{{{{{{{{{{{{{33{{{{99  ",
"   99{{{{33{{{{{{{{{{{{{{5555{{{{{{{{{{{{{{{55544555{{{{{{5555{{{{{{{55{55555{{{{{{{5555{{{{{55{{55{{{{{{3{{{{5554455{{{{{{{{{{{{{{{{{555bb{{***c*c*{{{{bbbbbbb{{{5bbbbbbbbb3{{{{5bbb*c45bb4{bbbbb{{{3{{bbbbbbb5{{{bbb**{{{{bbbbbbbbb{{{{555{{{{{{{{{{{{{{{{{5545555{{{{{{{{{{{55{{55{{{{{5555{{{{{{{55555555{{{{{{{5555{{{{{555544555{{{{{{{{{{{{{{{5555{{{{{{{{{{{{{{33{{{{99  ",
"   99{{{{33{{{4455{{55{{{{{{{{{{35554455{{{{633663{{{{{{{{{{{{{{{{{{{{{{{{{{{{{{{{33{{{{{{{{{{{{{{{55555{{{{{{{{{{{{{5555555{{33{{{{{{{{{bb**{{55445c*55bbbbbbb{{{5bbbbbbbbb{{{{{{bbb*cc*bb4{bbbbb{{{{{{bbbbbbb5{{{bbb**{{55bbbbbbbbb{{{{{{{{{{{{{33{{{555555{{{{{{{{{{{{{555{{{{{{{{{{{{{{{{{33{{{{{{{{{{{{{{{{{{{{{{{{{{{{{{{{{66363{{{{55445{5{{{{{{{{{{{55{{5544{{{33{{{{99  ",
"   99{{{{33{{{4455{{55{{{{{{{{{{{5554455{{{{33366{{{{{{{{{{{{{{{{{{{{{{{{{{{{{{{{{33{{{{{{{{{{{{{{{55555{{{{{{{{{{{{{5555555{{33{{{{{{{{{bb**{{{{555*cbb{{{{{{{bb55bb{{{{55{bb{{{{bbb****bbbb{{5{{bb{{bb5{{{{55bb5{bbb**{{bb55555{5{{{{{{{{{{{{{{{33{{{555555{{{{{{{{{{{{{555{{{{{{{{{{{{{{{{{33{{{{{{{{{{{{{{{{{{{{{{{{{{{{{{{{{66363{{{{55445{5{{{{{{{{{{{55{{5544{{{33{{{{99  ",
"   dd33{{{{{{{{{{{5544555{{{{33{{{{{{{{{{{55{{{{{{{{{{{{{{{{{{{{{{{{{{{55445555544444455{{{33{{5544555{{{{{{{{{{{{{{{{{55555{{{{555555{{{bb**{{{{{{{{5bb{{*****bb55bb****cc*bb{{{{bbb**{{bbbb{{5**bb{{bb5{{****bb5{bbb**{{bb5{*********{{{{{555555{{{{{5555{{{{{{{{{{{33{{{{55{5455{{33{{{55444444555554455{{{{{{{{{{{{{{{{{{{{{{{{{{{55{{{{{{{{{{{33{{{{5554455{{{{{{{{{{{33dd  ",
"   dd33{{{{{{{{{{{5544555{{{{33{{{{{{{{{{{55{{{{{{{{{{{{{{{{{{{{{{{{{{{55445555544444455{{{33{{55445{{{{{{{{{{{{{{{{{{{55555{{{{55{{55{{{bb**{{{{{{554bb55**cc*bb{{bb**cccccbb55{{bbb**{{bb**{{{***c54bb555****bb{{bbb**5534bbbbbbb****{{{{{555555{{{{{5555{{{{{{{{{{{33{{{{55{5455{{33{{{55444444555554455{{{{{{{{{{{{{{{{{{{{{{{{{{{55{{{{{{{{{{{33{{{{5554455{{{{{{{{{{{33dd  ",
"   dd33{{{{{{{{{{{5544555{{{{33{{{{{{{{{{{{5{{{{{{{{{{{{{{{{{{{{{{{{{{{55435555544444455{{{33{{55445{{{{{{{{{{{{{{{{{{{55555{{{{555555{{{bb**{{{{{{554bbcc5555{bb**bb**55554bbc*{{bbb**{{bb*****{{55ccbbccc33{{bb**bbb**5534bbbbbbb{{55{{{{{555555{{{{{5555{{{{{{{{{{{{{{{{{55{4455{{33{{{55444444555554455{{{{{{{{{{{{{{{{{3{{{{{{{{{55{{{{{{{{{{{33{{{{55544{{{{{{{{{{{{{33dd  ",
"   99{{{{{{{{{{{55{{{{{{{{{{{{{{{{{{{{{{{{663{{{{{{{{{{{{{{{{{{{55{{{{{{{{{55555{{55{{33{{{{366{{{{{{{55{{{{{{{{{{{{{55{{{{{55{{5544{{555bb**{{{{55554bbcc5555{bb**bb**55554bbcc{{bbb**{{bb*****{{55ccbbccc33{{bb**bbb**5544bbbbbbb{{{{{{555{{4455{{555{{{{55{{{{{{{{{{{{{55{{{{{{{66{{{{{33{{55{{55555{{{{{{{{{55{{{{{{{{{{{{{{{{{{{{66{{{{3{{{{{{{{{{{{{{{{{{{55{{{{{{{{{{{99  ",
"   99{{{{{{{{{{{55{{{{{{{{{{{{{{{{{{{{{{{366{{{{{{{{{{{{{{{{{{{{55{{{{{{{{{55555{{55{{33{{{{{66{{{{{{{55{{{{{{{{{{{{{55{{{{{55{{{{44{{555bb**{{5{bbb{5bbcc33{{5bb**bb**{{{{{bb**{{bbb**{{bb**{{{{{{{{{bb***{{{{bb*cbbb**55{{5{*****bb{{{{{55{{4455{{555{{{{55{{{{{{{{{{{{{55{{{{{{{66{{{{{33{{55{{55555{{{{{{{{{55{{{{{{{{{{{{{{{{{{{{6633{{{{{{{{{{{{{{{{{{{{{{55{{{{{{{{{{{99  ",
"   994455{{{{{5555{{{{{{{{{{{{{{{{{{{{{3{{{{{{{{{33{{5544455555555{{{{{{{{{{{{{{{{{{55{{{{{443355{{{{{{{{{{{{{{{{{{{{{{{{33355{{{{55{{{{{bb**{{55bbb{{bb**33{{5bb**bb**{{{{{bb**{{bbb**{{bb**{{{{{{{{{bb***{{{{bb*cbbb**5555{{*****bb{{{{{{{{{55{{{{555333{{{{{{{{{{{{{{{{{{{{3{{553344{{{{{55{{{{{{{{{{{{{{{{{{55{5555544455{{33{{{{{{{{33{{{{{{{{{{{{{{{{{{{{{5555{{{{{554499  ",
"   994455{{{{{5555{{{{{{{{{{{{{{{{{{{{{3{{{{{{{{{33{{5544455555555{{{{{{{{{{{{{{{{{{55{{{{{443355{{{{{{{{{{{{{{{{{{{{{{{{33355{{{{55{{{{{{{bbbbbb{{{**{{bbbbbbb{{**bb**{{{{{bb**55{{5bb5{bbc*5{{55555{{{bbbbbbb{{**{{{bb{{bbbbbbbbb{{**{{{{{{{55{{{{5553333{{{{{{{{{{{{{{{{{{{{{{553344{{{{{55{{{{{{{{{{{{{{{{{{5555555544455{{33{{{{{{{{{{{{{{{{{{{{{{{{{{{{{{{5555{{5{{554499  ",
"   dd{{{{{{555{{{{{{{{{{{{{33{{{{{{{{{{{{{{{555{{{{33{{{{{{{{{{{{{{{{55{{554444455443355{{{{{{{{{{{66633{{4444554555533{{{{{{{{{{{{{{{{{{{{bbbbbb555**55bbbbbbb{{**bb**{{{{{bb**55{{{bb5{bbc*{{{55555{{{bbbbbbb{{**{{{bb{{bbbbbbbbb{{**{{{{{{{{{{{{{{{{{{{{3355554444444{{3{666{{{{{{{{{{{553344554444455{{55{{{{{{{{{{{{{{{{33{{{{555{{{{{{{{{{{{{{{33{{{{{{{{{{{{{555{{{{{{dd  ",
"   dd{{{{5{555{{{{{{{{{{{{{33{{{{{{{{{{{{{{{555{{{{33{{{{{{{{{{{{{{{{55{{554444455443355{{{{{{{{{{{666{{{{4444444555533{{{{{{{{{{{{{{{{{{{{**{{3{555**55**{{{{{{{**{{**{{{{{{{**55555**5445**55555{{{{{{***{{{{{{**{{{**{{555555{{{{{**{{{{{{{{{{{{{{{{{{{{3355554444444{{{{666{{{{{{{{{{{553344554444455{{55{{{{{{{{{{{{{{{{33{{{{555{{{{{{{{{{{{{{{33{{{{{{{{{{{{{555{{{{{{dd  ",
"   99{{3366333{{33{{{{{{{3377{{{5{{{5544555533355{{{{{{{{{{{{{{{33{{{{{{{{{{{333{{{{33{{555{{{{{{{{555{{{{5544555{{33{{{{{{{{{555555{{{{{{{{{**ee***33{{{{*******{{{{**{{{{{{{**5555555*c45**55555{{{{{{{{{******{{{{{{{**{{*****ee**{{{{{{{{{555555{{{{{{{{{33{{5554455{{{{555{{{{{{{{555{{33{{{{333{{{{{{{{{{{33{{{{{{{{{{{{{{{55333555544{{{{{55{{7733{{{{{{{33{{3336633{{99  ",
"   99{{3366333{{33{{{{{{{3377{{{5{{{5544555533355{{{{{{{{{{{{{{{33{{{{{{{{{{{333{{{{33{{555{{{{{{{{555{{{{5544555{{33{{3{{{{{{555555{{{{{{{{{**ee***33{{5{*******3333**3345{{{**{{{{{{{**3{**{{{{{{{{{{5433******{{{{{{{**{{*****ee**{{{{{{{{{555555{{{{{{{{{33{{5554455{{{{555{{{{{{{{555{{33{{{{333{{{{{{{{{{{33{{{{{{{{{{{3{{{55333555544{{{{{{5{{7733{{{{{{{33{{3336633{{99  ",
"   99555544{55{{{{{{{{333{{{{{{{{{{{33{{55{{{{{55{55544{{{{{{{{{55{{{33{{{{{{333335555{{{{{{{{{{{{{{{{{{{{{{{{{{{33{{{{{{{{{{{{{{{{{{{{{{{{55{{{{555{{{{{{{{{{{5{{{{{{{3345{{{{{{{{{{{{{33{{{{{{{{{{{{{5433{33{{{{5{{{{{{{{{{{555{{{{55{{{{{{{{{{{{{{{{{{{{{{{{33{{{{{{{{{{{{{{{{{{{{{{{{{{{555533333{{{{{{33{{{55{{{{{{{{{44555555{{{{{55{{33{{{{{{{{{{{333{{{{{{{{55544555599  ",
"   99555544555{{{{{{{{333{{{{{{{{{{{33{{55{{{{{55555544{{{{{{{{{55{{{33{{{{{{333335555{{{{{{{{{{{{{{{{{{{{{{{{{{{33{{{{{{{33{{{{{{{{{{{{{{{55{{{{555{{{{{{{{{{{5555{{{{{{33{{{{{{{{{{{{{{{{{{{{{{{{{{{{33{{{{{{5555{{{{{{{{{{{555{{{{55{{{{{{{{{{{{{{{{{{{{{{{{33{{{{{{{{{{{{{{{{{{{{{{{{{{{555533333{{{{{{33{{{55{{{{{{{{{44555555{{{{{55{{33{{{{{{{{{{{333{{{{{{{{55544555599  ",
"   99555544555{{{{{{{{333{{{{{{{{{{{33{{55{{{{{55555544{{{{{{{{{55{{{33{{{{{{333335555{{{{{{{{{{{{{{{{{{{{{{{{{{{33{{{{{{{{{{{{{{{{{{{{{{{{55{{{{555{{{{{{{{{{{5555{{{{{{33{{{{{{{{{{{{{{{{{{{{{{{{{{{{33{{{{{{5555{{{{{{{{{{{555{{{{55{{{{{{{{{{{{{{{{{{{{{{{{33{{{{{{{{{{{{{{{{{{{{{{{{{{{555533333{{{{{{33{{{55{{{{{{{{{44555555{{{{{55{{33{{{{{3{{{{{333{{{{{{{{55544555599  ",
"   994455{{{{{55444455{{{{{555544555{{{{3{{{{{{3333{{{{{{{{{33{{{{{{{{{{{{{{{{{{{{55{{{{555{{{{{{5544455{{5555{{{33{{{{33{{{{{{{{{{{{{555{{{{{{55{{{55553333{{{{{{{{{{{{{33{{{{{{{{{{{{{{{{{{{{{{{{{{{{33{{{{{{{{{{{{{33335555{{{55{{{{{{555{{{{{{{{{{{{{33{{{{33{{{5555{{5544455{{{{{{555{{{{55{{{{{{{{{{{{{{{{{{{{33{{{{{{{{{3333{{{{{{{{{{{5554455{5{{{{{55444455{{{{{554499  ",
"   994455{{{{{55444455{{{{{555544555{{{{{{{{{{{3333{{{{{{{{{33{{{{{{{{{{{{{{{3{{{{55{{{{555{{{{{{5544455{{5555{{{33{{{{33{{{{{{{{{{{{{555{{{{{{55{{{55553333{{{{{{{{{{{{{5{{{555{{{{55{{44{{55{{{{555{{{5{{{{{{{{{55{{33335555{{{55{{{{{{555{{{{{{{{{{{{{33{{{{33{{{5555{{5544455{{{{{{555{{{{55{{{{{{{{{{{{{{{{{{{{33{{{{{{{{{3333{{{{{{{{{{{555445555{{{{{55444455{{{{{554499  ",
"   99554455{{{{{{{{{{{{{{33{{33{{{555544{{{{{55{{{{{{33{{{{{33{{5{{{{{{{{55{{{{{33{{{{{{333{{{{{{{{{{{{{{{{{{{333{{554444555{{{{55{{{{{{{{{{{{{{{{{{{{{{5555555555555{{{{{{{{{{{{{{{55{{44{{55{{{{{{{{{{{{{{{55555555555{{{{{{{{{3{{{{{{{{{{{{{{55{{{{{5{444455{{333{{{{{{{{{{{{{{{{{{{333{{{{{{33{{{{{55{{{{{{{55{{33{{{{{33{{{{{{555{{{{5555555{{33{333{{{{{{{{{{{{{{55445599  ",
"   99554455{{{{{{{{{{{{{333{{33{{{555544{{{{{55{{{{{{33{{{{{33{{55{{{{{5{55{{{{{33{{{{{{333{{{{{{{{{{{{{{{{{{{333{{554444555{{{{55{{{{{{{{{{{{{{{{{{{{{{{{{{{{{5555{{{{{{5{{{{{{{{555555{{{{5555{{{{{{{{5{{{{{{5555{{{55{{{{{{{{{3{{{{{{{{{{{{{{55{{{{{55444455{{333{{{{{{{{{{{{{{{{{{{333{{{{{{33{{{{{55{{{{{{{55{{33{{{{{33{{{{{{555{{3{5555555{{33{{33{{{{{{{{{{{{{{55445599  ",
"   99999999999999999999999988999999900999999999999999999999900dd0000099999900000990000dd999999900999999977999900099999999999999999009999988999900999999999998888888878888777777766333{333333{3336677777778888788888888999999999900099998899999dd999999999999999990009999779999999009999999dd0000990000099999900000dd00999999999999999999999900999999988999999999999999999999999  ",
"   99999999999999999999999988999999900999999999999999999999900dd0000099999900000990000d099999990099999997799990009999999999999999900999998899990099999999999999999999999999999999999990099009999999999999999999999999999999999990009999889999900999999999999999990009999779999999009999999dd0000990000099999900000dd00999999999999999999999900999999988999999999999999999999999  ",
"   00999999999999999999999900999999999999999999990000dd00000999999999000099999999999009999999999999999998899999999999990099999999999990000099999999999999999999999999999999999999999990099009999999999999999999999999999999999999999999000009999999999999009999999999999889999999999999999990099999999999000099999999900000dd00009999999999999999999900999999999999999999999900  ",
"   00999999999999999999999900999999999999999999990000dd00000999999999000099999999999009999999999999999998899999999999990099999999999990000099999999999999999999999999999999999999900009999990000999999999999999999999999999999999999999000009999999999999009999999999999889999999999999999990099999999999000099999999900000dd00009999999999999999999900999999999999999999999900  ",
"                                                                                                                                                              +++++++#####%%%***,,,,,,'ffff',,,,,,***%%%######++++++                                                                                                                                                             ",
"                                                                                                                                                                                                                                                                                                                                                                                 "};
