/* XPM */
static char * Continue2_xpm[] = {
"369 44 40 1",
" 	c #000000",
".	c #040403",
"+	c #040404",
"@	c #080807",
"#	c #0B0B0B",
"$	c #0C0C0A",
"%	c #050504",
"&	c #10100E",
"*	c #070706",
"=	c #151512",
"-	c #181714",
";	c #191916",
">	c #1C1B17",
",	c #6F6F6F",
"'	c #AAAAAA",
")	c #858585",
"!	c #ACACAC",
"~	c #A2A2A2",
"{	c #9F9F9F",
"]	c #959595",
"^	c #929292",
"/	c #8D8D8D",
"(	c #898989",
"_	c #6E6E6E",
":	c #7C7C7C",
"<	c #686868",
"[	c #676767",
"}	c #656565",
"|	c #5B5B5B",
"1	c #5D5D5D",
"2	c #555555",
"3	c #505050",
"4	c #717171",
"5	c #707070",
"6	c #7D7D7D",
"7	c #FAE04E",
"8	c #111111",
"9	c #2C2C2C",
"0	c #2F2F2F",
"a	c #181818",
"                                                                                                                                                       ...++@@@###$$$%&%&&&***====-;;;;>;>;;;;-====***&&&%&%$$$###@@+++...                                                                                                                                                       ",
"                                                                                                                                                                                                                                                                                                                                                                                 ",
"  ,,''''''''''''''''''))'''''))'''''''''''''''!!'''!!'''''''''''''))'''''''''))))''''''''''''''''''''''''''''''''')))))))))'''''''))'''''')))''''')))~{{{{]]^^^/(((_:::<<[[[,,,<}||1|112221111|}}<,,,[[[<<:::_(((/^^]]]{{{{~)))''''')))''''''))''''''')))))))))'''''''''''''''''''''''''''''''''))))'''''''''))'''''''''''''!!'''!''''''''''''''''))'''''))'''''''''''''''''',,  ",
"  ,,''''''''''''''''''))'''''))''''''''''''''''!'''!!'''''''''''''))'''''''''))))''''''''''''''''''''''''''''''''')))))))))'''''''))'''''')))'''''''''''!!''''!!'''''''''''''''')''''''''''''''')''''''''''''''''!!''''!!''''''''''')))''''''))''''''')))))))))'''''''''''''''''''''''''''''''''))))'''''''''))'''''''''''''!!''''''''''''''''''''))'''''))'''''''''''''''''',,  ",
"  33<<<,,[[4444,,,44,,,,,,,,,44[[[[,,,,,,,,,4444,,,,,,,,,44,,,,,,,4444,,,,,,,,,<<,,[[[,,,,,,,,,,,,,444444,,,,,44[[44444[[,,,,,,,,,,,44,,,,,,,,,44444[[[<[<<<<:___555(////(////^^^^]]]6666666]]]]^^^////(////(555___:<<<<[<[[[44444,,,,,,,,,44,,,,,,,,,,,[[44444[[44,,,,,444444,,,,,,,,,,,,,[[[,,<<,,,,,,,,,4444,,,,,,,44,,,,,,,,,4444,,,,,,,,,[[[[44,,,,,,,,,44,,,4444[[,,<<<33  ",
"  33<<<,,[[4444,,,44,,,,,,,,,44[[[[,,,,,,,,,4444,,,,,,,,,44,,,,,,,4444,,,,,,,,,<<,,[[[,,,,,,,,,,,,,444444,,,,,44[[44444[4,,,,,,,,,,,44,,,,,,,,,,,4444444,,,,,,,,,,,,,44,,,,,,,,44,,,,,,,4,,,,,,,44,,,,,,,,44,,,,,,,,<,,,,4444444,,,,,,,,,,,44,,,<,,,,,,,[[44444[[44,,,,,444444,,,,,,,,,,,,,[[[,,<<,,,,,,,,,4444,,,,,,,44,,,,,,,,,4444,,,,,,,,,[[[[44,,,,,,,,,44,,,4444[[,,<<<33  ",
"  33<<<,,[[4444,,,44,,,,,,,,,44[[[[,,,,,,,,,4444,,,,,,,,,44,,,,,,,4444,,,,,,,,,<<,,[[[,,,,,,,,,,,,,444444,,,,,44[[,4444[4,,,,,,,,,,,44,,,,,,,,,,,444,444,,,,,,,,,,,,,44,,,,,,,,44,,,,,,,4,,,,,,,44,,,,,,,,44,,,,,,,,<,,,,444,444,,,,,,,,,,,44,,,<<,,,,,,[[44444[[44,,,,,444444,,,,,,,,,,,,,[[[,,<<,,,,,,,,,4444,,,,,,,44,,,,,,,,,4444,,,,,,,,,[[[[44,,,,,,,,,44,,,4444[[,,<<<33  ",
"  22,,,,,,,,,,,444,,,,,,,,,,,,,,,,,,,444[[44,,,,,,,44,,,,,,<<,,,4444,,,,,,,,,44,,,,,,,,,,,,,<<,,,44[[44,,,,,<<,,,,,,444,,<<,,44[[[44,,44,,,,,,,,,4444444,,,,,,,,,,,,,,,,,,,,,4444,,,,,,,4,,,,,,,4444,,,,,,,,,,,,,,,,,,,,,4444444,,,,,,,,,44,,44[[[44,,<<,,444,,,,,,<<,,,,,44[[44,,,<<<,,,,,,,,,,,,44,,,,,,,,,4444,,<<<,,,,,,44,,,,,,,4,[[444,,,,,,,,,,,,,,,,,,,444,,,,,,,,,,,22  ",
"  22<,,,,,,,,,,444,,,,,,,,,,,,,,,,,,,444[[44,,,,,,,44,,,,,,<<,,,4444,,,,,,,,,44,,,,,,,,,,,,,<<,,,44[[44,,,,,<<,,,,,,444,,<<,,44[[[44,,44,,,,,,,,,4444444,,,,,,,4,,,,44444,,,,,,,,,,,<<,,,,,<<,,,,,,,,,,,44444,,,,44,,,,,,4444444,,,,,,,,,44,,44[[[44,,<<,,444,,,,,,}<,,,,,44[[44,,,<<,,,,,,,,,,,,,44,,,,,,,,,4444,,<<<,,,,,,44,,,,,,,44[[444,,,,,,,,,,,,,,,,,,,444,,,,,,,,,,<22  ",
"  22<<<,,[[4444<<<,,,,4444444,,,,<<44444,,,,,,[[444,,,,44,,,,,,,,,,,44,,,,,<<}},,,,,,,,,,,,,<<,,,44[[44,,,,,,,,,,,44[[[44,,,,,,,,,,,44,,<<,,,,,44,,,,,,,,,,,,,,4,,,,4,444,,,,,,,,,,,<<,,,,,<<,,,,,,,,,,,44444,,,,44,,,,,,,,,,,,,44,,,,,<<,,44,,,,,,,,,,,44[[[44,,,,,,,,,,,44[[44,,,<<,,,,,,,,,,,,,}}<<,,,,,44,,,,,,,,,,,44,,,,444[[,,,,,,44444<<,,,,4444444,,,,<<<4444[[,,<<<32  ",
"  22<<<,,[[4444<<<,,,,4444444,,,,<<44444,,,,,,[[444,,,,44,,,,,,,,,,,44,,,,,<<}},,,,,,,,,,,,,<<,,,44[[44,,,,,,,,,,,44[[[44,,,,,,,,,,,44,,<<,,,,,44,,,,,,,,44,,,,,,,44,,,,,44,,<<,,,,,,,,,,,,,,,,,,,<<,,44,,,,,44,,,,,,,44,,,,,,,,44,,,,,<<,,44,,,,,,,,,,,44[[[44,,,,,,,,,,,44[[44,,,<<,,,,,,,,,,,,,}}<<,,,,,44,,,,,,,,,,,44,,,,444[[,,,,,,44444<<,,,,4444444,,,,<<<4444[[,,<<<22  ",
"  22,,,,,<<,,,,,,,<<,,,,,,,,,,,,,,,,,<<<,,,,,,,,<<<,,<<,,44,,,,,,,,,,,,,,,,,,,,,,,,444,,,,,,44444,,,,,,,,,,,,,,,<<,,,,,,,,,,,,,,,,,,,,44,,,7777777<,,,,,,,,,,,,,,,44,,,,,44,,<<,,,,777,,,,77,,,,,,<<,,44,,,,,44,,,,,,,,,,,,,,,<<,,,,,,,,,44,,,,,,,,,,,,,,,,,,,,<<,,,,,,,,,,,,,,,44444,,,,,,444,,,,,,,,,,,,,,,,,,,,,,,,44,,<<,,<<<,,,,,,,,<<<,,,,,,,,,,,,,,,,,<<,,,,,,,<<,,,,,22  ",
"  22,,,,,<<,,,,,,,<<,,,,,,,,,,,,,,,,,<<<,,,,,,,,<<<,,,<,,44,,,,,,,,,,,,,,,,,,,,,,,,444,,,,,,44444,,,,,,,,,,,,,,,<<,,,,,,,,,,,,,,,,,,,,44,,,7777777<,,,,<<,,,,,,,,,,,,,,,,,,,,,,,,,,777[[4[77,,,,,,,,,,,,,,,,,,,,,,,,,,,,<<,,,,<<,,,,,,,,,44,,,,,,,,,,,,,,,,,,,,<<,,,,,,,,,,,,,,,44444,,,,,,444,,,,,,,,,,,,,,,,,,,,,,,,44,,,,,,<<<,,,,,,,,<<<,,,,,,,,,,,,,,,,,<<,,,,,,,<<,,,,,22  ",
"  22,,,,,,,,,,,<<<,,,,,,,,,,,<<4444,,,,,,,,,,,<<<<<<<,,,,,,,,,,,,,,,,,,,,,,<<<<,,,,<<<,,<<}},,,,,<<<<,,,,,,,<<,,,,,,,,,,,<<,,44[[[[[[[448778888,,,77,,,<,,,,,,,,,,,,,,,,,,,,,,,,877777778[[,,,,,,,,,,,,,,,,,,,,,,,,,,,,,,<,,,,,,,,,,<<<,,44[[[[[[[44,,<<,,,,,,,,,,,<<,,,,,,,<<<<,,,,,}}<<,,<<<,,,,<<<<,,,,,,,,,,,,,,,,,,,,,,<<<<<<<,,,,,,,,,,,4444<<,,,,,,,,,,,<<<,,,,,,,,,,,22  ",
"  22,,,,,,,,,,,<<<,,,,,,,,,,,<<4444,,,,,,,,,,,<<<<<<<,,,,,,,,,,,,,,,,,,,,,,<<<<,,,,<<<,,<<}},,,,,<<<<,,,,,,,<<,,,,,,,,,,,<<,,44[[[[[[[448778888,,,774,4444,,,,,,44,,<<,,,4444,,4877777778<<}},,,44,,4444,,,<<,,44,,,,,,4444,44,,,,,,<<<,,44[[[[[[[44,,<<,,,,,,,,,,,<<,,,,,,,<<<<,,,,,}}<<,,<<<,,,,<<<<,,,,,,,,,,,,,,,,,,,,,,<<<<<<<,,,,,,,,,,,4444<<,,,,,,,,,,,<<<,,,,,,,,,,,22  ",
"  22,,,,,<<,,,,,,,,,,,,,44444,,,,,,,,,,,,,,,44[[44444,,,,4444,,,,,,,444444444,,,,,,44444,,,,44,,,44,,,,,,,,,,,44[[44,,,,,,,,,,,,,,,,,,99,77,,,,88,77,4447777777,,4,,777777777,8887777777,<77},7777777774,,,77,,4,,,,77,,447777777,,,,,,,,44,,,,,,,,,,,,,,,,,,44[[44,,,,,,,,,,,44,,,44,,,,44444,,,,,,444444444,,,,,,444,4,,,,44444[[44,,,,,,,,,,,,,,,44444,,,,,,,,,,,,,<<,,,,,22  ",
"  22,,,,,<<,,,,,,,,,,,,,44444,,,,,,,,,,,,,,,44[[4444,,,,,4444,,,,,,,44,,44444,,,,,,44444,,4,44,,,44,,,,,<,,,,,44[[44,,,,,,,,,,,,,,,,,,99,77,,,,8844,,,,,7777777,,,44777777777,88888777[[4[77,,777777777,4447744,,,,,77,,,,777777744,,,,,,44,,,,,,,,,,,,,,,,,,44[[44,,,,,,,,,,,44,,,44,,,,44444,,,,,,444444444,,,,,,44444,,,,44444[[44,,,,,,,,,,,,,,,44444,,,,,,,,,,,,,<<,,,,,22  ",
"  22,,,,,<<,,,,,,,,,,,,,44444,,,,,,,,,,,,,,,44[[4444,,,,,4444,,,,,,,444444444,,,,,,44444,,,,44,,,44,,,,,,,,,,,44[[44,,,,,,,,,,,,,,,,,,99,77,,,,8844,,8887777777,,888777777777,88888777[98[7788777777777,8847744,,88,77,888777777744,,,,,,44,,,,,,,,,,,,,,,,,,44[[44,,,,,,,,,,,44,,,44,,,,44444,,,,,,444444444,,,,,,44444,,,,44444[[44,,,,,,,,,,,,,,,4,444,,,,,,,,,,,,,<<,,,,,22  ",
"  22,,,,,<<,,[[444,,44,,,,,,,,,,,44[[444,,,,<<}},<,,,,,,,,,,,,,,,,,,,,,,,,,,,,,,,<<,,,,,,,,,,,,,,,,4444,,,,,,,,,,,,,4444444,,<<,,,,,,,88,77,,,444[[449778888,,,77888778888,,,77,888777[98[7788778888,,,77847744,,88,77,8778999[[477,,,,,,,,,,,,,,,<<,,4444444,,,,,,,,,,,,,444,,,,,,,,,,,,,,,,,<<,,,,,,,,,,,,,,,,,,,,,,,,,,,,,,<,,}}<<,,,,444[[44,,,,,,,,,,,44,,444[[,,<<,,,,,22  ",
"  22,,,,,<<,,[[444,,44,,,,,,,,,,,44[[444,,,,}<}},,,,,,,,,,,,,<,,,,,,,,,,,,,,,,,,,<<,,,,,,,,,,,,,,,,4444,,,,,,,,,,,,,4444444,,<<,,,,,,,88,77,,,,,,444,9778888,,,779887788894,,77,888777,88,7788778888,,4778,77444488,77,877998844,77,,,,,,,,,,,,,,,<<,,4444444,,,,,,,,,,,,,444,,,,,,,,,,,,,,,,,<<,,,,,,,,,,,,,,,,,,,,,,,,,,,,,,,,,}}}},,,,444[[44,,,,,,,,,,,44,,444[[,,<<,,,,,22  ",
"  00<<<,,,,,,,,,,,44[[44,,,,,<<,,,,,,,,,,,44,,,,,,,,,,,,,,,,,,,,,,,,,,44[[[4444[[[[[[[44,,<<,,444[[44,,,,<<<,,,,,,,,,,,4444,,,,44,,44488,7744,,,,,,88477,4,,88,7798477,,,498,77,888777,88,778,77,,,,884778,77444488,778477777777777,444,,,,4444444,,,,4444,,,,,,,,,,,<<<,,,,44[[,,4,,<<,,,,[[[[[[[4444[[[44,,,,,,,,,,,,,,,,,,,,,,,,,,44,,,,,,,,,,,<<,,,,,44[[44,,,,,,444,,<<<00  ",
"  00<<<,,,,,,,,,,,44[[44,,,,,<<,,,,,,,,,,,44,,,,,,,,,,,,,,,,,,,,,,,,,,44[[[4444[[[[[[[44,,<<,,444[[44,,,,<,<,,,,,,,,,,,4444,,,,444,44488,7744,,,,,499[77444499,7788,77444499[77,888777,88,778,77,,44994779477,,,,884778477777777777,444,,,,4444444,,,,4444,,,,,,,,,,,<<<,,,,4,[[,,4,,<<,,4,[[[[[[[4444[[[44,,,,,,,,,,,,,,,,,,,,,,,,,,44,,,,,,,,,,,<<,,,,,44[[44,,,,,,,44,,<<<00  ",
"  22,,,,,,,,,,,444,,,,,,,,,,,,,,,,,,,,,,,<}}<,,,,,,,,,,,,,,,,,,,44,,,,,,,,,4444,,44,,,<<,,<<}},,,,,,,44,,,,,,,,,,,,,444,,,,44,,444[[,,88,77,,,,,44779[77444499,7788,77444499[77,888777,88,778,77,,44994779477,,,,8847788779999984,,,,,,,,44,,[[444,,44,,,,444,,,,,44,,,,,,44,,,,<,,}},,,,<<,,,44,,4444,,,,,,,,,44,,,,,,,,,,,,,,,,,,,<}},,,,,<,,,,,,,,,,,,,,,4,,444,,,,,,,,,,,22  ",
"  22,,,,,,,,,,,444,,,,,,,,,,,,,,,,,,,,,,,,}},,,,,,,,,,,,,,,,,,,,44,,,,,,,,,4444,,44,,,<<,,,<}},,,,,,,44,,,,,,,,,,,,,444,,,,44,,444[[,,88,77,,,,4,,778,774,<,8847788,77,,,,88,77,888777,88,778,77,,,,88,778,77,,,,99,778877888888,4,,,,,,,44,,[[444,,44,,,,444,,,,,,,,,,,,,44,,,,,,,}},,,,<<,,,44,,4444,,,,,,,,,44,,,,,,,,,,,,,,,,,,,<}},,,,,<,,,,,,,,,,,,,,,,,,444,,,,,,,,,,,22  ",
"  22[[[44,,,,44444,,,,,,,,,,,,,,,,,,,,<<,,,,,,,,<<<,,44[[444444444,,,,,,,,,,,,,,,,,444,,,,[[<<444,,,,,,,,,,,,,,,,,,,,,,,,<<44,,,,,44,,88,77777777777847777777777788,77,,,,88,77,888777778,778,77,,,,88,778,777777777778<77777777777,,,,,,,,,,44,,,,,44<<,,,,,,,,,,,,,,,,,,,,,<,,444<<[[,,,,444,,,,,,,,,,,,,,,,,44,,44444[[44,,<<<,,,,,,,,,,,,,,,,,,,,,,,,,,,,,,44444,,,,44[[[22  ",
"  22[[[44,,,,44444,,,,,,,,,,,,,,,,,,,,<,,,,,,,,,<<<,,44[[444444444,,,,,,,,,,,,,,,,,444,,,,[[<<444,,,,,,,,,,,,,,,,,,,,,,,,<<44,,,,,44,,88,,,7777777,88,,,7777777,,88,77,,,,88,774888,,77784778,77444488,778,,,7777777778,,,777777777,,,,,,,,,,44,,,,,44<<,<,,,,,,,,,,,,,,,,,,,,,,444<<[[,,,,444,,,,,,,,,,,,,,,,,44,,44444[[44,,<<<,,,,,,,,<,,,,,,,,,,,,,<,,,,,,,44444,,,,44[[[22  ",
"  00,,,,,,,44,,,,,,,,,,,,,<<<,,,,,,,,,,,,,,,44,,,,,<<,,,,,,,,,,,,,,,44,,444[[[[44[[<<<44,,,,,,,,,,,}}<<,,[[[[[444444<<<,,,,,,,,,,,,,,,8888877777774888887777777,,88,77,,,,88,7748888877784778,77444488,7789887777777778888777777777,,,,,,,,,,,,,,,,,,,,,,,<<<4444[[[[[[[,,<<}},,,,,,,,,,,44<<<[[44[[[[444,,44,,,,,,,,,,,,,,,<<,,,,,44,,,,,,,,,,,,,,,<<<,,,,,,<<,,,,,444,,,,,,00  ",
"  00,,,,,,,44,,,,,,,,,,,,,<<<,,,,,,,,,,,,,,,44,,,,,<<,,,,,,,,,,,,,,,44,,444[[[[44[[<<<44,,,,,,,,,,,}}<<,,[[[[[444444<<<,,,,,,,,,,,,,,,,,8888888<,44449988888,,,,,88,,,,,,,88,,,4448884489448844444,,88,,,4988888888,,,,888998888,,,,,,,,,,,,,,,,,,,,,,,,,,<<<4444[[[[[[[,,<<}},,,,,,,,,,,44<<<[[44[[[[444,,44,,,,,,,,,,,,,,,<<,,,,,44,,,,,,,,,,,,,,,<<<,,,,,,<<,,,,,44,,,,,,,00  ",
"  00,,,,,,,44,,,,,,,,,,,,,<<<,,,,,,,,,,,,,,,44,,,,,<<,,,,,,,,,,,,,,,44,,444[[[[444[<<<44,,,,,,,,,,,}},,,,[[[[[[[4444<<<,,,,,,,,,,,,,,,,,8888888<,,,449988888,,,,,88,,,,,,,88,,,4448884489448844444,,88,,,,888888888,,,,888998888,,,,,,,,,,,,,,,,,,,,,,,,,,<<<4444[[[[[[[,,,,}},,,,,,,,,,,44<<<[[44[[[[444,,44,,,,,,,,,,,,,,,<<,,,,,44,,,,,,,,,,,,,,,<<<,,,,,,,,,,,,,44,,,,,,,00  ",
"  22,,,<<}}<<,,<<<,,,,,,<<|||,,,4,,44[[[4444<<44,,,,,,,,,,,,,,,,<<,,,,,,,,,,,<<,,,,<<<,,44,,,,,,,,,44,,,,444[[44,,<<,,,<,,,,,4444444,,,,,,,,,,,}}<,<<,,,,,,,,,,,,,,,,,,,,,,,,,,444444444[444444444,,,,,,,,,,,,,,,,,,,,,,,,,,<<,,}}<<,,,,,,,,,4444444,,,,,,,,,<<,,44[[444,,,,44,,,,,,,,,44,,<<<,,,,<<,,,,,,,,,,,<<,,,,,,,,,,,,,,,,44<<4444[[[44,,44,,|||<<,,,,,,<<<,,<<}}<<,,,22  ",
"  22,,,<<}}<<,,<<<,,,,,,<<|||,<44,,44[[[4444<<44,,,,,,,,,,,,,,,,<<,,,,,,,,,,,<<,,,,<<<,,44,,,,,,,,,44,,,,444[[44,,<<,,,,,,,,,4444444,,,,,,,,,,,}}<<<<,,,4,,,,,,,,,<<,,<<<44,,,,,,,,,,,,,<,,,,,,,,,,,,,44<<<,,<<,,,,,,,,,4,,,<<<<}},,,,,,,,,,,4444444,,,,,,,,,<<,,44[[444,,4,44,,,,,,,,,44,,<<<,,,,<<,,,,,,,,,,,<<,,,,,,,,,,,,,,,,44<<4444[[[,,,,,,,,|||<<,,,,,,<<<,,<<}}<<,,,22  ",
"  2244444[[44,,,,,,,,,<<,,,,,,<,,,,<<,,,44,,,,44,,444[[,,,,,,,,,44,,<<,,,,,,,<<<<44444,,,,,,,,,,,,,,,,,,,,,,,,,,<<,,,,,,,,,,,,,,,,,,,,,,,,444,,,,44,,,,,,,,,,,44,,,,,,<<<44,,,,,,,,,,,,,<,,,,,,,,,,,,,44<<<,,,,,,44,,,,,,,,,,,44,,,,444,,,,,,,,,,,,,,,,,,,,,,,,<<,,,,,,,,,,,,,,,,,,,,,,,,,,44444<<<<,,,,,,,<<,,44,,,,,,,,,[[4444444,,,,44,,,<<,,,,,,,,,,,<<,,,,,,,,,44[[4444422  ",
"  2244444[[44,,,,,,,,,<<,,,,,,,,,,,<<,,,44,,,,4444444[[,,,,,,,,,44,,<<,,,,,,,<<<<44444,,,,,,,,,,,,,,,,,,,,,,,,,,<<,,,,,,,,,,,,,,,,,,,,,,,,444,,,,44,,,,,,,,,,,44444,,,,,,<<,,,,,,,,,,,,,,,,,,,,,,,,,,,<<,,,,,,44444,,,,,,,,,,,44,,,,444,,,,,,,,,,,,,,,,,,,,,,,,<<,,,,,,,,,,,,,,,,,,,,,,,,,,44444<<<<,,,,,,,<<,,44,,,,,,,,,[[4444444,,,,44,,,<<,,,,,,,,,,,<<,,,,,,,,,44[[4444422  ",
"  22[[[44,,,,44[[[[[44,,,,44444[[44,,,,,,<,,,,<<<<<,,,,,,,,<<,,,,,,,,,,,,,,,,,,,,44,,,,,44,,,,,,,44[[44,,44444,,<<,,,,,<<,,,,,,,,,,,,,44,,,,,,,44,,44444<<<<,,,,,,,,,,,,,<<,,,,,,,,,,,,,,,,,,,,,,,,,,,<<,,,,,,,,,,,,,<<<<44444,,44,,,,,,,44,,,,,,,,,,,,,<<,,,,,<<,,44444,,44[[44,,,,,,,44,,,,,44,,,,,,,,,,,,,,,,,,,<<<,,,,,,,,<<<<<,,,,,,,,,,,44[[44444,,,,44[[[[[44,,,,44[[[22  ",
"  22[[[44,,,,44[[[[[44,,,,44444[[44,,,,,<,,,,,<<<<<,,,,,,,,<<,,,,,,,,,,,,,,,,,,,,44,,,,,44,,,,,,,44[[44,,44444,,<<,,,,,<<,,,,,,,,,,,,,44,,,,,,,44,,,4444<,<<,,44,,,,,,,,,,,,,44,,,,,44,,[,,44,,,,,44,,,,,,,,,,,,,44,,<<,<44444,,44,,,,,,,44,,,,,,,,,,,,,<<,,,,,<<,,44444,,44[[44,,,,,,,44,,,,,44,,,,,,,,,,44,,,,,,,<<<,,,,,,,,<<<<<,,,,,,,,,,,44[[44,,4,,,444[[[[[44,,,,44[[[22  ",
"  22444[[44,,,,,,,,,,,,,<<,,,<<,,4,,4[[[<<,,44,,,,,,,<<,,,,<<,,,44,,,,44444,,,,<<,,,,,,,<<,,,,,,,,,,,,,,,,,,,,<<,,44[[[[[44,,,,444,,,,,,,,,,,,,,,,,,,,,,44444444444,,,,,,,,,,,4,,,,,44,,[,,44,,,,,4,,,,,,,,,,,44444444444,,,,,,,,,,,,,,,,,,,,,,444,,,,44[[[[[44,,<<,,,,,,,,,,,,,,,,,,,,<<,,,,,,,<<,,,,444,,4,,,44,,<<<,,,,<<,,,,,,,44,,,,4444444,,<<<,,<<,,,,,,,,,,,,,44[[44422  ",
"  22444[[44,,,,,,,,,,,,,<<,,,<<,,4444[[[,,,,44,,,,,,,<<,,,,<<,,,44,,,,,4444,,,,<<,,,,,,,<<,,,,,,,,,,,,,,,,,,,,<<,,44[[[[[44,,,,444,,,,,,,,,,,,,,,,,,,,,,,4,,,,44444,,,,,,,,,,,,,,4444444,4444444,,,,,,,,,,,,,,44444,,,,4,,,,,,,,,,,,,,,,,,,,,,,444,,,,44[[[[[44,,<<,,,,,,,,,,,,,,,,,,,,<<,,,,,,,<<,,,,444,,,,,,44,,<<<,,,,<<,,,,,,,44,,,<4[[4444,,<<,,,<<,,,,,,,,,,,,,44[[44422  ",
"  22222222222222222222222211122222233222222222222222222222233000333322222223333223333300222222333222222||222223322222222222222222200222211222223322222222222111||||||11|||||||}}<<<<,,<<<<<,,<<<<}}|||||||11||||||111222222222223322222112222332222222222222222223322222||22222233322222200333332233332222222333300333222222222222222222222233222222111222222222222222222222222  ",
"  22222222222222222222222211122222233222222222222222222222233000333322222223333223333300222222333222222||222223322222222222222222233222211222223322222222222222222222222222222222222223323322222222222222222222222222222222222223322222112222332222222222222222223322222||22222233322222200333332233332222222333300333222222222222222222222233222222111222222222222222222222222  ",
"  22222222222222222222222211122222233222222222222222222222233000333322222223333223333300222222323222222||222223322222222222222222233222211222223322222222222222222222222222222222222223323322222222222222222222222222222222222223322222112222332222222222222222223322222||22222233322222200333332233332222222333300333222222222222222222222233222222111222222222222222222222222  ",
"  33222222222222222222222233322222222222222222223333300333322222222233332222222222233322222222222222222112222222222222233222222222222233332222222222222222222222222222222222222222222233233222222222222222222222222222222222222222222223333222222222222233222222222222221122222222222222222333222222222223333222222222333300333332222222222222222222333222222222222222222222233  ",
"  33222222222222222222222233322222222222222222223333300333322222222233332222222222233322222222222222222112222222222222233222222222222233332222222222222222222222222222222222222222332222222223322222222222222222222222222222222222222223333222222222222233222222222222221122222222222222222333222222222223333222222222333300333332222222222222222222333222222222222222222222233  ",
"                                                                                                                                                                ++++++######%%%******@@@a@@@******%%%######++++++                                                                                                                                                                ",
"                                                                                                                                                                                                                                                                                                                                                                                 "};
