/* XPM */
static char * Counter9_xpm[] = {
"16 16 2 1",
" 	c #FFFFFE",
".	c #FF0000",
"                ",
"                ",
"                ",
"    ........    ",
"   ..........   ",
"   ...    ...   ",
"   ...    ...   ",
"   .........    ",
"     .......    ",
"          ...   ",
"   ..     ...   ",
"   ..........   ",
"    ........    ",
"                ",
"                ",
"                "};
