/* XPM */
static char * Counter4_xpm[] = {
"16 16 2 1",
" 	c #FFFFFE",
".	c #FF0000",
"                ",
"                ",
"                ",
"     ... ...    ",
"     ... ...    ",
"    ...  ...    ",
"    ...  ...    ",
"   ..........   ",
"   ..........   ",
"         ...    ",
"         ...    ",
"         ...    ",
"         ...    ",
"                ",
"                ",
"                "};
