/* XPM */
static char * Counter0_xpm[] = {
"16 16 2 1",
" 	c #FFFFFE",
".	c #FF0000",
"                ",
"                ",
"                ",
"    ........    ",
"   ..........   ",
"   ...    ...   ",
"   ..      ..   ",
"   ..      ..   ",
"   ..      ..   ",
"   ..      ..   ",
"   ...    ...   ",
"   ..........   ",
"    ........    ",
"                ",
"                ",
"                "};
