/* XPM */
static char * Counter2_xpm[] = {
"16 16 5 1",
" 	c #FFFFFE",
".	c #FFFFFF",
"+	c #FFFFFF",
"@	c #FFFFFF",
"#	c #FFFFFF",
"                ",
"                ",
"                ",
"    .+++++++    ",
"   @+++++++++   ",
"   #++    +++   ",
"          +++   ",
"        ++++    ",
"      +++++     ",
"    +++++       ",
"   ++++         ",
"   ++++++++++   ",
"   .+++++++++   ",
"                ",
"                ",
"                "};
