/* XPM */
static char * Counter7_xpm[] = {
"16 16 2 1",
" 	c #FFFFFE",
".	c #FF0000",
"                ",
"                ",
"                ",
"   ..........   ",
"   ..........   ",
"          ...   ",
"          ...   ",
"         ...    ",
"         ...    ",
"        ...     ",
"        ...     ",
"       ...      ",
"       ...      ",
"                ",
"                ",
"                "};
