/* XPM */
static char * Counter1_xpm[] = {
"16 16 2 1",
" 	c #FFFFFE",
".	c #FF0000",
"                ",
"                ",
"                ",
"        ..      ",
"       ...      ",
"      ....      ",
"     .....      ",
"       ...      ",
"       ...      ",
"       ...      ",
"       ...      ",
"     .......    ",
"     .......    ",
"                ",
"                ",
"                "};
