/* XPM */
static char * F_xpm[] = {
"238 79 39 1",
" 	c #000000",
".	c #040403",
"+	c #070707",
"@	c #080706",
"#	c #080807",
"$	c #030302",
"%	c #0C0B0A",
"&	c #0C0C0A",
"*	c #0C0C0C",
"=	c #10100E",
"-	c #100F0D",
";	c #AAAAAA",
">	c #A7A7A7",
",	c #ACACAC",
"'	c #A0A0A0",
")	c #9F9F9F",
"!	c #9A9A9A",
"~	c #959595",
"{	c #939393",
"]	c #8E8E8E",
"^	c #737373",
"/	c #717171",
"(	c #808080",
"_	c #7C7C7C",
":	c #838383",
"<	c #535353",
"[	c #686868",
"}	c #747474",
"|	c #6F6F6F",
"1	c #606060",
"2	c #646464",
"3	c #656565",
"4	c #585858",
"5	c #ADADAD",
"6	c #111111",
"7	c #282828",
"8	c #2D2D2D",
"9	c #2F2F2F",
"0	c #4C4C4C",
"                                                                                                                                                                   ....+++++@@@#$$$$%$&$&&&&&&&&&**=*********&**-****&&*&&**&****=-===        ",
"                                                                                                                                                                                                                                              ",
"                                                                                                                                                                                                                                              ",
"    ;;;;;;;;;;;;;;;;;;;;>>>>>>>>;;;;;;;;;;;;;;;;;;;;;;;;;;;;;;;;;;;;;;;;;;;;;;;;;;;;;;;;;;;;;;;;;;;;>>>>;;>>;;;;;;;;;;;;;;;;;;,,,,;;;;;;;;;;;;;;;;;;;;;;;;;;;>>>>>''))))!!!!!~~~~{]]^]]^^^^////^/((/(/(_((((((:(((((///^^//(////(((((_<<<<    ",
"    ;;;;;;;;;;;;;;;;;;;;>>>>>>>>;;;;;;;;;;;;;;;;;;;;;;;;;;;;;;;;;;;;;;;;;;;;;;;;;;;;;;;;;;;;;;;;;;;;>>>>;;;;;;;;;;;;;;;;;;;;;;,,,,;;;;;;;;;;;;;;;;;;;;;;;;;;;>>>>')))))!!~~~~{{{{]]^^^////(((((____[_[_[[[[[__[[[_[___(((((______[[[[}<<<<    ",
"    ;;;;;;;;;;;;;;;;;;;;>>>>>>>>;;;;;;;;;;;;;;;;;;;;;;;;;;;;;;;;;;;;;;;;;;;;;;;;;;;;;;;;;;;;;;;;;;;;>>>>;>;;;;;;;;;;;;;;;;;;;;,,,,;;;;;;;;;;;;;;;;;;;;;;;;;;;;;;;;;;;;>>>>;;;;;;;;;;;;;;;;;;;;;;;;;;;;>;;;;;;;;;;;;;;;;;;;;;;;;;;;;;;;<<<<    ",
"    ;;;;;;;;;;;;;;;;;;;;>>>>>>>>;;;;;;;;;;;;;;;;;;;;;;;;;;;;;;;;;;;;;;;;;;;;;;;;;;;;;;;;;;;;;;;;;;;;>>>>>>>;;;;;;;;;;;;;;;;;;;,,,,;;;;;;;;;;;;;;;;;;;;;;;;;;;;;;;;;;;;>>>>;;;;;;;;;;;;;;;;;;;;;;;;;;;;>;;;;;;;;;;;;;;;;;;;;;;;;;;;;;;;<<<<    ",
"    ;;;;||||||||||||||||||||||||||||||112222||||||||||||||||||||||||2222||||||||||||||11||||1111||||||||||||22222222||||2|||||||||||||||||||||||||||||||||222222222222}}}}[___(((((((((((/((///////////^^^^^^^//////(//////////////^^^<<<<    ",
"    ;;;;||||||||||||||||||||||||||||||112222||||||||||||||||||||||||2222|||||||||||||||1||||1111||||||||||||22222222||||||||||||||||||||||1|||11|||||||||2222222222222}}}[____(((/////////////^^^^^^^^^^^]]]^]^^^^^^//////^^^^^^^^^^]]<<<<    ",
"    ;;;;||||||||||||||||||||||||||||||112222||||||||||||||||||||||||2222|||||||||||||||||||11111||||||||||||22222222||||||||||||||||||||||11||1|||||||||||||||||||1111||||222222222222||||||||22222|||2||||||||||||1111|||||||||||||||<<<<    ",
"    ;;;;||||||||||||||||||||||||||||||||2222||||||||||||||||||||||||2222||||||||||||||||||111111||||||||||||22222222||||||||||||||||||||||11|||111||||||||||||||||1111||||222222222222|||||||||22222222||||||||||||1111|||||||||||||||<<<<    ",
"    ;;;;||||1111||||||||||||||||2222||||||||||||||||||22}}}}||||||||1111||||||||22222222||||2222||||||||||||2|||||||||||||||||22222222||||||||2222||||22222222|||||||||2222222222||||||||||||||2222||||111||||||||||||||||||||||||||||<<<<    ",
"    ;;;;||||1111||||||||||||||||2222||||||||||||||||2222}}}}||||||||1111||||||||22222222||||2222||||||||||||||||||||||||||||||||222222||||||||2222||||2|2|2222|||||||||22222222222|||||||||||||2222||||1111||||||||1||||||||||||||||||<<<<    ",
"    ;;;;||||1111||||||||||||||||2222||||||||||||||||2222}}}}||||||||1111||||||||22222222||||2222||||||||||||||||||||||||||||||2|222222||||||||2222||||||||2222||||||||222222222222|||||||||||||||||||||||||||||111|1111111|2222|||||||<<<<    ",
"    ;;;;||||1111||||||||||||||||2222||||||||||||||||2222}}}}||||||||1111||||||||22222222||||2222||||||||||||||||||||||||||||||22222222||||||||2222||||||||2222||||||||||||22222222|||||||||||||||||||||||||||||1||1111111112222|||||||<<<<    ",
"    ;;;;||||2222||||||||||||2222||||||||||||||||||||||||||||||||33331111||||||||1111||||||||33331111||||||2222222222||||||2222|||||||||||2||||||||||||2222||||||||||||11|||22222||||||||||||||2||||||||||||||||1|||111111112222|||||||<<<<    ",
"    ;;;;||||2222||||||||||||2222||||||||||||||||||||||||||||||||3333||||||||||||1111||||||||33331111||||222222222222||||||2222|||||||||222||||1|||||||2222||||||||||||11|||||||||||||||||||||22|||||||||||||||||111111111112222|||||||<<<<    ",
"    ;;;;||||2222||||||||||||2222||||||||||||||||||||||||||||||||3333||||||||||||1111||||||||33331111||||222222222222||||||222|||||||||2222||||11||||||||||||||1|||||||1|||2|||2||||||||||||||||||||||||||||2222222|||||||||||||||||222<<<<    ",
"    ;;;;||||22221111||||||||2222||||||||||||||||||||||||||||||||333311||||||||||1111||||||||33331111||||222222222222||||||22||||||||||2222||||||||||||||||||||||||||||1|||2|||2||||||||||||||||||||||||||||}}}}22||||||||||||||||||222<<<<    ",
"    ;;;;||||222222221111||||2222||||||||1111||||||||||||||||22}22222||222222||||||||||||||||||||||||||||||222222||||||||||||||||||||||||||||||||||||||||||3333||||||||||||2||||||||||||||||||||||||||||||||}}}}22||||||||||||||||||2224444    ",
"    ;;;;||||222222221111||||2222||||||||1111||||||||||||||||22222222||||2222|||||||||||||||||||||||||||55555555555555555555|||||||||||||||||||||||||||||||1111|||||||||||22|||2||||||||||||||||||||||||||||}}}}2222||||||||||||||||2224444    ",
"    ;;;;||||222222221111||||2222||||||||1111||||||||||||||||22222222||2|2222|||||||||||||||||||||||||||55555555555555555555|||||||||||||||||||||||||||||||1111||||||||||||||11|11||1111111111112222}}}}2222}}}}2222|||||||||||||||||||4444    ",
"    ;;;;|||||22222221111||||2222||||||||1111||||||||||||||||2222222222222222|||||||||||||||||||||||||||55555555555555555555|||||||||||||||||||||||||||||||1111||||||||||||2|11|111|1111111111112222}}}}2222}}}}2222|||||||||||||||||||4444    ",
"    >>>>||||||||||||||||||||2222||||1111||||||||||||||||||||||||1111||||||||||||||||||||||||2222|||||||55555555555555555555222||||1111||||2222||||||||||||2|222|||||||||222|1||||||1111111111112222}}}}2222}}}}2222|||2222||||||||||||<<<<    ",
"    >>>>||||||||||||||||||||2222||||1111||||||||||||||||||||||||1111||||||||||||||||||||||||2222|||||||5555|11331111||||222222||||1111||||2222||||||||||||22222|||||||||||21|||||||1111111111112222}}}}2222}}}}2222|||||||||||||||||||<<<<    ",
"    >>>>||||||||||||||||||||2222||||1111||||||||||||||||||||||||1111||||||||||||||||||||||||2222|||||||55556667766666666668888||||1111||||22||||||||||||||222222||||||11111111|||||22222222||||||||22222222}}}}22222222}}}}||||1111|||<<<<    ",
"    >>>>||||||||||||||||||||2222||||1111||||||||||||||||||||||||1111||||||||||||||||||||||||2222|||||||55556666666666666668888||||1111||||2|||||||||||||||222222||||||111111111||||22222222||||||||22222222}}}}22222222}}}}||||1111|||<<<<    ",
"    ;;;;||||||||||||22222222222222222222}}}}||||||||||||||||||||||||||||||||||||||||2222||||||||||||111555566666666666666666662222}}}}2222|||||||||||||||22||||||||||||1111|||1||||22222222||||||||22222222}}}}22222222}}}}||||1111|||<<<<    ",
"    ;;;;||||1|||||||22222222}}}}22222222}}}}||||1111||||||||||||||||||||||||||||||||2222||||||||||||111555555555555666666666662222}}}}2222|||||||||||||||22||||||||||||1111|||1||||22222222||||||||22222222}2}}22222222}}}}||||1111|||<<<<    ",
"    ;;;;||||1|||||||22222222}}}}22222222}}}}||||1111||||||||||||||||||||||||||||||||2222||||||||||||111555555555555|2|22||||||2222}}}}2222|||||||||||||||||||||1111||||22222|||2222||||||||||||||||333311111111||||||||||||2222}}}}222<<<<    ",
"    ;;;;||||11||||||2222}}2222}}22222222}}}}||||||||||||||||||||||||||||||||||||||||2222||||||||||||331555555555555|2222||||||2222}}}}2222|||||||||||||||||||||1111||||22||||||2222||||||||||||||||333311111111||||||||||||2222}}}}222<<<<    ",
"    ;;;;1111||||||||1111||||||22||||||||22222222||||||||||||||11|||||||||||||||||||||||||||||||||||||||555555555555|||||||2222||||||||22222222||||||||||||||||||111||||||||||||2222||||||||||||||||333311111111||||||||||||2222}}}}222<<<<    ",
"    ;;;;||11||||||||1111||||||||||||||||22222222||||||||1||||||||||||||||||||||||||||||||||||||||||||||5555666||||||||||||2222||||||||22222222||||||||||||||||||111||||||||||||2222||||||||||||||||3333|||11111||||||||||||2222}}}}222<<<<    ",
"    ;;;;||||||||||||1111||||||||||||||||22222222||||||||111||||||||||||||||||||||||||||||||||||||||||||555566666666666||||2222||||||||22222222|||||||||||||||||2|||1|||||||||||||||1111||||||||||||2222}}}}2222||||||||2222||||||||222<<<<    ",
"    ;;;;||||||||||||1111||||||||||||||||2222}}22||||||||111||||||||||||||||||||||||||||||||||||||||||||555566666666666||||2222||||||||22222222|||||||||||||||||2|2|1|||||||||||||||1111||||||||||||2222}}}}2222||||||||2222||||||||222<<<<    ",
"    ;;;;||||||||||||||||||||||||||||||||||||2|||2222}}}}2|||||||||||||||||||||11||||2222||||||||1111|11555588888888888}}}}222222221111|||||||||1||22222222222222222||||||||||||||||1111||||||||||||2222}}}}2222||||||||2222||||||||22|9999    ",
"    ;;;;||||||||||||||||||22||||||||||||||||22222222}}}}2222|||||||||||||||||||1||||2222||||||||1111|||555588888888888}}}}222222221111|||||11|1|||2222222|22||22222||||||||||||||||1111||||||||||||2222}}}}2222||||||||2222||||||||2229999    ",
"    ;;;;||||||||||||||||2|22||||||||||||||||22222222}}}}||22||||||||||||||||||||||||2222||||||||1111|||555588822}}}}}}}}}}222222221111||||||||11||22222|||2|||2222|22222222}}}}}}}}||||||||2}}}}}}}222222222222}}}}[[[[222222221111|||9999    ",
"    ;;;;||||||||||||||||2222||||||||||||||||||||2222}}}}|222||||||||||||||||||||||||2222||||||||111111|555588822}}}}}}}}}}222222221111|||||||111||22222|||2|||2222|22222222}}}}}}}}||||||||2}}2}}}}222222222222}}}}[[[[222222221111|||9999    ",
"    ;;;;||||2222}}}}22222222}}}}2222||||||||||||||||222222222222||||2222}}}}2222||||||||||||||||||||1115555866||||||||||||||||||||||||||||||||2222|||||||||||||||||22222222}}}}}}}}||||||||2}22}}}}222222222222}}}}[[[[222222221111|||<<<<    ",
"    ;;;;||||2222}}}[22222}}}}}}}2222||||||||||||||||222222222222||||2222}}}}2222||||||||||||||||||||1115555866||||||||||||||||||||||||||||||||2222|||||||||||||||||22222222}}}}}}}}||||||||}}}}}}}}222222222222}}}}[[[[222222221111|||<<<<    ",
"    ;;;;||||2222}}}}22222}}}}}}}2222||||||||||||||||222222222222||||2222}}}}2222||||||||||||||||||||1115555866||||||||||22||||||||||||||||||||2222|||||||||||||||||2222||||||||||||||||||||||||||||||222|||2222|||||||||||||||||||||||<<<<    ",
"    ;;;;||||2222}}}}222222}}}}}}2|22||||||||||||||||222222222222||||2222}}}}2222||||||||||||||||||||1115555866||||||||||22||||||||||||||||||||2222||||||11|||||||||2222|||||||||||||||||||||||||||||||22|222222|||||||||||||||||||||||<<<<    ",
"    ;;;;||||||||||||22222222||||11||||||||||||||||||3333||||2|||||||||||1111||||22222222||||||||2222|||5555666||2222}}}}22||||||||||||||||||||||||||||22|||||||||||2222|||||||||||||||||||||||||||||||22|222222|||||||||||||||||||||||4444    ",
"    ;;;;||||||||||||||||2222||||||||1111||||||||||||3333||||||||||||||||1111||||22222222||||||||2222|||5555666||2222}}}}||||||||||||||||||||||||||||||22|||||||||||2222|||||2||||||||||||||||||||||||||22222222|||||||||||||||||||||||4444    ",
"    ;;;;||||||||||||||||2222||||||||1111||||||||||||3333||||||||||||||||1111||||22222222||||||||2222|||5555666||2222}}}}||||||||||||||||||||||||||||||222||2222||||||||||||2222}}}}[[[[2222||||2222222222222222|||||||||||||||||||||||4444    ",
"    ;;;;||||||||||||||||2222||||11||11|1||||||||||||333311||||||||||||||1111||||22222222||||||||2222|||5555666||2222}}}}||||||||||||||||||||||||||||||2222|2222||||||||||||2222}}}}[[[[2222||||2222222222222222|||||||||||||||||||||||4444    ",
"    ;;;;||||||||||||222222222222||||||||11111111||||||||33331133||||}}}}||||||||2222||||||||||||||||1115555666||||||2222|||||||||||||||||||||||||||||||||||2222||||||||||||2222}}}}[[[[2222||||222222222222}222|||||||||||||||||||||||9999    ",
"    ;;;;||||||||||||222222222222||||||||11111111||||||||33331133||||}}}}2222||||2222||||||||||||||||1111||6666||||||2222|||||||||||||||||||||||||||||||||||2222||||||||||||2|||}}}}[[[[2222||||2222222222222222|||||||||||||||||||||||9999    ",
"    ;;;;||||||||||||222222222222||||||||11111111||||||||33331111||||}}}}2222||||2222||||||||||||||||1111||6666||||||2222||||||||||||||||||||||||||||||||||||||2|||||||||||||||||222}}}}2222||||1111|||||||||||||||||||||||||||||||||||9999    ",
"    ;;;;||22||||||||222222222222||||||||11111111||||||||33331111||||}}}}2222||||2222||||||||||||||||1111||6666||||||2222||||||||||||||||||||||||||||||||||||||2||||||||||||||||2222}}}}2222||||1111|||||||||||||||||||||||||||||||||||9999    ",
"    ;;;;2222||||||||||||11112222||||||||||||||||||||2222||2|||||||||||||1111||||||||||||222222222222||||||666611||||2222||2}}}1111|1||11111111||||||||||||||||2||||||||||||||||2222}}}}2222||||1111|||||||||||||||||||||||||||||||||||<<<<    ",
"    ;;;;2222||||||||||||11112222||||||||||||||||||||2222|||22222||||||||1111||||||||||||22}}22222222||||||666611||11||22||22}}111111||11111111||||||||||||||||2|||||||||||1||||2222}}}2|222||||1111|||||||||||||||||||||||||||||||||||<<<<    ",
"    ;;;;2222||||||||||||11112222||||||||||||||||||||2222||222222||||||||1111||||||||||||22}}22222222||||||||1111||112|22||22}}111111||11111111||||||||2|||||||22||||22|11111|||2222||||||||||||2222222||222||||||||||||}}}}1111||||111<<<<    ",
"    ;;;;2222||||||||||||11112222||||||||||||||||||||2222||||2|22||||||||1111||||||||||||22}}22222222||||22||1111||112222||222}1111||||11111111||||||||2|||||||22||||22|111111||2222||||||||||||2222222||222||||||||||||}}}}11111|||111<<<<    ",
"    ;;;;2222}}}}22||||||||||||||||||||||||||||||||||||||222222}}||||||||||||||||||||||||||22||||||||||||||||||||2222||||||1113|||1||||||||||||||||||||||||||||||||||||2|111||||2222||||||||||||222222|||222||||||||||||}}}}11111|||111<<<<    ",
"    ;;;;2222}}}}2222||||||||||||||||||||||||||||||||||||22222222||||||||||||||||||||||||||||||||||||||||||||||||2222||||||1111||||||||||||||||||||||||||||||||||||||||2|||1||||2||2||||||||||||222222222222||||||||||||}222111111|1111<<<<    ",
"    ;;;;2222}}}}2222||||||||||||||||||||||||||||||||||||22222222|||||||||||||||||||||||||||||||||||||||||2||||||2222||||||1111|||||||||||||||||||||||||||||||||||||||||||||2222||||1||1||||||||||||||||||||||||||||||||33331111|||||||<<<<    ",
"    ;;;;}}22}}}}2222||||||||||||||||||||||||||||||||||||22222222||||||||||||||||||||||||||||||||||||||||22|2||||2222||||||1111|||||||||||||||||||||||||||2|||||||||||||||||2222||||||||||||||||||||||||||||||||||||||||3333111||||||||<<<<    ",
"    ;;;;2|||||||||||2222||||||||||||||||||||||||||||1111||||||||||||||||||||||||22222222||||||||||||22222222}}}}22222222||||||||||||||||||2222}}}}2222}}}2222222222222|||||||2|||||1|||||||||||||||||||||||||||||||||||3333|||||||||||<<<<    ",
"    ;;;;22||||||||||2222||||||||||||||||||||||||||||1111||||||||||||||||1111||||22222222||||||||||||22222222}}}}}2222222||||||||||||||||||2222}}}}2222}}}2222222222222||||||||||||||||||||||||||||||||||||||||||||||11|3333|||||||||||<<<<    ",
"    ;;;;22||||||||||2222||||||||||||||||||||||||||||1111||||||||||||||||1111||||22222222||||||||||||22222222}}}}}2}22222||||||||||||||||||2222}}}}2222}}}222222222222222222222||||||||||||||||||||||22|||||1111|||||||2222||||||||||||<<<<    ",
"    ;;;;22||||||||||2222||||||||||||||||||||||||||||1111||||||||||||||||||||||||22222222||||||||||||22222222}}}}}}}}2222||||||||||||||22222222}}}}2222}}}222222222222222222222||||||||||||||||||||||22|||||1111|||1|||2222||||||||||||<<<<    ",
"    ;;;;22||||||||||||||||||||||3333||||||||22222222||||||||2222[[[[2222||||||||111122||}}}}||||||||||||}}}}2222}}}}2222||222|||||||||||||2222||||||||||||11113333||||2}}}22222||||111|||||22222||||222||||1111|||||||||||||||2|||||||4444    ",
"    ;;;;||||||||||||||||||||111|3333||11|22222222222||||||||2222[[[[2222||||||||1111||||}}}}2222||||||||}}}}2222}}}}2222||2222||||||||||||22|||2||||||||||11113333||||2}}}22222||||111||||22|||2222222||||||||||||||||||||||||||||||||4444    ",
"    ;;;;||||||||||||||||||||111|3333|111|22222222222||||||||2222[[[[2222||||||||1111||||}}}}2222||||||||}}}}2222}}}}2222||2222||||||||||||2222|222||||||||11113333||||222222222||||||||||||||||||||||||||||22221111|||||||||||||||||||4444    ",
"    ;;;;||||||||||||||||||||11||3333||1|||2222222222||||||||2222____2222||||||||1111||||}}}}2222||||||||2}222222}}}}22||||2222||||||||||||22222222||||||||11113333||||222222222||||||1|||||||||||||||||||||222|1111|||||222|||||||||||4444    ",
"    2222<<<<<<<<<<<<<<99<<<<<<<<<<<<<<<<<<<<<<<<9900<<<<<<<<<<<<<<<<<<<<<<<<<<<<<<<<<<<<<<<<<<<<444444449999<<<<<<<<<<<<<<<<<<<<<<4444<<<4<<<<<<<<<<<<<<<<<<<<<<4444444444444414441111441114444444411111111333144441111111444444444111<<<<    ",
"    2222<<<<<<<<<<<<<<99<<<<<<<<<<<<<<<<<<<<<<<<9999<<<<<<<<<<<<<<<<<<<<<<<<<<<<<<<<<<<<<<<<<<<<444444449999<<<<<<<<<<<<<<<<<<<<<<4444<<<<<<<<<<<<<<<<<<<<<<<<444444444444444444444444444444444444444444111111444444444444444444444111<<<<    ",
"    2222<<<<<<<<<<<<<<99<<<<<<<<<<<<<<<<<<<<<<<<9999<<<<<<<<<<<<<<<<<<<<<<<<<<<<<<<<<<<<<<<<<<<<44444444<<99<<<<<<<<<<<<<<<<<<<<<<4444<<<<<<<<<<<<<<<<<<<<<<<<<<<<<<<<<<<<<<<<<<<<<<<<<<<<<<<<<<<<<<<<<<4444444<<<<<<<<<<<<<<<<4444444<<<<    ",
"    2222<<<<<<<<<<<<<<<<<<<<<<<<<<<<<<<<<<<<<<<<0099<<<<<<<<<<<<<<<<<<<<<<<<<<<<<<<<<<<<<<<<<<<<44444444<<<<<<<<<<<<<<<<<<<<<<<<<<4444<<<<<<<<<<<<<<<<<<<<<<<<<<<<<<<<<<<<<<<<<<<<4<<<<<<<<<<<<<<<<<<<<4444444<<<<<<<<<<<<<<<<<4<<4444<<<<    ",
"    ||||<<<<<<<<444444444444<<<<<<<<<<<<<<<<<<<<<<<<<<<<<<<<<<<<<<<<4444<<<<<<<<<<<<<<<<<<<<9999<<<<4444<<<<<<<<<<<<<<<<<<<<<<<<<<<<<<<<<<4444<<<<<<<<<<<<<<<<4444<<<<<<<<<<<<<<<<4<<<<<<<<<<<<<<<<<<<<<<<<444<<<<<<<<<<<<<<<<<<<<<<<<<<<<    ",
"    ||||<<<<<<<<444444444444<<<<<<<<<<<<<<<<<<<<<<<<<<<<<<<<<<<<<<<<4444<<<<<<<<<<<<<<<<<<<<9999<<<<4444<<<<<<<<<<<<<<<<<<<<<<<<<<<<<<<<<<4444<<<<<<<<<<<<<<<<4444<<<<<<<<<<<<<<<<4<<<<<<<<<<<<<<<<<<<<<<<<<<<4<<<<<<<<<<<<<<<<<<<<<<<<<<<    ",
"    ||||<<<<<<<<444444444444<<<<<<<<<<<<<<<<<<<<<<<<<<<<<<<<<<<<<<<<4444<<<<<<<<<<<<<<<<<<<<9999<<<<4444<<<<<<<<<<<<<<<<<<<<<<<<<<<<<<<<<<4444<<<<<<<<<<<<<<<<4444<<<<<<<<<<<<<<<<4444<<<<<<<<<<<<<<<<<<<<<<<<<<<<<<<<<<<<<<<<<<<<<<<<<<<<    ",
"    ||||<<<<<<<<444444444444<<<<<<<<<<<<<<<<<<<<<<<<<<<<<<<<<<<<<<<<4444<<<<<<<<<<<<<<<<<<<<9999<<<<4444<<<<<<<<<<<<<<<<<<<<<<<<<<<<<<<<<<44444444<<<<<<<<<<<<4444<<<<<<<<<<<<<<<<4444<<<<<<<<<<<<<<<<<<<<<<<<<<<<<<<<<<<<<<<<<<<<<<<<<<<<    ",
"                                                                                                                                                                        ++++++++$$$$$$$$$$$********$$***********$$$$$$$$$$$$$$$$$$$$++        ",
"                                                                                                                                                                        ++++++++++++$$$$$$$$$$$$$$$*$$$**$$$$$$$$$$$$$$$$$$$+++++$++++        ",
"                                                                                                                                                                                                                                              ",
"                                                                                                                                                                                                                                              "};
