/* XPM */
static char * flagselected_xpm[] = {
"48 48 129 2",
"  	c #FAE04E",
". 	c #B1B1B1",
"+ 	c #A7A6A7",
"@ 	c #949494",
"# 	c #7F7F7F",
"$ 	c #5F5F5F",
"% 	c #5C5C5C",
"& 	c #5B5B5B",
"* 	c #818181",
"= 	c #B4B4B4",
"- 	c #8F8F8F",
"; 	c #5E5E5E",
"> 	c #676767",
", 	c #686868",
"' 	c #2A2A2A",
") 	c #2B2B2B",
"! 	c #888888",
"~ 	c #878787",
"{ 	c #909090",
"] 	c #393939",
"^ 	c #3A3A3A",
"/ 	c #6F6F6F",
"( 	c #6E6E6E",
"_ 	c #9D9D9D",
": 	c #2C2C2C",
"< 	c #595959",
"[ 	c #2E2E2E",
"} 	c #848484",
"| 	c #323232",
"1 	c #333333",
"2 	c #252525",
"3 	c #242424",
"4 	c #8B8B8B",
"5 	c #373737",
"6 	c #5A5A5A",
"7 	c #2F2F2F",
"8 	c #262626",
"9 	c #383838",
"0 	c #838383",
"a 	c #717171",
"b 	c #474747",
"c 	c #484848",
"d 	c #313131",
"e 	c #B9B9B9",
"f 	c #B8B8B8",
"g 	c #FF0000",
"h 	c #3C3C3C",
"i 	c #3D3D3D",
"j 	c #A9A9A9",
"k 	c #B7B7B7",
"l 	c #B3B3B3",
"m 	c #B2B2B2",
"n 	c #A4A4A4",
"o 	c #9F9F9F",
"p 	c #9E9E9E",
"q 	c #9C9C9C",
"r 	c #525252",
"s 	c #525152",
"t 	c #7D7D7D",
"u 	c #AAAAAA",
"v 	c #515051",
"w 	c #ABABAB",
"x 	c #727272",
"y 	c #858585",
"z 	c #7E7E7E",
"A 	c #C4C4C4",
"B 	c #787878",
"C 	c #797979",
"D 	c #636363",
"E 	c #626262",
"F 	c #2D2D2D",
"G 	c #8E8E8E",
"H 	c #A3A3A3",
"I 	c #565656",
"J 	c #555555",
"K 	c #545454",
"L 	c #535353",
"M 	c #4C4C4C",
"N 	c #363636",
"O 	c #353535",
"P 	c #616161",
"Q 	c #C1C1C1",
"R 	c #C0C0C0",
"S 	c #303030",
"T 	c #222222",
"U 	c #232323",
"V 	c #BABABA",
"W 	c #6D6D6D",
"X 	c #000000",
"Y 	c #494949",
"Z 	c #3E3E3E",
"` 	c #212121",
" .	c #1E1E1E",
"..	c #C5C5C5",
"+.	c #6C6C6C",
"@.	c #1B1B1B",
"#.	c #3B3B3B",
"$.	c #696969",
"%.	c #929292",
"&.	c #5D5D5D",
"*.	c #808080",
"=.	c #868686",
"-.	c #9B9B9B",
";.	c #A0A0A0",
">.	c #ACACAC",
",.	c #7A7A7A",
"'.	c #7B7B7B",
").	c #707070",
"!.	c #A8A8A8",
"~.	c #B6B6B6",
"{.	c #CCCCCC",
"].	c #CBCBCB",
"^.	c #898989",
"/.	c #919191",
"(.	c #767676",
"_.	c #434343",
":.	c #444444",
"<.	c #A2A2A2",
"[.	c #8C8C8C",
"}.	c #4D4D4D",
"|.	c #4E4E4E",
"1.	c #292929",
"2.	c #282828",
"3.	c #AFAFAF",
"4.	c #575757",
"5.	c #585858",
"6.	c #464646",
"7.	c #4A4A4A",
"8.	c #4B4B4B",
"                                                                                                ",
"  . . . . . . . . + + + @ @ @ # # # $ $ $ % % % % % & . . . . . . . . . * * * % % & = = = - -   ",
"  . . . . . . . . + + + @ @ @ # # # ; ; ; & & & % % & . . . . . . . . . * * * % % % = = = - -   ",
"  . . . . . > , > # # # ' ) ) % % & . . . . . . & % % # # # ! ! ~ # # # { { { ] ^ ] / / ( _ _   ",
"  . . . . . , , , # # # ) : : % % & . . . . . . & % % # # # ! ! ! # # # { { { ] ^ ^ / / / _ _   ",
"  . . . . . > , , # # # ) : ) % & & . . . . . . % % % # # # ! ! ! # # # { { { ] ^ ] / / / _ _   ",
"  < < # # # # # # [ [ [ & & & . . . . . . } } } | 1 1 2 2 3 4 4 4 # # # 5 5 5 % % % % % % } }   ",
"  6 6 # # # # # # [ 7 7 & & 6 . . . . . . } } } | 1 1 8 8 2 4 4 4 # # # 5 9 9 % % % % % % } }   ",
"  6 6 # # # # # # [ 7 [ & 6 6 . . . . . . 0 } } 1 1 1 8 8 2 4 4 4 # # # 5 9 9 % % % & & & } }   ",
"  a a b c c d d d % % % e f f > , > @ @ @ g g g g g g & & & 5 5 9 h i h % % % j j j k k f 6 &   ",
"  a a c c c | | | % % & f f f , , , @ @ @ g g g g g g & & & 9 9 9 i i i % % % j j j k k k 6 &   ",
"  a a b b b | | d % % & f f f > , , @ @ @ g g g g g g & & & 5 5 5 h h h & % % j j j k k k 6 &   ",
"  l l . . m % % % % % & m . . g g g g g g g g g g g g n n n o p p q q q r s s t t t u u u % %   ",
"  l l . . . & % % % % & . . . g g g g g g g g g g g g n n n p p p q q q s s s t t t u u u % %   ",
"  l l . . . & % % % % & . . . g g g g g g g g g g g g n n n p p p q q q v s s t t t u u w % %   ",
"  x x y y } z t t % % % g g g g g g g g g g g g g g g A A A B C C ! ! ! D D E & & & F [ [ ] ^   ",
"  x x y y y t t t % % % g g g g g g g g g g g g g g g A A A C C C ! ! ! D D D & & & 7 7 7 ^ ^   ",
"  x x y y y t t t % % % g g g g g g g g g g g g g g g A A A B C C ! ! ! D D D & & & [ [ [ ^ ^   ",
"  # # # # # # # # % % % , , , g g g g g g g g g g g g G G G H H H # # # x x x # # # z z z I I   ",
"  # # # # # # # # % % % , , , g g g g g g g g g g g g G G G H H H # # # x x x # # # z z z I I   ",
"  # # # # # # # # & % % , , , g g g g g g g g g g g g G G G H H H # # # x x x # # # z z z J J   ",
"  # # # # # 7 7 7 J K L u u w . . m % % & g g g g g g M M M N N O ! ! ! # # # 5 5 5 E E P Q R   ",
"  # # # # # 7 S S K K L u u u . . . & % % g g g g g g M M M 5 5 N ! ! ! # # # 5 9 9 E E P R R   ",
"  # # # # # 7 S S L L L w u u . . . & % % g g g g g g M M M 5 5 N ! ! ! # # # 9 9 9 P P P R R   ",
"  t t T U U % % % V e e . . . z # # W W W . . . X X X z z z $ $ $ Y Y c Z Z Z ` `  ...A A . .   ",
"  t t U 3 3 % % & e e e . . . # # # W W W . . . X X X z z z $ $ $ Y Y Y Z Z Z ` `  .A A A . .   ",
"  t t U 3 U % & & e e e . . . # # # W W +.. . . X X X z z z $ $ $ Y Y Y Z Z Z  . .@...A A . .   ",
"  4 4 % % % . . . = = = ! ! ! ^ #.] . . . , $., X X X { { { %.%.%.% % % ; ; &.Q R Q z # # # #   ",
"  4 4 % % & . . . = = = ! ! ! ^ #.^ . . . $.$.$.X X X { { { %.%.%.% % % ; ; &.R R R # # # # #   ",
"  4 4 & % & . . . = = = ~ ! ! ^ #.^ . . . , $., X X X { { { %.%.%.% % % ; ; &.Q R R # # # # #   ",
"  % & + + + B C C z # # *.# # 1 1 | X X X X X X X X X X X X =.=.=.5 9 9 $ $ $ % & & -.-.-.0 }   ",
"  % % + + + C C C # # # # # # | 1 | X X X X X X X X X X X X =.=.=.5 9 9 $ $ $ % % % -.-.-.} }   ",
"  % % + + + C C C # # # # # # 1 1 | X X X X X X X X X X X X =.=.=.5 9 9 $ $ $ % % % -.-.-.} }   ",
"  % % % % & ;.;.;.t t t X X X X X X X X X X X X X X X X X X X X X X X X >.>.>.& % % % % % 5 5   ",
"  % % % % % ;.;.;.t t t X X X X X X X X X X X X X X X X X X X X X X X X >.>.>.& % % % % % 9 9   ",
"  & & & & & ;.;.;.t t t X X X X X X X X X X X X X X X X X X X X X X X X >.>.>.& % % % % % 9 9   ",
"  . . . . m N 5 5 9 9 9 X X X X X X X X X X X X X X X X X X X X X X X X # # # # # # % % % % %   ",
"  . . . . . 5 9 9 9 9 9 X X X X X X X X X X X X X X X X X X X X X X X X # # # # # # % % % % %   ",
"  . . . . . N 9 9 5 5 5 X X X X X X X X X X X X X X X X X X X X X X X X # # # # # # % % % % %   ",
"  f f ,.'.,.a ).).f k k !.!.!.~.~.k % % % 5 5 5 D D E {.].].n n n # # # %.%.%.# # *.! ^.^.O N   ",
"  f f '.'.'.).).).k k k !.!.!.~.~.~.& % % 9 9 9 D D E ].].].n n n # # # %.%.%.# # # ^.^.^.O N   ",
"  f f '.'.'.).).).k k k !.!.!.~.~.~.& % % 9 9 9 E D E {.].].n n n # # # /.%.%.# # # ^.^.^.N N   ",
"  (.(.^.^.^._.:._.<.<.<.} } 0 ,.C C z z z % % % &.% % & & & # # # { { { [.4 4 @ @ @ h h h 9 9   ",
"  (.(.^.^.^.:.:._.<.<.<.} } } C C C z z z % % % % % % % % % # # # { { { 4 4 4 @ @ @ h i i 9 9   ",
"  (.(.^.^.^._.:._.<.<.<.} } } C C C z z z % % % & & & % % % # # # { { { 4 4 4 @ @ @ h i i 9 9   ",
"  B B (.(.(.x x x }.}.|.1.1.1.2.2.2.9 9 5 % % & 3.3.3.* * * 4.4.5.&.; ; 6.b b 7.8.8.i i i E E   ",
"  B B (.(.(.x x x |.|.|.' ' ' 1.1.1.9 9 9 % % & 3.3.3.* * * 4.4.4.; ; ; b b b 8.8.8.i i i E E   ",
"                                                                                                "};
