/* XPM */
static char * LeftClick_xpm[] = {
"78 84 98 2",
"  	c #020101",
". 	c #545454",
"+ 	c #5A5A5A",
"@ 	c #4A494A",
"# 	c #585659",
"$ 	c #51514F",
"% 	c #090408",
"& 	c #616161",
"* 	c #6E6E6E",
"= 	c #717171",
"- 	c #8D8D8D",
"; 	c #737373",
"> 	c #AAAAAA",
", 	c #7A7A7A",
"' 	c #6B6B6B",
") 	c #11110E",
"! 	c #808080",
"~ 	c #090402",
"{ 	c #848484",
"] 	c #110F0D",
"^ 	c #0B0B0A",
"/ 	c #1E1A16",
"( 	c #221C1C",
"_ 	c #33322E",
": 	c #363232",
"< 	c #25221D",
"[ 	c #0B0903",
"} 	c #161515",
"| 	c #444545",
"1 	c #1B1215",
"2 	c #3C3C3C",
"3 	c #EE0A0A",
"4 	c #EC0C0C",
"5 	c #EA0D0D",
"6 	c #E61010",
"7 	c #E11212",
"8 	c #DE1414",
"9 	c #DA1717",
"0 	c #EC0B0B",
"a 	c #E60F0F",
"b 	c #F50606",
"c 	c #F30707",
"d 	c #F20808",
"e 	c #D81818",
"f 	c #D61919",
"g 	c #685C5C",
"h 	c #645F5C",
"i 	c #F80404",
"j 	c #514D4E",
"k 	c #D31B1B",
"l 	c #D11C1C",
"m 	c #514F52",
"n 	c #CF1D1D",
"o 	c #494749",
"p 	c #474648",
"q 	c #494646",
"r 	c #CA2121",
"s 	c #190E08",
"t 	c #120B03",
"u 	c #0E0E10",
"v 	c #464847",
"w 	c #151000",
"x 	c #180D1B",
"y 	c #494946",
"z 	c #120F11",
"A 	c #220002",
"B 	c #40423D",
"C 	c #0E100E",
"D 	c #2F0103",
"E 	c #0F1111",
"F 	c #E41010",
"G 	c #CC1F1F",
"H 	c #DF1414",
"I 	c #C72222",
"J 	c #1E0000",
"K 	c #252428",
"L 	c #2E2E30",
"M 	c #2F2D2E",
"N 	c #312D2A",
"O 	c #170000",
"P 	c #000800",
"Q 	c #241F22",
"R 	c #32191D",
"S 	c #232123",
"T 	c #2B0E13",
"U 	c #14181B",
"V 	c #474948",
"W 	c #1E1C1C",
"X 	c #1F2120",
"Y 	c #1E1C21",
"Z 	c #1E201F",
"` 	c #949494",
" .	c #999999",
"..	c #858585",
"+.	c #373739",
"@.	c #282425",
"#.	c #413F40",
"$.	c #A9A9A9",
"                                                                                                                                                            ",
"                                                                                                                                                            ",
"                                                                                                                                                            ",
"      . . . . . . . . + + + + . . . . . . . . . . . . @ @ @ @ + . . # . . . . @ @ @ @ . . . . . . . . . . . . + + + + . . . . . . . . . . . . . . . .       ",
"      . . . . . . . . + + + + . . . # . . . . . . . . @ @ @ @ + + + + . . . . @ @ @ . . . . . . . . . . . . . + + + + . . . . . . . . . . . . . . . .       ",
"      . . . . . . . . + + + + . . . # . . . . . . . . @ @ @ @ + + + + . . . . @ @ @ . . . . . . . . . . . . . + + + + . . . . . . . . . . . . . . . .       ",
"      . . . . . . . . + + + + . . . . . . . . . . . . @ . . $ + + + + . . . . @ @ $ $ . . . . . . . . . . . . + + + + . . . . . . . . . . . . . . . .       ",
"  % % . . . . + + & & * * * * * * * * * * * * * * * = = = = = = = = = = = * * * * = = = = = = = = * * * * * * * * = = = = * * * * * * * * - ; > > , '     ) ",
"  % % . . . . + + & & * * * * * * * * * * * * * * = * * * * * * * * * * * * * * * * * = = = = = = * * * * * * * * = = = = * * * * * * * * - ; > > , !     ) ",
"  % % . . . . + + & & * * * * * * * * * * * * * * = * * * * * * * * * * * * * * * * * = = = = = = * * * * * * * * = = = = * * * * * * * * - ; > > , !     ) ",
"  % % . . . . + + + + * * * * * * * * * * * * * * * * * * * * * * * * * * ~ ~ ~ ~ ~ ~ ~ ~ ~ ~ ~ ~ ~ ~ ~ * * * * * * * * * * * * * * * * * ; { > > , !     ] ",
"  % ^ . . . . . + + + * * * * * * * * * * * * * * * * * * * * * * * * * * /     ~ ~         ~ ~ ~ ~ ~ ~ * * * * * * * * * * * * * * * * * ; { > > , !     ) ",
"  % % . . . . . + + + * * = * * * * * * * * * * * * * * * * = = * * * * * (   _ : : : : : : : : : : : : * * * * * * * * * * * * * * * * * ; { > > ' !     ^ ",
"  % % . . . . # + + + * * * * * * * * * * * * * * * * * * * * = * * * * * < ~ . . . . . . . . . . . . . ~ ~ ~ ~ ~ * * * * * * * * * * * * ; { > > ' {     ^ ",
"  % ^ . . . . . . + & = = = = * * * * * * * * * * * * * * * * * * * * * * ( [ . . . . . . . . . . . . . ~       ~ * * * * = = = = * * * * ; { > > ' {     ^ ",
"  % ^ . . . . . . + + * * = * * * * * * * * * * [ ~ ~ ~ ~ ~ ~ ~ ~ ~ ~ ~ ~ ] } . . . . . . . . . . . . . . . |   ~ ~ ~ ~ 1 = = = = * * * * ; { > > ' {     ^ ",
"  % ^ . . . . . . + + * * * * * * * * * * * * *     ~ ~ ~ ~ ~ ~ ~ ~ ~ ~ ~ ) } . . . . . . . . . . . . . . . 2       ~ ~ ( = = * = * * * * ; { > > ' {     ^ ",
"  ^ ^ . . . . . . + + * * * * * * * * ~ / / ( (     3 3 4 5 5 6 6 7 7 8 9 ) } . . . . . . . . . . . . . . . . . . . . ~ ( = = * = * * * * ; { > > ' !     ^ ",
"  % ^ . . . . . . + + = * * * * * & & ~ ~ ~   ~     3 0 5 a a 6 7 7 8 8 9 ) } . . . . . . . . . . . . . . . . . . . . ~ ( * * * * * * * * ; { > > ! {     ^ ",
"  % ^ . . . . . . + & = * * * ~ ~ ~ ~ ~   b c d 3 3 0 5 a a 7 7 7 8 8 9 e ) } . . . . . . . . . . . . . . . . . . . .   ~ ~ ~ * * * * * * { { > > ! {     ^ ",
"  ^ ^ . . . . . . + & = * * * / ~         c d d 3 4 5 5 a 7 7 7 8 8 9 e f ) } . . . . . . . . . . . . . . . . . . . .   ~ ~ ~ * * * * * * { { > > ! ;     ^ ",
"  ^ ^ . . . . . . & & = * g h ^   i b b c d d 3 4 5 5 a 6 7 7 8 8 9 e f f ) } . . . . . . . . . . . . . . . . . . . . @ j ~ ~ * * * * * * { { > > ! ;     ^ ",
"  % ^ . . . . . . + & * *         b b c d d 3 4 5 5 a 6 7 7 8 8 9 e f f k ) } . . . . . . . . . . . . . . . . . . . . . .   % * * * * * * { { > > ! {     ^ ",
"  % ^ . . . . . . + & * * ~       b c d d 3 3 5 5 a 6 7 7 8 8 9 e f f k l ) } . . . . . . . . . . . . . . . . . . . . m . ~ % * * * * * * { { > > ' {     ^ ",
"  ^ ^ . . . . . . + & * * ~   b b b d d 3 3 5 5 a 6 7 7 8 8 9 e f f k l n ) } . . . . . . . . . . . . . . . . . . . . o @   % * * * * * * { ! > > ' {     ^ ",
"  ^ ^ . . . . . . + & * * ~   b b d d 3 3 5 5 a 6 7 7 8 8 9 e f f k l n n ) } . . . . . . . . . . . . . . . . . . j . o @   % * * * * * * ; { > > ' !     ^ ",
"  ^ ^ . . . . . . + + * * ~   b d d 3 3 5 5 a 6 7 7 8 8 9 e f f k l n n n ) ) p q o o . . . . . . . . . . . . . . o p o @   % * * * * * * ; { > > , !     ^ ",
"  ^ ^ . . . . . . + + * * ~   d d 3 3 5 5 a 6 7 7 8 8 9 e f f k l n n n r ) } @ o o @ . . . . . . . . . . . . . . o o o @   % * * * * * * ; { > > ' !     ^ ",
"  ^ ^ . . . . . . + ~ s t ~   d 3 3 5 5 a 6 7 7 8 8 9 9 f f k l n n n } u ^ } u u o o $ q q . . . . . . . . @ o v o o o @   % w x * * = * ; { > > ' !     ^ ",
"  ^ ^ . . . . . . + ~         3 3 5 5 a 6 7 7 8 8 9 9 f f k l n n n r 1 1 1 1 } 1 y y y y o . . . . . . . . @ o o o o o @   ~ ~ ~ * * * * ; { > > , {     ) ",
"  ^ ^ . . . . . . + ~ ~ } d 3 3 5 5 a 6 7 7 8 8 9 9 f f k l l n n z A . . . . . . ) ) B y o v v v v v v v o o o o o o o q y y ( ~ = = = = ; { > > ' !     ^ ",
"  ^ ^ . . . . . . + ~ ~ ^ 3 3 5 5 a 6 7 7 8 8 9 9 f f k l l n n r C D . . . . . . E } | o o o o o o o o o o o o o o o o o y q / ~ = = = = ; { > > ' !     ^ ",
"  ^ ^ . . . . . . + ~   C 3 5 5 a F 7 7 8 8 9 9 f f k l l n G r r ^ D . . . . @ @ E } | o o o o o o o o o o o o o o o o o y q / ~ = = = = ; { > > ' {     ^ ",
"  ^ ^ . . . . . . + ~   C 5 5 a a 7 7 H 8 9 9 f f k l n n G r r I ^ D . . . . @ o u } p o o o o o o o o o o o o o o o o @ o q / ~ = = = = ; { > > ' ;     ^ ",
"  ^ ^ . . . . . . + ~ ~ % 5 a 6 7 7 H 8 9 9 f f k l l n n r r r I % J o o o o o o ^ u K L L L L L L L L L L L L L L L L L M N / ~ * * * = ; { > > ! {     ^ ",
"  ^ ^ . . . . . . + [ ~ ~ ~ ~ ~ ~ ~ ~ ~ ~ ~ ~ ~ ~ ~ ~ ~ ~ ~ ~ ~ ~   J o o o o o o                                               ~ * * * * { { > > ! {     ^ ",
"  ^ ^ . . . . . . + [ ~ ~ ~ ~ ~ ~ ~ ~ ~ ~ ~ ~ ~ ~ ~ ~ ~ ~ ~ ~ ~ ~   J o o o o o o       ~ ~ ~ ~ ~ ~ ~ ~ ~ ~ ~ ~ ~ ~ ~ ~ ~ ~ ~ ~ ~ * * * * { { > > ! {     ^ ",
"  ^ ^ . . . . . . + ~   K . . . . . . . . . . . . . . . . . o o | ~ O o o o o o o   P | @ @ . . . . . . . . . . . . . . . . . / ~ * * * * { ! > > ! {     ^ ",
"  ^ ^ . . . . . . +     K . . . . . . . . . . . . . . . . . o o | Q R o o o o o o z Q | @ @ . . . . . . . . . . . . . . . . . / ~ * * * * { ! > > ! ;     ^ ",
"  ^ ^ . . . . . . +     K . . . . . . . . . . . . . . . . . o o | S T P ~ ~ ~ ~   U S | @ @ . . . . . . . . . . . . . . . . . / ~ * * * * { { > > { ;     ^ ",
"  ^ ^ . . . . . . & ~   K . . . . . . . . . . . . . . . . . o o | : _ ~ ~ ~ ~ [ ~ _ : v @ @ . . . . . . . . . . . . . . . . . / ~ * * * * { ! > > { ;     ^ ",
"  ^ ^ . . . . . . + ~   K . . . . . . . . . . . . . . . . . o o | o @ Q Q Q Q Q Q V @ @ @ @ . . . . . . . . . . . . . . . . . / ~ * * * * { ! > > { ;     ^ ",
"  ^ ^ . . . . . . + ~   K . . . . . . . . . . . . . . . . . o o o o o W W X X Y W o o . p @ . . . . . . . . . . . . . . . . . / ~ * * * * { ! > > { -     ^ ",
"  ^ ^ + + + . . . + ~   K . . . . . . . . . . . . . . . . . . . . o o @ @ Z Z o o o @ . . . . . . . . . . . . . . . . . . . . W ~ * * = = { ! > > ; -     ^ ",
"  ^ ^ + + . . . . + ~   K . . . . . . . . . . . . . . . . . . . . o p p @ Z X V V o o @ . . . . . . . . . . . . . . . . . . . W ~ * * = = { ! > > ; ;     ^ ",
"  % ^ # + + . . . + ~   Y @ p . . . . . . . . . . . . . . . . . . . . p @ Z X o o . . . . . . . . . . . . . . . . . . . # @ @ ( ~ * * = = { ! > > ; -     ^ ",
"  % % # + + + # # & ~   Y @ p . . . . . . . . . . . . . . . . . . . . o @ Z X @ o . . . . . . . . . . . . . . . . . . # # p q / ~ * * = = { ! > > - -     ^ ",
"  % % . . . . . . + ~   Y @ p . . . . . . . . . . . . . . . . . . . . o @ Z X @ o . . . . . . . . . . . . . . . . . . # . p @ / ~ = * = = { ! > > - `     ^ ",
"  % % . . . . . . +     Y @ p . . . . . . . . . . . . . . . . . . . . o @ W X o o . . . . . . . . . . . . . . . . . . # . p @ / ~ = = = = ! ! > > ` `     ^ ",
"  % % . . . . . . + ~   Y @ p . . . . . . . . . . . . . . . . . . @ @ o @ W X @ @ $ $ . . . . . . . . . . . . . . . . # . p @ / ~ = = = = ! ! > > ` `     [ ",
"  % % . . . . . . +     Y @ p . . . . . . . . . . . . . . . . . . p p o @ Z X @ @ v v . . . . . . . . . . . . . . . . # . p @ / ~ = = = = ! ! > > ` `     % ",
"  % % # # # # . . + ~   Y @ o . # . . . . . . . . . . . . . . . . p p o @ Z X @ @ V v . . . . . . . . . . . . . . . . . . @ @ / ~ = = * = ' ' > > ` `     % ",
"  % % . # # # . . + ~   Y @ p p p . . . . . . . . . . . . . . . . o o o @ Z X @ @ o o . . . . . . . . . . . . . . . . @ @ p @ ( ~ = = * * ' ' > > `  .    % ",
"  % % . # # # . . + ~   Y @ p p p . # . . . . . . . . . . . . . . o p o @ Z X @ @ o @ . . . . . . . . . . . . . . . . p p p @ W ~ = = * * ' ' > > `  .    % ",
"  % % . . # . . . + ~   Y @ p p p o @ . . . . . . . . . . . . . . o p o @ Z X @ @ o o . . . . . . . . . . . . . . . . p p p @ W ~ = = = = ' , > > `  .    % ",
"  % % . . . . . . + ~   Y @ p @ o o @ . . . . . . . . . . . . . . o o o @ Z X @ @ o o . . . . . . . . . . . . . . . . p p p @ / ~ = = * * , , ....`  .    % ",
"  % % . . . . . . +     Y @ p @ o o o . . . . . . . . . . . . . . p p o @ Z X @ @ V o o o o o o . . . . . . . o o o o o p p p / ~ = = * * , , .... . .    % ",
"      # + + + . . # ~   Q @ p o o o o . . . . . . . . . . . . . . p p o @ Z X @ @ V o o @ @ o v . . . . . . $ o o o o o p p p / ~ * * * * = = > > ....      ",
"      # + + + . . + ~         o @ @ o @ @ @ @ @ @ @ @ @ . . @ @ o o o o @ Z X @ @ o o o o o o o o o o o o o o o o o o p p   ~ ~ ~ * * * * = = > > ....      ",
"      # + + + . . + ~         p @ @ @ @ @ @ @ @ @ @ @ @ . . @ o o o o o @ Z X @ @ o o o o o o o o o o o o o o o o o o p p     ~ ~ * * * * = = > > ....      ",
"      . . . . . . . # * * ~   p @ @ @ o o o o o o o o o o o o o o o o o @ Z X @ @ o o o o o o o o o o o o o o o o o o o o   ~ = = = = * * = = > > ....      ",
"      . . . . . . . . * * ~ ~ o @ @ @ o o o o o o o o o o o o o o o o o @ Z X @ @ o o o o o o o o o o o o o o o o o o o o   ~ = = = = * * = = > > > >       ",
"      . . . . . . . . * * ~ ~ p @ @ @ o o o o o o o o o o o o o o o o o o +.+.@ @ o o o o o o o o o o o o o o o o o o o o   ~ = = = = * * = = > > > >       ",
"      . . . . . . . . * *     p @ @ @ o o o o o o o o o o o o o o o o o V o o o o o o o o o o o o o o o o o o o o o o o o   ~ = = = = * * = = > > > >       ",
"      . . . . . . . . * *     . @ o @ @ o o o o o o o o o o o o o o o o o o o o o o o o o o o o o o o o o o o o o o o @ @     * * * = * * = * > > > >       ",
"      . . . . . . . . * * ~       @ @ @ o o o o o o o o o o o o o o o o o o o o o o o o o o o o o o o o o o o o o o p       % * * = = * * * * > > > >       ",
"      . . . . . . . . * * / /     o o o o o o o o o o o o o o o o o o o o o o o o o o o o o o o o o o o o o o o o o v     S @.* * * = * * * * > > > >       ",
"      . . . . . . . . * * * * W   ~ ~ ~ ~ #.p o o o o o o o o o o o o o o o o o o o o o o o o o o o o o o o 2 % % % %   / = = * * = = * * * * > > > >       ",
"      . . . . . . . + * * * * <   ~ ~     2 p p o o o o o o o o o o o o o o o o o o o o o o o o o o o o o o +.      ~ ~ / * * * * * * * * * * > > > >       ",
"      . . . . . . . + * * * * = = = = ~             o o o o o o o o o o o o o o o o o o o o o o o o               * * * * * * * * * * * * * * > > > >       ",
"      . . . . . . . . * * * * = = = = ~ % % % ~     o o o o o o o o o o o o o o o o o o o o o o o o         ~ ~ ~ * * * * * * * * * * * * * * > > > >       ",
"      . . . . . . . . * * * * = = = = * * * * *     } } } } } } } } } } } } } } } } } } } } } } } }     * * * * * * * * * * * * * * * * * * * > > > >       ",
"      # . . . . . . . = = * * , , , , * * * * *                                                         * * * * * * * * * * * = = = = * * * * > > > >       ",
"      # . . . . . . . = = * * , = = , * * * * * * * * * * * * * * * * = = = = * * * * * * * * * * * * * * * * * * * * * * * * = = = = * * * * > > > >       ",
"      # # . . . . . . = = = * , = , , * * * * * * * * * * * * * * * * = = = = * * * * * * * * * * * * * * * * * * * * * * * * = = = = * * * * > > > >       ",
"      + # . . . . . . = = = * , , = , * * * * * * * * * * * * * * * * = = = = * * * * * * * * * * * * * * * * * * * * * * * * = = = = * * * * > > > >       ",
"      + + + + . . . . = = = = = = = = * * * * * * * * * * * * * * * * * * * * * * * * = = = = * * * * * * = = * * * * * * * * * * * * * * * * > > > >       ",
"      * * * * = = = = > > > > > > > > > > > > > > > > > > > > > > > > > > > > > > > > > > > > > > > > ........> > > > $.$.$.$.> > > > > > > > > > > >       ",
"      * * * * = = = = > > > > > > > > > > > > > > > > > > > > > > > > > > > > > > > > > > > > > > > > ........> > > > > > > $.> > > > > > > > > > > >       ",
"      * * * * = = = = > > > > > > > > > > > > > > > > > > > > > > > > > > > > > > > > > > > > > > > > ........> > > > > > > $.> > > > > > > > > > > >       ",
"      * * * * = = = = > > $.$.> > > > > > > > > > > > > > > > > > > > > > > > > > > > > > > > > > > > ........> > > > > > > > > > > > > > > > > > > >       ",
"                                                                                                                                                            ",
"                                                                                                                                                            ",
"                                                                                                                                                            "};
