/* XPM */
static char * RightClick_xpm[] = {
"78 84 97 2",
"  	c #020101",
". 	c #545454",
"+ 	c #5B5B5B",
"@ 	c #4A494A",
"# 	c #585659",
"$ 	c #51514F",
"% 	c #090408",
"& 	c #616161",
"* 	c #6E6E6E",
"= 	c #717171",
"- 	c #8D8D8D",
"; 	c #737373",
"> 	c #AAAAAA",
", 	c #7A7A7A",
"' 	c #6B6B6B",
") 	c #11110E",
"! 	c #808080",
"~ 	c #090402",
"{ 	c #848484",
"] 	c #110F0D",
"^ 	c #0B0B0A",
"/ 	c #1E1A16",
"( 	c #363232",
"_ 	c #33322E",
": 	c #221C1C",
"< 	c #25221D",
"[ 	c #0B0903",
"} 	c #1B1215",
"| 	c #444545",
"1 	c #161515",
"2 	c #3C3C3C",
"3 	c #DA1717",
"4 	c #DD1515",
"5 	c #E01313",
"6 	c #E41111",
"7 	c #E90D0D",
"8 	c #EC0C0C",
"9 	c #EE0B0B",
"0 	c #E70F0F",
"a 	c #D81818",
"b 	c #F00909",
"c 	c #F30707",
"d 	c #F40707",
"e 	c #D41A1A",
"f 	c #514D4E",
"g 	c #F80404",
"h 	c #645F5C",
"i 	c #685C5C",
"j 	c #575558",
"k 	c #D31B1B",
"l 	c #D11C1C",
"m 	c #494946",
"n 	c #CC1F1F",
"o 	c #514F52",
"p 	c #494749",
"q 	c #494646",
"r 	c #CA2121",
"s 	c #180D1B",
"t 	c #151000",
"u 	c #464847",
"v 	c #0E0E10",
"w 	c #120B03",
"x 	c #190E08",
"y 	c #40423D",
"z 	c #220002",
"A 	c #120F11",
"B 	c #0F1111",
"C 	c #2F0103",
"D 	c #0E100E",
"E 	c #8B8B8B",
"F 	c #474648",
"G 	c #E51010",
"H 	c #312D2A",
"I 	c #2E2E30",
"J 	c #252428",
"K 	c #1E0000",
"L 	c #C72222",
"M 	c #170000",
"N 	c #241F22",
"O 	c #32191D",
"P 	c #232123",
"Q 	c #14181B",
"R 	c #000800",
"S 	c #2B0E13",
"T 	c #474948",
"U 	c #1E1C1C",
"V 	c #1E1C21",
"W 	c #1F2120",
"X 	c #1E201F",
"Y 	c #949494",
"Z 	c #7C7C7C",
"` 	c #999999",
" .	c #858585",
"..	c #373739",
"+.	c #282425",
"@.	c #413F40",
"#.	c #A9A9A9",
"                                                                                                                                                            ",
"                                                                                                                                                            ",
"                                                                                                                                                            ",
"      . . . . . . . . + + + + . . . . . . . . . . . . @ @ @ @ + . . . . . . . @ @ @ @ . . . . . . . . . . . . + + + + . . . . . . . . . . . . . . . .       ",
"      . . . . . . . . + + + + . . . # . . . . . . . . @ @ @ @ + + + + . . . . @ @ @ . . . . . . . . . . . . . + + + + . . . . . . . . . . . . . . . .       ",
"      . . . . . . . . + + + + . . . # . . . . . . . . @ @ @ @ + + + + . . . . @ @ @ . . . . . . . . . . . . . + + + + . . . . . . . . . . . . . . . .       ",
"      . . . . . . . . + + + + . . . . . . . . . . . . @ . . $ + + + + . . . . @ @ $ $ . . . . . . . . . . . . + + + + . . . . . . . . . . . . . . . .       ",
"  % % . . . . + + & & * * * * * * * * * * * * * * * = = = = = = = = = * * * * * * = = = = = = = = * * * * * * * * = = = = * * * * * * * * - ; > > , '     ) ",
"  % % . . . . + + & & * * * * * * * * * * * * * * = * * * * * * * * * * * * * * * = = = = = = = = * * * * * * * * = = = = * * * * * * * * - ; > > , !     ) ",
"  % % . . . . + + & & * * * * * * * * * * * * * * = * * * * * * * * * * * * * * * = = = = = = = = * * * * * * * * = = = = * * * * * * * * - ; > > , !     ) ",
"  % % . . . . + + + + * * * * * * * * * * * * * *           ~ ~         ~ ~ ~ ~ * * * * = = = = = * * * * * * * * * * * * * * * * * * * * ; { > > , !     ] ",
"  % ^ . . . . . + + + * * * * * * * * * * * * * *                             / * * * = = = = = = * * * * * * * * * * * * * * * * * * * * ; { > > , !     ) ",
"  % % . . . . . + + + * * = * * * * * * * * * * * ( ( ( ( ( ( ( ( ( ( ( ( _   : * * * * * = = = = * * * * * * * * * * * * * * * * * * * * ; { > > ' !     ^ ",
"  % % . . . . # + + + * * * * * * * * *   ~ ~     . . . . . . . . . . . . . ~ < * * * * * = = = = * * * * * * * * * * * * * * * * * * * * ; { > > ' {     ^ ",
"  % ^ . . . . . . + & * = = = * * * * *         ~ . . . . . . . . . . . . . [ : = * * * * = = = = * * * * * * * * * * * * = = = = * * * * ; { > > ' {     ^ ",
"  % ^ . . . . . . + + * * = = * }           | . . . . . . . . . . . . . . . 1 ]         ~ ~ ~         ~ [ * * * * * * * * = = = = * * * * ; { > > ' {     ^ ",
"  % ^ . . . . . . + + * * * * * :           2 . . . . . . . . . . . . . . . 1 )                           * * * * * * * * = = = = * * * * ; { > > ' {     ^ ",
"  ^ ^ . . . . . . + + * * * * * :   . . . . . . . . . . . . . . . . . . . . 1 ) 3 4 5 5 6 6 7 7 8 9 9     : : / /   * * * = = = = * * * * ; { > > ' !     ^ ",
"  % ^ . . . . . . + + = * * * * :   . . . . . . . . . . . . . . . . . . . . 1 ) 3 4 4 5 5 6 0 7 7 8 9             ~ * * * * * * * * * * * ; { > > ! {     ^ ",
"  % ^ . . . . . . + & = * *         . . . . . . . . . . . . . . . . . . . . 1 ) a 3 4 4 5 5 6 0 7 7 8 9 b b c d             * * * * * * * { { > > ! {     ^ ",
"  ^ ^ . . . . . . + & = * * ~       . . . . . . . . . . . . . . . . . . . . 1 ) e a 3 4 4 5 5 6 0 7 7 8 9 b b c           / * * * * * * * { { > > ! ;     ^ ",
"  ^ ^ . . . . . . & & = * * ~   f @ . . . . . . . . . . . . . . . . . . . . 1 ) e e a 3 4 4 5 5 6 0 7 7 8 9 b b d d g g   ^ h i * * * * * { { > > ! ;     ^ ",
"  % ^ . . . . . . + & * * * %   . j . . . . . . . . . . . . . . . . . . . . 1 ) k e e a 3 4 4 5 5 6 0 7 7 8 9 b b c d g         * * * * * { { > > ! {     ^ ",
"  % ^ . . . . . . + & * * * %   . . . . . . . . . . . . . . . . . . . . . . 1 ) l k e e a 3 4 4 5 5 6 0 7 7 9 9 b b d d       ~ * * * * * { { > > ' {     ^ ",
"  ^ ^ . . . . . . + & * * * %   @ m . . . . . . . . . . . . . . . . . . . . 1 ) n l k e e a 3 4 4 5 5 6 0 7 7 9 9 b b d d d   ~ * * * * * { ! > > ' {     ^ ",
"  ^ ^ . . . . . . + & * * = %   @ m . f . . . . . . . . . . . . . . . . o . 1 ] n n l k e e a 3 4 4 5 5 6 0 7 7 9 9 b b d d   ~ * * * * * ; { > > ' !     ^ ",
"  ^ ^ . . . . . . + + * * * %   @ m p m . . . . . . . . . . . . . . m m q p ) ] n n n l k e e a 3 4 4 5 5 6 0 7 7 9 9 b b d   ~ * * * * * ; { > > , !     ^ ",
"  ^ ^ . . . . . . + + * * * %   @ m m m . . . . . . . . . . . . . . @ m m @ 1 ] r n n n l k e e a 3 4 4 5 5 6 0 7 8 9 9 b b   ~ * * * * * ; { > > ' !     ^ ",
"  ^ ^ . . . . . . h & * s t %   @ m m m u m o . . . . . . . . q q $ m m v v 1 ^ v 1 n n n l k e e 3 3 4 4 5 5 6 0 7 7 9 9 b   ~ w x ~ = * ; { > > ' !     ^ ",
"  ^ ^ . . . . . . + & *   ~ ~   @ m m m m m o . . . . . . . . m m m m m } 1 } } } } r n n n l k e e 3 4 4 4 5 5 6 0 7 7 9 9           = * ; { > > , {     ) ",
"  ^ ^ . . . . . . + + * ~ : m m p m m m m m m m u u u u u u u m m y ) ) . . . . . . z A n n l l k e a 3 4 4 4 5 5 6 0 7 7 9 b b 1   ~ = = ; { > > ' !     ^ ",
"  ^ ^ . . . . . . + + *   / q m m m m m m m m m m m m m m m m m m | 1 B . . . . . . C D r n n l l k e a 3 4 4 5 5 5 6 0 7 7 9 b ^     = = E { > > ' !     ^ ",
"  ^ ^ . . . . . . + + *   / q m m m m m m m m m m m m m m m m m m | 1 B @ @ . . . . C ^ r r n n l l e e a 3 3 4 4 5 6 6 0 7 8 9 D   ~ = = ; { > > ' {     ^ ",
"  ^ ^ . . . . . . + + *   / q m m m m m @ @ @ @ @ @ @ @ m m m m m F 1 v m @ . . . . C ] r r r n n l l e e a 3 3 4 5 5 6 G 0 7 8 D     = = ; { > > ' ;     ^ ",
"  ^ ^ . . . . . . + + *   : H H I I I I I I I I I I I I I I I I I J v ^ @ @ @ @ @ @ K % L r r r n n l l e e e 3 3 4 5 5 5 G 0 7 %     * = ; { > > ! {     ^ ",
"  ^ ^ . . . . . . + + *                                                 @ @ @ @ @ @ K                                             ~ [ * * { { > > ! {     ^ ",
"  ^ ^ . . . . . . + + *   ~ ~ ~ ~ ~ ~ ~ ~ ~ ~ ~ ~ ~ ~ ~ ~ ~ ~ ~ ~       m m @ @ m m K   ~                           ~ ~ ~       ~ ~ [ * * { { > > ! {     ^ ",
"  ^ ^ . . . . . . + + *   / . . . . . . . . . . . . . . . . . @ @ |     m m @ @ @ m M   | m m . . . . . . . . . . . . . . . . . J   ~ * * { ! > > ! {     ^ ",
"  ^ ^ . . . . . . + & *   : . . . . . . . . . . . . . . . . . @ @ | N A m m m @ m m O N | m m . . . . . . . . . . . . . . . . . J   ~ * * { ! > > ! ;     ^ ",
"  ^ ^ . . . . . . h & *   : . . . . . . . . . . . . . . . . . @ @ | P Q           R S P | m m . . . . . . . . . . . . . . . . . J   ~ * * { { > > { ;     ^ ",
"  ^ ^ . . . . . . + & *   / . . . . . . . . . . . . . . . . . @ @ u ( _ ~ ~ ~ ~ ~ ~ _ ( | m m . . . . . . . . . . . . . . . . . J   ~ * * { ! > > { ;     ^ ",
"  ^ ^ . . . . . . + & *   / . . . . . . . . . . . . . . . . . @ @ @ @ m N N N N N N @ m | m m . . . . . . . . . . . . . . . . . J   ~ * * { ! > > { ;     ^ ",
"  ^ ^ . . . . . . & & *   : . . . . . . . . . . . . . . . . . @ T . m m U V W W V U @ m m m m . . . . . . . . . . . . . . . . . J   ~ * * { ! > > { -     ^ ",
"  ^ ^ + + + . . . & & *   / . . . . . . . . . . . . . . . . . . . . m m m m W W o @ m m . . . . . . . . . . . . . . . . . . . . J   ~ = = { ! > > ; -     ^ ",
"  ^ ^ + + . . . . + & *   : . . . . . . . . . . . . . . . . . . . @ m m T T W X @ F p m . . . . . . . . . . . . . . . . . . . . J   ~ = = { ! > > ; ;     ^ ",
"  % ^ # + + . . . + & *   : @ p . . . . . . . . . . . . . . . . . . . . m m W U @ F . . . . . . . . . . . . . . . . . . . . p @ V   ~ = = { ! > > ; -     ^ ",
"  % % # + + + + . h & *   : q p . j . . . . . . . . . . . . . . . . . . m m W U @ m . . . . . . . . . . . . . . . . . . . . p @ V   ~ = = { ! > > - -     ^ ",
"  % % . . . . . . + + *   : @ p . j . . . . . . . . . . . . . . . . . . m m W U @ m . . . . . . . . . . . . . . . . . . . . p @ V   ~ = = { ! > > - Y     ^ ",
"  % % . . . . . . + + *   : @ p . j . . . . . . . . . . . . . . . . . . m m W U @ m . . . . . . . . . . . . . . . . . . . . p @ V   ~ = = ! ! > > Y Y     ^ ",
"  % % . . . . . . + + *   : @ p . j . . . . . . . . . . . . . . . . @ @ m @ W X @ m @ @ . . . . . . . . . . . . . . . . . . p @ V   ~ = = ! ! > > Y Y     [ ",
"  % % . . . . . . + + =   : @ p . j . . . . . . . . . . . . . . . . u u @ @ W X @ m p p . . . . . . . . . . . . . . . . . . p @ V   ~ = = ! ! > > Y Y     % ",
"  % % # # # # . . + + =   : @ @ . . . . . . . . . . . . . . . . . . u T @ @ W X @ m p p . . . . . . . . . . . . . . . . j o p @ V   ~ = = ' ' > > Y Y     % ",
"  % % . # # # . . + + =   : @ p @ @ . . . . . . . . . . . . . . . . m m @ @ W X @ m p p . . . . . . . . . . . . . . . . p p p @ V   ~ = = ' Z > > Y `     % ",
"  % % . # # # . . + + =   : @ p p p . . . . . . . . . . . . . . . . m m @ @ W U @ m p p . . . . . . . . . . . . . . j . p p p @ V   ~ = = ' Z > > Y `     % ",
"  % % . . # . . . + + =   : @ p p p . . . . . . . . . . . . . . . . @ m @ @ W X @ m p p . . . . . . . . . . . . . . @ @ p p p @ V     = = Z , > > Y `     % ",
"  % % . . . . . . + + =   / @ p p p . . . . . . . . . . . . . j j . @ m @ @ W X @ m p p . . . . . . . . . . . . . . @ @ @ @ p @ V   ~ * * , =  . .Y `     % ",
"  % % . . . . . . + + =   / @ p p p m m m m . . . . . . . m m m m m m T @ @ W X @ m m m . . . . . . . . . . . . . . @ @ m m p @ V   ~ = * = =  . .` `     % ",
"      # + + + . . . + &   / @ p p p m m @ @ o . . . . . . F m @ @ m m T @ @ W U @ m m m . . . . . . . . . . . . . . m @ m @ p @ N   ~ * * = = > >  . .      ",
"      # + + + . . + + &         p p m m m m m m m m m m @ m m m T T m m @ @ W X @ @ m m m @ @ . . @ @ @ @ @ @ @ @ @ m m @ m         ~ * * = = > >  . .      ",
"      # + + + . . + + &         p p m m m m m m m m m m @ m m m m T m m @ @ W X @ @ m m m m @ . . @ @ @ @ @ @ @ @ @ m m @ @         ~ * * = = > >  . .      ",
"      . . . . . . . + * * *     p p m m m m m m m m m m m m m m m m m m @ @ W U @ @ m m m m m m m m m m m m m m m m @ @ @ m     = = = * * = = > >  . .      ",
"      . . . . . . . . * * *     p p m m m m m m m m m m m m m m m m m m @ @ W U @ @ m m m m m m m m m m m m m m m m @ @ @ m   ~ = = = * * = = > > > >       ",
"      . . . . . . . . * * *     p p m m m m m m m m m m m m m m m m m m @ @ ....@ @ m m m m m m m m m m m m m m m m @ @ @ p   ~ = = = * * = = > > > >       ",
"      . . . . . . . . * * *     p p m m m m m m m m m m m m m m m m m m @ @ m @ F @ m m m m m m m m m m m m m m m m @ @ @ m     = = = * * = = > > > >       ",
"      . . . . . . . . * * *     @ @ m m m m m m m m m m m m m m m m m m m m m m m m m m m m m m m m m m m m m m m m m m @ .     * * = * * = * > > > >       ",
"      . . . . . . . . * * * %       F m m m m m m m m m m m m m m m m m m m m m m m m m m m m m m m m m m m m m m m m m         * = = * * * * > > > >       ",
"      . . . . . . . j * * * +.P     F m m m m m m m m m m m m m m m m m m m m m m m m m m m m m m m m m m @ m m m m m m     U / * * = * * * * > > > >       ",
"      . . . . . . . . * * * * = /   % % % % 2 m m m m m m m m m m m m m m m m m m m m m m m m m m m m m m @ p @.  ~       U = * * = = * * * * > > > >       ",
"      . . . . . . . + * * * * = /           ..m m m m m m m m m m m m m m m m m m m m m m m m m m m m m m p p 2           < * * * * * * * * * > > > >       ",
"      . . . . . . . + * * = * = = = = *               m m m m m m m m m m m m m m m m m m m m m m m m               * * * * * * * * * * * * * > > > >       ",
"      . . . . . . . . * * * * = = = = *   ~ ~         m m m m m m m m m m m m m m m m m m m m m m m m       ~ % %   * * * * * * * * * * * * * > > > >       ",
"      . . . . . . . . * * * * = = = = * * * * * *     1 1 1 1 1 1 1 1 1 1 1 1 1 1 1 1 1 1 1 1 1 1 1 1     * * * = * * * * * * * * * * * * * * > > > >       ",
"      # . . . . . . . = = * * = = = = = = = = = *                                                         * * * * * * * * * * = = = = * * * * > > > >       ",
"      # . . . . . . . = = * * = = = = * = = = = * * * * * * * * * * * = = = = * * * * * * * * * * * * * * * * * * * * * * * * = = = = * * * * > > > >       ",
"      # # . . . . . . = = = * = = = = * * * = * * * * * * * * * * * * = = = = * * * * * * * * * * * * * * * * * * * * * * * * = = = = * * * * > > > >       ",
"      + # . . . . . . = = = * = = = = * * * * * * * * * * * * * * * * = = = = * * * * * * * * * * * * * * * * * * * * * * * * = = = = * * * * > > > >       ",
"      + + + + . . . . = = = = = = = = * * * * * * * * * * * * * * * * * * * * * * * * = = = = * * * * * * = = * * * * * * * * * * * * * * * * > > > >       ",
"      * * * * = = = = > > > > > > > > > > > > > > > > > > > > > > > > > > > > > > > > > > > > > > > >  . . . .> > > > > #.#.#.> > > > > > > > > > > >       ",
"      * * * * = = = =  .> > > > > > > > > > > > > > > > > > > > > > > > > > > > > > > > > > > > > > >  . . . .> > > > > > > #.> > > > > > > > > > > >       ",
"      * * * * = = = = > > > > > > > > > > > > > > > > > > > > > > > > > > > > > > > > > > > > > > > >  . . . .> > > > > > > #.> > > > > > > > > > > >       ",
"      * * * * = = = = > > #.#.> > > > > > > > > > > > > > > > > > > > > > > > > > > > > > > > > > > >  . . . .> > > > > > > > > > > > > > > > > > > >       ",
"                                                                                                                                                            ",
"                                                                                                                                                            ",
"                                                                                                                                                            "};
