/* XPM */
static char * space_xpm[] = {
"238 79 39 1",
" 	c #000000",
".	c #040403",
"+	c #070707",
"@	c #080706",
"#	c #080807",
"$	c #030302",
"%	c #0C0B0A",
"&	c #0C0C0A",
"*	c #0C0C0C",
"=	c #10100E",
"-	c #100F0D",
";	c #AAAAAA",
">	c #A7A7A7",
",	c #ACACAC",
"'	c #A0A0A0",
")	c #9F9F9F",
"!	c #9A9A9A",
"~	c #959595",
"{	c #939393",
"]	c #8E8E8E",
"^	c #737373",
"/	c #717171",
"(	c #808080",
"_	c #7C7C7C",
":	c #838383",
"<	c #535353",
"[	c #686868",
"}	c #747474",
"|	c #6F6F6F",
"1	c #606060",
"2	c #646464",
"3	c #656565",
"4	c #585858",
"5	c #ADADAD",
"6	c #282828",
"7	c #2C2C2C",
"8	c #2F2F2F",
"9	c #272727",
"0	c #4C4C4C",
"                                                                                                                                                                   ....+++++@@@#$$$$%$&$&&&&&&&&&**=*********&**-****&&*&&**&****=-===        ",
"                                                                                                                                                                                                                                              ",
"                                                                                                                                                                                                                                              ",
"    ;;;;;;;;;;;;;;;;;;;;>>>>>>>>;;;;;;;;;;;;;;;;;;;;;;;;;;;;;;;;;;;;;;;;;;;;;;;;;;;;;;;;;;;;;;;;;;;;>>>>;;>>;;;;;;;;;;;;;;;;;;,,,,;;;;;;;;;;;;;;;;;;;;;;;;;;;>>>>>''))))!!!!!~~~~{]]^]]^^^^////^/((/(/(_((((((:(((((///^^//(////(((((_<<<<    ",
"    ;;;;;;;;;;;;;;;;;;;;>>>>>>>>;;;;;;;;;;;;;;;;;;;;;;;;;;;;;;;;;;;;;;;;;;;;;;;;;;;;;;;;;;;;;;;;;;;;>>>>;;;;;;;;;;;;;;;;;;;;;;,,,,;;;;;;;;;;;;;;;;;;;;;;;;;;;>>>>')))))!!~~~~{{{{]]^^^////(((((____[_[_[[[[[__[[[_[___(((((______[[[[}<<<<    ",
"    ;;;;;;;;;;;;;;;;;;;;>>>>>>>>;;;;;;;;;;;;;;;;;;;;;;;;;;;;;;;;;;;;;;;;;;;;;;;;;;;;;;;;;;;;;;;;;;;;>>>>;>;;;;;;;;;;;;;;;;;;;;,,,,;;;;;;;;;;;;;;;;;;;;;;;;;;;;;;;;;;;;>>>>;;;;;;;;;;;;;;;;;;;;;;;;;;;;>;;;;;;;;;;;;;;;;;;;;;;;;;;;;;;;<<<<    ",
"    ;;;;;;;;;;;;;;;;;;;;>>>>>>>>;;;;;;;;;;;;;;;;;;;;;;;;;;;;;;;;;;;;;;;;;;;;;;;;;;;;;;;;;;;;;;;;;;;;>>>>>>>;;;;;;;;;;;;;;;;;;;,,,,;;;;;;;;;;;;;;;;;;;;;;;;;;;;;;;;;;;;>>>>;;;;;;;;;;;;;;;;;;;;;;;;;;;;>;;;;;;;;;;;;;;;;;;;;;;;;;;;;;;;<<<<    ",
"    ;;;;||||||||||||||||||||||||||||||112222||||||||||||||||||||||||2222||||||||||||||11||||1111||||||||||||22222222||||2|||||||||||||||||||||||||||||||||222222222222}}}}[___(((((((((((/((///////////^^^^^^^//////(//////////////^^^<<<<    ",
"    ;;;;||||||||||||||||||||||||||||||112222||||||||||||||||||||||||2222|||||||||||||||1||||1111||||||||||||22222222||||||||||||||||||||||1|||11|||||||||2222222222222}}}[____(((/////////////^^^^^^^^^^^]]]^]^^^^^^//////^^^^^^^^^^]]<<<<    ",
"    ;;;;||||||||||||||||||||||||||||||112222||||||||||||||||||||||||2222|||||||||||||||||||11111||||||||||||22222222||||||||||||||||||||||11||1|||||||||||||||||||1111||||222222222222||||||||22222|||2||||||||||||1111|||||||||||||||<<<<    ",
"    ;;;;||||||||||||||||||||||||||||||||2222||||||||||||||||||||||||2222||||||||||||||||||111111||||||||||||22222222||||||||||||||||||||||11|||111||||||||||||||||1111||||222222222222|||||||||22222222||||||||||||1111|||||||||||||||<<<<    ",
"    ;;;;||||1111||||||||||||||||2222||||||||||||||||||22}}}}||||||||1111||||||||22222222||||2222||||||||||||2|||||||||||||||||22222222||||||||2222||||22222222|||||||||2222222222||||||||||||||2222||||111||||||||||||||||||||||||||||<<<<    ",
"    ;;;;||||1111||||||||||||||||2222||||||||||||||||2222}}}}||||||||1111||||||||22222222||||2222||||||||||||||||||||||||||||||||222222||||||||2222||||2|2|2222|||||||||22222222222|||||||||||||2222||||1111||||||||1||||||||||||||||||<<<<    ",
"    ;;;;||||1111||||||||||||||||2222||||||||||||||||2222}}}}||||||||1111||||||||22222222||||2222||||||||||||||||||||||||||||||2|222222||||||||2222||||||||2222||||||||222222222222|||||||||||||||||||||||||||||111|1111111|2222|||||||<<<<    ",
"    ;;;;||||1111||||||||||||||||2222||||||||||||||||2222}}}}||||||||1111||||||||22222222||||2222||||||||||||||||||||||||||||||22222222||||||||2222||||||||2222||||||||||||22222222|||||||||||||||||||||||||||||1||1111111112222|||||||<<<<    ",
"    ;;;;||||2222||||||||||||2222||||||||||||||||||||||||||||||||33331111||||||||1111||||||||33331111||||||2222222222||||||2222|||||||||||2||||||||||||2222||||||||||||11|||22222||||||||||||||2||||||||||||||||1|||111111112222|||||||<<<<    ",
"    ;;;;||||2222||||||||||||2222||||||||||||||||||||||||||||||||3333||||||||||||1111||||||||33331111||||2222}}222222||||||2222|||||||||222||||1|||||||2222||||||||||||11|||||||||||||||||||||22|||||||||||||||||111111111112222|||||||<<<<    ",
"    ;;;;||||2222||||||||||||2222||||||||||||||||||||||||||||||||3333||||||||||||1111||||||||33331111||||2222}}222222||||||222|||||||||2222||||11||||||||||||||1|||||||1|||2|||2||||||||||||||||||||||||||||2222222|||||||||||||||||222<<<<    ",
"    ;;;;||||22221111||||||||2222||||||||||||||||||||||||||||||||333311||||||||||1111||||||||33331111||||2222}}222222||||||22||||||||||2222||||||||||||||||||||||||||||1|||2|||2||||||||||||||||||||||||||||}}}}22||||||||||||||||||222<<<<    ",
"    ;;;;||||222222221111||||2222||||||||1111||||||||||||||||22222222||222222||||||||||||||||||||||||||||||222222||||111|||||||||||||||||||||||||||||||||||3333||||||||||||2||||||||||||||||||||||||||||||||}}}}22||||||||||||||||||2224444    ",
"    ;;;;||||222222221111||||2222||||||||1111|||||||||||||||55555555555555552||22||||||||||||||||||||||||||||2222||1111||||||||||||||||||||||||||||||||||||1111|||||||||||22|||2||||||||||||||||||||||||||||}}}}2222||||||||||||||||2224444    ",
"    ;;;;||||222222221111||||2222||||||||1111|||||||||||||||55555555555555552||22||||||||||||||||||||||||||||2222||11|1||||||||||||||||||||||||||||||||||||1111||||||||||||||11|11||1111111111112222}}}}2222}}}}2222|||||||||||||||||||4444    ",
"    ;;;;|||||22222221111||||2222||||||||1111|||||||||||||||55555555555555552||22||||||||||||||||||||||||||||2222||11||||||||||||||||||||||||||||||||||||||1111||||||||||||2|11|111|1111111111112222}}}}2222}}}}2222|||||||||||||||||||4444    ",
"    >>>>||||||||||||||||||||2222||||1111|||||||||||||||||||5555555555555555|||||||||||||||||2222||||||||||||11131111||||222222||||1111||||2222||||||||||||2|222|||||||||222|1||||||1111111111112222}}}}2222}}}}2222|||2222||||||||||||<<<<    ",
"    >>>>||||||||||||||||||||2222||||1111|||||||||||||||5555|||||1111|2222222||||||||||||||||2222||||||||11||11331111||||222222||||1111||||2222||||||||||||22222|||||||||||21|||||||1111111111112222}}}}2222}}}}2222|||||||||||||||||||<<<<    ",
"    >>>>||||||||||||||||||||2222||||1111|||||||||||||||5555|||6666666677776766||||||||||||||2222||||||||11||31331111||||2222222|||1111||||22||||||||||||||222222|||||||1111111|||||22222222||||||||22222222}}}}22222222}}}}||||1111|||<<<<    ",
"    >>>>||||||||||||||||||||2222||||1111|||||||||||||||5555|||6666666666666666||||||||||||||2222||||||||111111131111||||2222}}22||1111||||2|||||||||||||||222222|||||||11111111||||22222222||||||||22222222}}}}22222222}}}}||||1111|||<<<<    ",
"    ;;;;||||||||||||22222222222222222222}}}}|||||||||||5555|||6666666666666666||||||2222||||||||||||1111||||||||||||2222|||||22222}}}}2222|||||||||||||||22||||||||||||1111|||1||||22222222||||||||22222222}}}}22222222}}}}||||1111|||<<<<    ",
"    ;;;;||||1|||||||22222222}}}}22222222}}}}||||1111|||||||5555555555556667766|5555|22255555555|||||1111|||5555555555552||||2|2222}555555555555||||||||||225555555555551111|||1||||22222222||||||||22222222}2}}22222222}}}}||||1111|||<<<<    ",
"    ;;;;||||1|||||||22222222}}}}22222222}}}}||||1111||||||6555555555555|||22|||5555|22255555555|||||1131|||5555555555552||||||2222}555555555555||||||||||||555555555555222|||||2222||||||||||||||||333311111111||||||||||||2222}}}}222<<<<    ",
"    ;;;;||||11||||||2222}}2222}}22222222}}}}||||||||||||||6555555555555|2222|||5555|22255555555|||||3333|||5555555555552||||||2222}555555555555||||||||||||55555555555522||||||2222||||||||||||||||333311111111||||||||||||2222}}}}222<<<<    ",
"    ;;;;1111||||||||1111||||||22||||||||22222222||||||||||6555555555555|2222|||5555||||55555555||||||||||||555555555555|||2222|||||555555555555||||||||||||555555555555||||||||2222||||||||||||||||333311111111||||||||||||2222}}}}222<<<<    ",
"    ;;;;||11||||||||1111||||||||||||||||22222222||||||||1|6666||||||22|5555||||5555555522222|||5555||||||||||||||||||||5555222|5555|||22222222|5555||||5555|||||111||||5555||||2222||||||||||||||||3333|||11111||||||||||||2222}}}}222<<<<    ",
"    ;;;;||||||||||||1111||||||||||||||||22222222||||||||111|||6677767665555||||55555555222766665555|||||||||||6666666665555222|5555|||6666777765555||||5555|||6676666665555||||||||1111||||||||||||2222}}}}2222||||||||2222||||||||222<<<<    ",
"    ;;;;||||||||||||1111||||||||||||||||2222}}22||||||||||||||6677766665555||||55555555222666665555|||||||||||6666776665555222|5555|||6667777765555||||5555|||6677666665555||||||||1111||||||||||||2222}}}}2222||||||||2222||||||||222<<<<    ",
"    ;;;;||||||||||||||||||||||||||||||||||||2|||2222}}}}2||2226666776665555||||555555552226666655551|||12222226677777775555222255551116666666665555222255552227777766665555||||||||1111||||||||||||2222}}}}2222||||||||2222||||||||22|8888    ",
"    ;;;;||||||||||||||||||22||||||||||||||||22222222}}}}2222||6666666665555||||5555677222|6666655551||||222555555555555555522225555|116666666666662222255555555555555555555||||||||1111||||||||||||2222}}}}2222||||||||2222||||||||2228888    ",
"    ;;;;||||||||||||||||2|22||||||||||||||||22222222}}}}2222|||||||||||5555666|55556767776|||||5555666||222555555555555555577725555666||||||||||||7777255555555555555555555777}}}}}||||||||2}}}}}}}222222222222}}}}[[[[222222221111|||8888    ",
"    ;;;;||||||||||||||||2222||||||||||||||||||||2222}}}}22|2||||22|||||5555666|55556667666|||||5555666||222555555555555555577725555666||||||||||||7777255555555555555555555777}}}}}||||||||2}}2}}}}222222222222}}}}[[[[222222221111|||8888    ",
"    ;;;;||||2222}}}}22222222}}}}2222||||||||||||||||22222|222222||||2225555767255556676666|||||5555666112225555555555555555666|5555666222222||22226666|55555555555555555555777}}}}}||||||||2}22}}}}222222222222}}}}[[[[222222221111|||<<<<    ",
"    ;;;;||||2222}}}[22222}}}}}}}2222||||||||||||||||222555522222||||222555576625555555555555555|||6666155552|||2222||||5555666|555566622||||||25555666|5555666|||||22222227777}}}}}||||||||}}}}}}}}222222222222}}}}[[[[222222221111|||<<<<    ",
"    ;;;;||||2222}}}}22222}}}}}}}2222||||||||||||||||222555522222||||222555576625555555555555555|||6666155552||6677766665555666|555566622||||||25555||||55556667666677776667777|||||||||||||||||||||||222|||2222|||||||||||||||||||||||<<<<    ",
"    ;;;;||||2222}}}}222222}}}}}}2|22||||||||||||||||222555522222||||222555576625555555555555555|||6666155552||667766666555567625555666|2||||||25555||||555566666666777766666772|||||||||||||||||||||||22|222222|||||||||||||||||||||||<<<<    ",
"    ;;;;||||||||||||22222222||||11||||||||||||||||||3335555|2||||||||||5555666|5555555555555555|227766|5555|||66776677755556772555566622|||||||5555|22255556666666677776666677||||||||||||||||||||||||22|222222|||||||||||||||||||||||4444    ",
"    ;;;;||||||||||||||||2222||||||||1111||||||||||||3333|||555555555555|116666|555577722||||22||227766|||||5555555555555555676||||6555555555555|||||||222265555555555555555676|||||||||||||||||||||||||22222222|||||||||||||||||||||||4444    ",
"    ;;;;||||||||||||||||2222||||||||1111||||||||||||3333||6555555555555|116666|555577777666677667722||||||65555555555555555666||||6555555555555|||66662222655555555555555552222}}}}[[[[2222||||2222222222222222|||||||||||||||||||||||4444    ",
"    ;;;;||||||||||||||||2222||||11||11|1||||||||||||3333||6555555555555|116666|555577777667777667722||||||65555555555555555666||||6555555555555|||66672222655555555555555552222}}}}[[[[2222||||2222222222222222|||||||||||||||||||||||4444    ",
"    ;;;;||||||||||||222222222222||||||||11111111||||||||339555555555555}226666|5555766666667776666||1111||65555555555555555766||||65555555555552||666622||655555555555555552222}}}}[[[[2222||||222222222222}222|||||||||||||||||||||||8888    ",
"    ;;;;||||||||||||222222222222||||||||11111111||||||||33996611||||}}}}227766|5555766777777666666||1111||6666||||||2222226666||||6666|||||||222||6666||||66762|||||||2222|2222}}}}[[[[2222||||2222222222222222|||||||||||||||||||||||8888    ",
"    ;;;;||||||||||||222222222222||||||||11111111||||||||33331166666677776622|||55557662|22||||||||||1111||||||666666667777666622||||||666676667766||||||||||2|666666667776667722222}}}}2222||||1111|||||||||||||||||||||||||||||||||||8888    ",
"    ;;;;||22||||||||222222222222||||||||11111111||||||||33331166666677776622|||5555766||||||||||||||1111||||||666666666677667722||||||666777666666||||||||2|22666666666676666622222}}}}2222||||1111|||||||||||||||||||||||||||||||||||8888    ",
"    ;;;;2222||||||||||||11112222||||||||||||||||||||2222||2|||66666666666611|||5555766||222222222222||||2222116666666666777777|11111||666666666666||||||||2222666666666666666622222}}}}2222||||1111|||||||||||||||||||||||||||||||||||<<<<    ",
"    ;;;;2222||||||||||||11112222||||||||||||||||||||2222|||22277776666666611||||227766||22}}22222222||||2222116666666666667777111111||666666666666||||||||||||6666676666666666|2222}}}2|222||||1111|||||||||||||||||||||||||||||||||||<<<<    ",
"    ;;;;2222||||||||||||11112222||||||||||||||||||||2222||22222222|2||||1111||||227766||22}}22222222||||22|21111||||2222||22}}111111||11111|11||||||||2|||||||22222222|11111|||2222||||||||||||2222222||222||||||||||||}}}}1111||||111<<<<    ",
"    ;;;;2222||||||||||||11112222||||||||||||||||||||2222||||2|222222||||1111||||226666||22}}22222222||||22||1111||||2222||222}1111||||11111|11|||2||||2|||||||22222222|111111||2222||||||||||||2222222||222||||||||||||}}}}11111|||111<<<<    ",
"    ;;;;2222}}}}22||||||||||||||||||||||||||||||||||||||222222}}2222||||||||||||226666||||22||||||||||||||||||||2222||||||1113|||||||||||222|||||222||||||||||||22||||2||11||||2222||||||||||||222222|||222||||||||||||}}}}11111|||111<<<<    ",
"    ;;;;2222}}}}2222||||||||||||||||||||||||||||||||||||22222222||||||||||||||||||6666||||||||||||||||||||||||||2222||||||1111||||||||||||||||||||||||||||||||||||||||2|||1||||2||2||||||||||||222222222222||||||||||||}222111111|1111<<<<    ",
"    ;;;;2222}}}}2222||||||||||||||||||||||||||||||||||||22222222|||||||||||||||||||||||||||||||||||||||||2||||||2222||||||1111|||||||||||||||||||||||||||||||||||||||||||||2222||||1||1||||||||||||||||||||||||||||||||33331111|||||||<<<<    ",
"    ;;;;}}22}}}}2222||||||||||||||||||||||||||||||||||||22222222||||||||||||||||||||||||||||||||||||||||22|2||||2222||||||1111|||||||||||||||||||||||||||2|||||||||||||||||2222||||||||||||||||||||||||||||||||||||||||3333111||||||||<<<<    ",
"    ;;;;2|||||||||||2222||||||||||||||||||||||||||||1111||||||||||||||||||||||||22222222||||||||||||22222222}}}}22222222||||||||||||||||||2222}}}}2222}}}2222222222222|||||||2|||||1|||||||||||||||||||||||||||||||||||3333|||||||||||<<<<    ",
"    ;;;;22||||||||||2222||||||||||||||||||||||||||||1111||||||||||||||||1111||||22222222||||||||||||22222222}}}}}2222222||||||||||||||||||2222}}}}2222}}}2222222222222||||||||||||||||||||||||||||||||||||||||||||||11|3333|||||||||||<<<<    ",
"    ;;;;22||||||||||2222||||||||||||||||||||||||||||1111||||||||||||||||1111||||22222222||||||||||||22222222}}}}}2}22222||||||||||||||||||2222}}}}2222}}}222222222222222222222||||||||||||||||||||||22|||||1111|||||||2222||||||||||||<<<<    ",
"    ;;;;22||||||||||2222||||||||||||||||||||||||||||1111||||||||||||||||||||||||22222222||||||||||||22222222}}}}}}}}2222||||||||||||||22222222}}}}2222}}}222222222222222222222||||||||||||||||||||||22|||||1111|||1|||2222||||||||||||<<<<    ",
"    ;;;;22||||||||||||||||||||||3333||||||||22222222||||||||2222[[[[2222||||||||111122||}}}}||||||||||||}}}}2222}}}}2222||222|||||||||||||2222||||||||||||11113333||||2}}}22222||||111|||||22222||||222||||1111|||||||||||||||2|||||||4444    ",
"    ;;;;||||||||||||||||||||111|3333||11|22222222222||||||||2222[[[[2222||||||||1111||||}}}}2222||||||||}}}}2222}}}}2222||2222||||||||||||22|||2||||||||||11113333||||2}}}22222||||111||||22|||2222222||||||||||||||||||||||||||||||||4444    ",
"    ;;;;||||||||||||||||||||111|3333|111|22222222222||||||||2222[[[[2222||||||||1111||||}}}}2222||||||||}}}}2222}}}}2222||2222||||||||||||2222|222||||||||11113333||||222222222||||||||||||||||||||||||||||22221111|||||||||||||||||||4444    ",
"    ;;;;||||||||||||||||||||11||3333||1|||2222222222||||||||2222____2222||||||||1111||||}}}}2222||||||||2}222222}}}}22||||2222||||||||||||22222222||||||||11113333||||222222222||||||1|||||||||||||||||||||222|1111|||||222|||||||||||4444    ",
"    2222<<<<<<<<<<<<<<88<<<<<<<<<<<<<<<<<<<<<<<<8800<<<<<<<<<<<<<<<<<<<<<<<<<<<<<<<<<<<<<<<<<<<<444444448888<<<<<<<<<<<<<<<<<<<<<<4444<<<4<<<<<<<<<<<<<<<<<<<<<<4444444444444414441111441114444444411111111333144441111111444444444111<<<<    ",
"    2222<<<<<<<<<<<<<<88<<<<<<<<<<<<<<<<<<<<<<<<8888<<<<<<<<<<<<<<<<<<<<<<<<<<<<<<<<<<<<<<<<<<<<444444448888<<<<<<<<<<<<<<<<<<<<<<4444<<<<<<<<<<<<<<<<<<<<<<<<444444444444444444444444444444444444444444111111444444444444444444444111<<<<    ",
"    2222<<<<<<<<<<<<<<88<<<<<<<<<<<<<<<<<<<<<<<<8888<<<<<<<<<<<<<<<<<<<<<<<<<<<<<<<<<<<<<<<<<<<<44444444<<88<<<<<<<<<<<<<<<<<<<<<<4444<<<<<<<<<<<<<<<<<<<<<<<<<<<<<<<<<<<<<<<<<<<<<<<<<<<<<<<<<<<<<<<<<<4444444<<<<<<<<<<<<<<<<4444444<<<<    ",
"    2222<<<<<<<<<<<<<<<<<<<<<<<<<<<<<<<<<<<<<<<<0088<<<<<<<<<<<<<<<<<<<<<<<<<<<<<<<<<<<<<<<<<<<<44444444<<<<<<<<<<<<<<<<<<<<<<<<<<4444<<<<<<<<<<<<<<<<<<<<<<<<<<<<<<<<<<<<<<<<<<<<4<<<<<<<<<<<<<<<<<<<<4444444<<<<<<<<<<<<<<<<<4<<4444<<<<    ",
"    ||||<<<<<<<<444444444444<<<<<<<<<<<<<<<<<<<<<<<<<<<<<<<<<<<<<<<<4444<<<<<<<<<<<<<<<<<<<<8888<<<<4444<<<<<<<<<<<<<<<<<<<<<<<<<<<<<<<<<<4444<<<<<<<<<<<<<<<<4444<<<<<<<<<<<<<<<<4<<<<<<<<<<<<<<<<<<<<<<<<444<<<<<<<<<<<<<<<<<<<<<<<<<<<<    ",
"    ||||<<<<<<<<444444444444<<<<<<<<<<<<<<<<<<<<<<<<<<<<<<<<<<<<<<<<4444<<<<<<<<<<<<<<<<<<<<8888<<<<4444<<<<<<<<<<<<<<<<<<<<<<<<<<<<<<<<<<4444<<<<<<<<<<<<<<<<4444<<<<<<<<<<<<<<<<4<<<<<<<<<<<<<<<<<<<<<<<<<<<4<<<<<<<<<<<<<<<<<<<<<<<<<<<    ",
"    ||||<<<<<<<<444444444444<<<<<<<<<<<<<<<<<<<<<<<<<<<<<<<<<<<<<<<<4444<<<<<<<<<<<<<<<<<<<<8888<<<<4444<<<<<<<<<<<<<<<<<<<<<<<<<<<<<<<<<<4444<<<<<<<<<<<<<<<<4444<<<<<<<<<<<<<<<<4444<<<<<<<<<<<<<<<<<<<<<<<<<<<<<<<<<<<<<<<<<<<<<<<<<<<<    ",
"    ||||<<<<<<<<444444444444<<<<<<<<<<<<<<<<<<<<<<<<<<<<<<<<<<<<<<<<4444<<<<<<<<<<<<<<<<<<<<8888<<<<4444<<<<<<<<<<<<<<<<<<<<<<<<<<<<<<<<<<44444444<<<<<<<<<<<<4444<<<<<<<<<<<<<<<<4444<<<<<<<<<<<<<<<<<<<<<<<<<<<<<<<<<<<<<<<<<<<<<<<<<<<<    ",
"                                                                                                                                                                        ++++++++$$$$$$$$$$$********$$***********$$$$$$$$$$$$$$$$$$$$++        ",
"                                                                                                                                                                        ++++++++++++$$$$$$$$$$$$$$$*$$$**$$$$$$$$$$$$$$$$$$$+++++$++++        ",
"                                                                                                                                                                                                                                              ",
"                                                                                                                                                                                                                                              "};
