/* XPM */
static char * tile6_xpm[] = {
"48 48 116 2",
"  	c #000000",
". 	c #B1B1B1",
"+ 	c #A7A6A7",
"@ 	c #949494",
"# 	c #7F7F7F",
"$ 	c #5F5F5F",
"% 	c #5C5C5C",
"& 	c #5B5B5B",
"* 	c #818181",
"= 	c #B4B4B4",
"- 	c #8F8F8F",
"; 	c #5E5E5E",
"> 	c #676767",
", 	c #686868",
"' 	c #2A2A2A",
") 	c #2B2B2B",
"! 	c #888888",
"~ 	c #878787",
"{ 	c #909090",
"] 	c #393939",
"^ 	c #3A3A3A",
"/ 	c #6F6F6F",
"( 	c #6E6E6E",
"_ 	c #9D9D9D",
": 	c #2C2C2C",
"< 	c #595959",
"[ 	c #2E2E2E",
"} 	c #848484",
"| 	c #323232",
"1 	c #333333",
"2 	c #252525",
"3 	c #242424",
"4 	c #8B8B8B",
"5 	c #373737",
"6 	c #5A5A5A",
"7 	c #2F2F2F",
"8 	c #262626",
"9 	c #383838",
"0 	c #838383",
"a 	c #717171",
"b 	c #474747",
"c 	c #484848",
"d 	c #313131",
"e 	c #008080",
"f 	c #A9A9A9",
"g 	c #B7B7B7",
"h 	c #B8B8B8",
"i 	c #B3B3B3",
"j 	c #B2B2B2",
"k 	c #525252",
"l 	c #525152",
"m 	c #7D7D7D",
"n 	c #AAAAAA",
"o 	c #515051",
"p 	c #ABABAB",
"q 	c #727272",
"r 	c #858585",
"s 	c #7E7E7E",
"t 	c #363636",
"u 	c #C4C4C4",
"v 	c #787878",
"w 	c #797979",
"x 	c #636363",
"y 	c #626262",
"z 	c #2D2D2D",
"A 	c #616161",
"B 	c #606060",
"C 	c #8E8E8E",
"D 	c #A3A3A3",
"E 	c #565656",
"F 	c #555555",
"G 	c #C1C1C1",
"H 	c #C0C0C0",
"I 	c #303030",
"J 	c #222222",
"K 	c #232323",
"L 	c #212121",
"M 	c #1E1E1E",
"N 	c #C5C5C5",
"O 	c #1B1B1B",
"P 	c #696969",
"Q 	c #B9B9B9",
"R 	c #959595",
"S 	c #9B9B9B",
"T 	c #A0A0A0",
"U 	c #7A7A7A",
"V 	c #7B7B7B",
"W 	c #707070",
"X 	c #A8A8A8",
"Y 	c #B6B6B6",
"Z 	c #CCCCCC",
"` 	c #CBCBCB",
" .	c #A4A4A4",
"..	c #929292",
"+.	c #808080",
"@.	c #898989",
"#.	c #353535",
"$.	c #919191",
"%.	c #767676",
"&.	c #434343",
"*.	c #444444",
"=.	c #A2A2A2",
"-.	c #5D5D5D",
";.	c #8C8C8C",
">.	c #3C3C3C",
",.	c #3D3D3D",
"'.	c #4D4D4D",
").	c #4E4E4E",
"!.	c #292929",
"~.	c #282828",
"{.	c #AFAFAF",
"].	c #575757",
"^.	c #585858",
"/.	c #464646",
"(.	c #4A4A4A",
"_.	c #4B4B4B",
"                                                                                                ",
"  . . . . . . . . + + + @ @ @ # # # $ $ $ % % % % % & . . . . . . . . . * * * % % & = = = - -   ",
"  . . . . . . . . + + + @ @ @ # # # ; ; ; & & & % % & . . . . . . . . . * * * % % % = = = - -   ",
"  . . . . . > , > # # # ' ) ) % % & . . . . . . & % % # # # ! ! ~ # # # { { { ] ^ ] / / ( _ _   ",
"  . . . . . , , , # # # ) : : % % & . . . . . . & % % # # # ! ! ! # # # { { { ] ^ ^ / / / _ _   ",
"  . . . . . > , , # # # ) : ) % & & . . . . . . % % % # # # ! ! ! # # # { { { ] ^ ] / / / _ _   ",
"  < < # # # # # # [ [ [ & & & . . . . . . } } } | 1 1 2 2 3 4 4 4 # # # 5 5 5 % % % % % % } }   ",
"  6 6 # # # # # # [ 7 7 & & 6 . . . . . . } } } | 1 1 8 8 2 4 4 4 # # # 5 9 9 % % % % % % } }   ",
"  6 6 # # # # # # [ 7 [ & 6 6 . . . . . . 0 } } 1 1 1 8 8 2 4 4 4 # # # 5 9 9 % % % & & & } }   ",
"  a a b c c d d d % % % e e e e e e e e e e e e e e e e e e e e e e e e % % % f f f g g h 6 &   ",
"  a a c c c | | | % % & e e e e e e e e e e e e e e e e e e e e e e e e % % % f f f g g g 6 &   ",
"  a a b b b | | d % % & e e e e e e e e e e e e e e e e e e e e e e e e & % % f f f g g g 6 &   ",
"  i i . . j % % % e e e e e e e e e e e e e e e e e e e e e e e e e e e k l l m m m n n n % %   ",
"  i i . . . & % % e e e e e e e e e e e e e e e e e e e e e e e e e e e l l l m m m n n n % %   ",
"  i i . . . & % % e e e e e e e e e e e e e e e e e e e e e e e e e e e o l l m m m n n p % %   ",
"  q q r r } s m m e e e e e e e e e # # # 5 5 t f f f u u u v w w ! ! ! x x y & & & z [ [ ] ^   ",
"  q q r r r m m m e e e e e e e e e # # # t 5 t f f f u u u w w w ! ! ! x x x & & & 7 7 7 ^ ^   ",
"  q q r r r m m m e e e e e e e e e # # # t 5 t f f f u u u v w w ! ! ! x x x & & & [ [ [ ^ ^   ",
"  # # # # # # # # e e e e e e e e e 5 5 5 $ $ $ A A B C C C D D D # # # q q q # # # s s s E E   ",
"  # # # # # # # # e e e e e e e e e 9 9 9 $ $ $ A A A C C C D D D # # # q q q # # # s s s E E   ",
"  # # # # # # # # e e e e e e e e e 9 9 9 $ $ $ A A A C C C D D D # # # q q q # # # s s s F F   ",
"  # # # # # 7 7 7 e e e e e e e e e e e e e e e e e e e e e e e e e e e # # # 5 5 5 y y A G H   ",
"  # # # # # 7 I I e e e e e e e e e e e e e e e e e e e e e e e e e e e # # # 5 9 9 y y A H H   ",
"  # # # # # 7 I I e e e e e e e e e e e e e e e e e e e e e e e e e e e # # # 9 9 9 A A A H H   ",
"  m m J K K % % % e e e e e e e e e e e e e e e e e e e e e e e e e e e e e e L L M N u u . .   ",
"  m m K 3 3 % % & e e e e e e e e e e e e e e e e e e e e e e e e e e e e e e L L M u u u . .   ",
"  m m K 3 K % & & e e e e e e e e e e e e e e e e e e e e e e e e e e e e e e M M O N u u . .   ",
"  4 4 % % % . . . e e e e e e e e e . . . , P , Q Q Q { { { e e e e e e e e e G H G s # # # #   ",
"  4 4 % % & . . . e e e e e e e e e . . . P P P Q Q Q { { { e e e e e e e e e H H H # # # # #   ",
"  4 4 & % & . . . e e e e e e e e e . . . , P , Q Q Q { { { e e e e e e e e e G H H # # # # #   ",
"  % & + + + v w w e e e e e e e e e . . . R R R # # # # # # e e e e e e e e e % & & S S S 0 }   ",
"  % % + + + w w w e e e e e e e e e . . . R R R # # # # # # e e e e e e e e e % % % S S S } }   ",
"  % % + + + w w w e e e e e e e e e . . . R R R # # # # # # e e e e e e e e e % % % S S S } }   ",
"  % % % % & T T T e e e e e e e e e e e e e e e e e e e e e e e e e e e e e e & % % % % % 5 5   ",
"  % % % % % T T T e e e e e e e e e e e e e e e e e e e e e e e e e e e e e e & % % % % % 9 9   ",
"  & & & & & T T T e e e e e e e e e e e e e e e e e e e e e e e e e e e e e e & % % % % % 9 9   ",
"  . . . . j t 5 5 9 9 9 e e e e e e e e e e e e e e e e e e e e e e e e # # # # # # % % % % %   ",
"  . . . . . 5 9 9 9 9 9 e e e e e e e e e e e e e e e e e e e e e e e e # # # # # # % % % % %   ",
"  . . . . . t 9 9 5 5 5 e e e e e e e e e e e e e e e e e e e e e e e e # # # # # # % % % % %   ",
"  h h U V U a W W h g g X X X Y Y g % % % 5 5 5 x x y Z ` `  . . .# # # ......# # +.! @.@.#.t   ",
"  h h V V V W W W g g g X X X Y Y Y & % % 9 9 9 x x y ` ` `  . . .# # # ......# # # @.@.@.#.t   ",
"  h h V V V W W W g g g X X X Y Y Y & % % 9 9 9 y x y Z ` `  . . .# # # $.....# # # @.@.@.t t   ",
"  %.%.@.@.@.&.*.&.=.=.=.} } 0 U w w s s s % % % -.% % & & & # # # { { { ;.4 4 @ @ @ >.>.>.9 9   ",
"  %.%.@.@.@.*.*.&.=.=.=.} } } w w w s s s % % % % % % % % % # # # { { { 4 4 4 @ @ @ >.,.,.9 9   ",
"  %.%.@.@.@.&.*.&.=.=.=.} } } w w w s s s % % % & & & % % % # # # { { { 4 4 4 @ @ @ >.,.,.9 9   ",
"  v v %.%.%.q q q '.'.).!.!.!.~.~.~.9 9 5 % % & {.{.{.* * * ].].^.-.; ; /.b b (._._.,.,.,.y y   ",
"  v v %.%.%.q q q ).).).' ' ' !.!.!.9 9 9 % % & {.{.{.* * * ].].].; ; ; b b b _._._.,.,.,.y y   ",
"                                                                                                "};
