/* XPM */
static char * tile7selected_xpm[] = {
"48 48 124 2",
"  	c #FAE04E",
". 	c #B1B1B1",
"+ 	c #A7A6A7",
"@ 	c #949494",
"# 	c #7F7F7F",
"$ 	c #5F5F5F",
"% 	c #5C5C5C",
"& 	c #5B5B5B",
"* 	c #818181",
"= 	c #B4B4B4",
"- 	c #8F8F8F",
"; 	c #5E5E5E",
"> 	c #676767",
", 	c #686868",
"' 	c #2A2A2A",
") 	c #2B2B2B",
"! 	c #888888",
"~ 	c #878787",
"{ 	c #909090",
"] 	c #393939",
"^ 	c #3A3A3A",
"/ 	c #6F6F6F",
"( 	c #6E6E6E",
"_ 	c #9D9D9D",
": 	c #2C2C2C",
"< 	c #595959",
"[ 	c #2E2E2E",
"} 	c #848484",
"| 	c #323232",
"1 	c #333333",
"2 	c #252525",
"3 	c #242424",
"4 	c #8B8B8B",
"5 	c #373737",
"6 	c #5A5A5A",
"7 	c #2F2F2F",
"8 	c #262626",
"9 	c #383838",
"0 	c #838383",
"a 	c #717171",
"b 	c #474747",
"c 	c #484848",
"d 	c #313131",
"e 	c #000000",
"f 	c #A9A9A9",
"g 	c #B7B7B7",
"h 	c #B8B8B8",
"i 	c #B3B3B3",
"j 	c #B2B2B2",
"k 	c #7D7D7D",
"l 	c #AAAAAA",
"m 	c #ABABAB",
"n 	c #727272",
"o 	c #858585",
"p 	c #7E7E7E",
"q 	c #797979",
"r 	c #8A8A8A",
"s 	c #363636",
"t 	c #C4C4C4",
"u 	c #2D2D2D",
"v 	c #616161",
"w 	c #606060",
"x 	c #8E8E8E",
"y 	c #565656",
"z 	c #555555",
"A 	c #545454",
"B 	c #535353",
"C 	c #535253",
"D 	c #525152",
"E 	c #626262",
"F 	c #C1C1C1",
"G 	c #C0C0C0",
"H 	c #303030",
"I 	c #515051",
"J 	c #222222",
"K 	c #232323",
"L 	c #BABABA",
"M 	c #B9B9B9",
"N 	c #6D6D6D",
"O 	c #A8A8A8",
"P 	c #3E3E3E",
"Q 	c #212121",
"R 	c #1E1E1E",
"S 	c #C5C5C5",
"T 	c #6C6C6C",
"U 	c #1B1B1B",
"V 	c #3B3B3B",
"W 	c #696969",
"X 	c #5D5D5D",
"Y 	c #787878",
"Z 	c #808080",
"` 	c #959595",
" .	c #9B9B9B",
"..	c #A0A0A0",
"+.	c #ACACAC",
"@.	c #636363",
"#.	c #7A7A7A",
"$.	c #7B7B7B",
"%.	c #707070",
"&.	c #B6B6B6",
"*.	c #CCCCCC",
"=.	c #CBCBCB",
"-.	c #A4A4A4",
";.	c #929292",
">.	c #898989",
",.	c #353535",
"'.	c #919191",
").	c #767676",
"!.	c #434343",
"~.	c #444444",
"{.	c #A2A2A2",
"].	c #8C8C8C",
"^.	c #3C3C3C",
"/.	c #3D3D3D",
"(.	c #4D4D4D",
"_.	c #4E4E4E",
":.	c #292929",
"<.	c #282828",
"[.	c #AFAFAF",
"}.	c #575757",
"|.	c #585858",
"1.	c #464646",
"2.	c #4A4A4A",
"3.	c #4B4B4B",
"                                                                                                ",
"  . . . . . . . . + + + @ @ @ # # # $ $ $ % % % % % & . . . . . . . . . * * * % % & = = = - -   ",
"  . . . . . . . . + + + @ @ @ # # # ; ; ; & & & % % & . . . . . . . . . * * * % % % = = = - -   ",
"  . . . . . > , > # # # ' ) ) % % & . . . . . . & % % # # # ! ! ~ # # # { { { ] ^ ] / / ( _ _   ",
"  . . . . . , , , # # # ) : : % % & . . . . . . & % % # # # ! ! ! # # # { { { ] ^ ^ / / / _ _   ",
"  . . . . . > , , # # # ) : ) % & & . . . . . . % % % # # # ! ! ! # # # { { { ] ^ ] / / / _ _   ",
"  < < # # # # # # [ [ [ & & & . . . . . . } } } | 1 1 2 2 3 4 4 4 # # # 5 5 5 % % % % % % } }   ",
"  6 6 # # # # # # [ 7 7 & & 6 . . . . . . } } } | 1 1 8 8 2 4 4 4 # # # 5 9 9 % % % % % % } }   ",
"  6 6 # # # # # # [ 7 [ & 6 6 . . . . . . 0 } } 1 1 1 8 8 2 4 4 4 # # # 5 9 9 % % % & & & } }   ",
"  a a b c c d d d e e e e e e e e e e e e e e e e e e e e e e e e e e e e e e f f f g g h 6 &   ",
"  a a c c c | | | e e e e e e e e e e e e e e e e e e e e e e e e e e e e e e f f f g g g 6 &   ",
"  a a b b b | | d e e e e e e e e e e e e e e e e e e e e e e e e e e e e e e f f f g g g 6 &   ",
"  i i . . j % % % e e e e e e e e e e e e e e e e e e e e e e e e e e e e e e k k k l l l % %   ",
"  i i . . . & % % e e e e e e e e e e e e e e e e e e e e e e e e e e e e e e k k k l l l % %   ",
"  i i . . . & % % e e e e e e e e e e e e e e e e e e e e e e e e e e e e e e k k k l l m % %   ",
"  n n o o } p k k % % % q q q r 4 4 # # # 5 5 s f f f t t t e e e e e e e e e & & & u [ [ ] ^   ",
"  n n o o o k k k % % % q q q 4 4 4 # # # s 5 s f f f t t t e e e e e e e e e & & & 7 7 7 ^ ^   ",
"  n n o o o k k k % % % q q q 4 4 4 # # # s 5 s f f f t t t e e e e e e e e e & & & [ [ [ ^ ^   ",
"  # # # # # # # # % % % , , , 5 5 5 5 5 5 $ $ $ v v w x x x e e e e e e e e e # # # p p p y y   ",
"  # # # # # # # # % % % , , , 9 9 9 9 9 9 $ $ $ v v v x x x e e e e e e e e e # # # p p p y y   ",
"  # # # # # # # # & % % , , , 5 5 5 9 9 9 $ $ $ v v v x x x e e e e e e e e e # # # p p p z z   ",
"  # # # # # 7 7 7 z A B l l m . . j % % & C D D ; ; ; e e e e e e e e e # # # 5 5 5 E E v F G   ",
"  # # # # # 7 H H A A B l l l . . . & % % D D D ; ; ; e e e e e e e e e # # # 5 9 9 E E v G G   ",
"  # # # # # 7 H H B B B m l l . . . & % % I I I ; ; ; e e e e e e e e e # # # 9 9 9 v v v G G   ",
"  k k J K K % % % L M M . . . p # # N N N . . . f O O e e e e e e e e e P P P Q Q R S t t . .   ",
"  k k K 3 3 % % & M M M . . . # # # N N N . . . O O O e e e e e e e e e P P P Q Q R t t t . .   ",
"  k k K 3 K % & & M M M . . . # # # N N T . . . O O O e e e e e e e e e P P P R R U S t t . .   ",
"  4 4 % % % . . . = = = ! ! ! ^ V ] . . . , W , e e e e e e e e e % % % ; ; X F G F p # # # #   ",
"  4 4 % % & . . . = = = ! ! ! ^ V ^ . . . W W W e e e e e e e e e % % % ; ; X G G G # # # # #   ",
"  4 4 & % & . . . = = = ~ ! ! ^ V ^ . . . , W , e e e e e e e e e % % % ; ; X F G G # # # # #   ",
"  % & + + + Y q q p # # Z # # 1 1 | . . . ` ` ` e e e e e e e e e 5 9 9 $ $ $ % & &  . . .0 }   ",
"  % % + + + q q q # # # # # # | 1 | . . . ` ` ` e e e e e e e e e 5 9 9 $ $ $ % % %  . . .} }   ",
"  % % + + + q q q # # # # # # 1 1 | . . . ` ` ` e e e e e e e e e 5 9 9 $ $ $ % % %  . . .} }   ",
"  % % % % & ......k k k / / / 5 9 9 # # # e e e e e e e e e 5 5 5 D D I +.+.+.& % % % % % 5 5   ",
"  % % % % % ......k k k / / / 9 9 5 # # # e e e e e e e e e 5 9 9 D D I +.+.+.& % % % % % 9 9   ",
"  & & & & & ......k k k / / / 9 9 5 # # # e e e e e e e e e s 5 5 D I I +.+.+.& % % % % % 9 9   ",
"  . . . . j s 5 5 9 9 9 9 9 9 9 9 9 @.@.@.e e e e e e e e e j . . ......# # # # # # % % % % %   ",
"  . . . . . 5 9 9 9 9 9 9 9 9 9 9 9 @.@.@.e e e e e e e e e . . . ......# # # # # # % % % % %   ",
"  . . . . . s 9 9 5 5 5 5 5 5 5 5 s @.@.@.e e e e e e e e e . . . ......# # # # # # % % % % %   ",
"  h h #.$.#.a %.%.h g g O O O &.&.g % % % 5 5 5 @.@.E *.=.=.-.-.-.# # # ;.;.;.# # Z ! >.>.,.s   ",
"  h h $.$.$.%.%.%.g g g O O O &.&.&.& % % 9 9 9 @.@.E =.=.=.-.-.-.# # # ;.;.;.# # # >.>.>.,.s   ",
"  h h $.$.$.%.%.%.g g g O O O &.&.&.& % % 9 9 9 E @.E *.=.=.-.-.-.# # # '.;.;.# # # >.>.>.s s   ",
"  ).).>.>.>.!.~.!.{.{.{.} } 0 #.q q p p p % % % X % % & & & # # # { { { ].4 4 @ @ @ ^.^.^.9 9   ",
"  ).).>.>.>.~.~.!.{.{.{.} } } q q q p p p % % % % % % % % % # # # { { { 4 4 4 @ @ @ ^././.9 9   ",
"  ).).>.>.>.!.~.!.{.{.{.} } } q q q p p p % % % & & & % % % # # # { { { 4 4 4 @ @ @ ^././.9 9   ",
"  Y Y ).).).n n n (.(._.:.:.:.<.<.<.9 9 5 % % & [.[.[.* * * }.}.|.X ; ; 1.b b 2.3.3./././.E E   ",
"  Y Y ).).).n n n _._._.' ' ' :.:.:.9 9 9 % % & [.[.[.* * * }.}.}.; ; ; b b b 3.3.3./././.E E   ",
"                                                                                                "};
