/* XPM */
static char * tile8selected_xpm[] = {
"48 48 117 2",
"  	c #FAE04E",
". 	c #B1B1B1",
"+ 	c #A7A6A7",
"@ 	c #949494",
"# 	c #7F7F7F",
"$ 	c #5F5F5F",
"% 	c #5C5C5C",
"& 	c #5B5B5B",
"* 	c #818181",
"= 	c #B4B4B4",
"- 	c #8F8F8F",
"; 	c #5E5E5E",
"> 	c #676767",
", 	c #686868",
"' 	c #2A2A2A",
") 	c #2B2B2B",
"! 	c #888888",
"~ 	c #878787",
"{ 	c #909090",
"] 	c #393939",
"^ 	c #3A3A3A",
"/ 	c #6F6F6F",
"( 	c #6E6E6E",
"_ 	c #9D9D9D",
": 	c #2C2C2C",
"< 	c #595959",
"[ 	c #2E2E2E",
"} 	c #848484",
"| 	c #323232",
"1 	c #333333",
"2 	c #252525",
"3 	c #242424",
"4 	c #8B8B8B",
"5 	c #373737",
"6 	c #5A5A5A",
"7 	c #2F2F2F",
"8 	c #262626",
"9 	c #383838",
"0 	c #838383",
"a 	c #717171",
"b 	c #474747",
"c 	c #484848",
"d 	c #313131",
"e 	c #5A0E77",
"f 	c #5A0D76",
"g 	c #A9A9A9",
"h 	c #B7B7B7",
"i 	c #B8B8B8",
"j 	c #B3B3B3",
"k 	c #B2B2B2",
"l 	c #7D7D7D",
"m 	c #AAAAAA",
"n 	c #ABABAB",
"o 	c #727272",
"p 	c #858585",
"q 	c #7E7E7E",
"r 	c #363636",
"s 	c #C4C4C4",
"t 	c #2D2D2D",
"u 	c #616161",
"v 	c #606060",
"w 	c #8E8E8E",
"x 	c #565656",
"y 	c #555555",
"z 	c #545454",
"A 	c #535353",
"B 	c #626262",
"C 	c #C1C1C1",
"D 	c #C0C0C0",
"E 	c #303030",
"F 	c #222222",
"G 	c #232323",
"H 	c #BABABA",
"I 	c #B9B9B9",
"J 	c #3E3E3E",
"K 	c #212121",
"L 	c #1E1E1E",
"M 	c #C5C5C5",
"N 	c #1B1B1B",
"O 	c #696969",
"P 	c #787878",
"Q 	c #797979",
"R 	c #959595",
"S 	c #9B9B9B",
"T 	c #A0A0A0",
"U 	c #7A7A7A",
"V 	c #7B7B7B",
"W 	c #707070",
"X 	c #A8A8A8",
"Y 	c #B6B6B6",
"Z 	c #636363",
"` 	c #CCCCCC",
" .	c #CBCBCB",
"..	c #A4A4A4",
"+.	c #929292",
"@.	c #808080",
"#.	c #898989",
"$.	c #353535",
"%.	c #919191",
"&.	c #767676",
"*.	c #434343",
"=.	c #444444",
"-.	c #A2A2A2",
";.	c #5D5D5D",
">.	c #8C8C8C",
",.	c #3C3C3C",
"'.	c #3D3D3D",
").	c #4D4D4D",
"!.	c #4E4E4E",
"~.	c #292929",
"{.	c #282828",
"].	c #AFAFAF",
"^.	c #575757",
"/.	c #585858",
"(.	c #464646",
"_.	c #4A4A4A",
":.	c #4B4B4B",
"                                                                                                ",
"  . . . . . . . . + + + @ @ @ # # # $ $ $ % % % % % & . . . . . . . . . * * * % % & = = = - -   ",
"  . . . . . . . . + + + @ @ @ # # # ; ; ; & & & % % & . . . . . . . . . * * * % % % = = = - -   ",
"  . . . . . > , > # # # ' ) ) % % & . . . . . . & % % # # # ! ! ~ # # # { { { ] ^ ] / / ( _ _   ",
"  . . . . . , , , # # # ) : : % % & . . . . . . & % % # # # ! ! ! # # # { { { ] ^ ^ / / / _ _   ",
"  . . . . . > , , # # # ) : ) % & & . . . . . . % % % # # # ! ! ! # # # { { { ] ^ ] / / / _ _   ",
"  < < # # # # # # [ [ [ & & & . . . . . . } } } | 1 1 2 2 3 4 4 4 # # # 5 5 5 % % % % % % } }   ",
"  6 6 # # # # # # [ 7 7 & & 6 . . . . . . } } } | 1 1 8 8 2 4 4 4 # # # 5 9 9 % % % % % % } }   ",
"  6 6 # # # # # # [ 7 [ & 6 6 . . . . . . 0 } } 1 1 1 8 8 2 4 4 4 # # # 5 9 9 % % % & & & } }   ",
"  a a b c c d d d % % % e e e f f f f f f f f f f f f f f f f f f f f f % % % g g g h h i 6 &   ",
"  a a c c c | | | % % & e e e f f f f f f f f f f f f f f f f f f f f f % % % g g g h h h 6 &   ",
"  a a b b b | | d % % & e e e f f f f f f f f f f f f f f f f f f f f f & % % g g g h h h 6 &   ",
"  j j . . k % % % f f f f f f f f f f f f f f f f f f f f f f f f f f f f f f l l l m m m % %   ",
"  j j . . . & % % f f f f f f f f f f f f f f f f f f f f f f f f f f f f f f l l l m m m % %   ",
"  j j . . . & % % f f f f f f f f f f f f f f f f f f f f f f f f f f f f f f l l l m m n % %   ",
"  o o p p } q l l f f f f f f f f f # # # 5 5 r g g g s s s f f f f f f f f f & & & t [ [ ] ^   ",
"  o o p p p l l l f f f f f f f f f # # # r 5 r g g g s s s f f f f f f f f f & & & 7 7 7 ^ ^   ",
"  o o p p p l l l f f f f f f f f f # # # r 5 r g g g s s s f f f f f f f f f & & & [ [ [ ^ ^   ",
"  # # # # # # # # f f f f f f f f f 5 5 5 $ $ $ u u v w w w f f f f f f f f f # # # q q q x x   ",
"  # # # # # # # # f f f f f f f f f 9 9 9 $ $ $ u u u w w w f f f f f f f f f # # # q q q x x   ",
"  # # # # # # # # f f f f f f f f f 9 9 9 $ $ $ u u u w w w f f f f f f f f f # # # q q q y y   ",
"  # # # # # 7 7 7 y z A f f f f f f f f f f f f f f f f f f f f f f f f # # # 5 5 5 B B u C D   ",
"  # # # # # 7 E E z z A f f f f f f f f f f f f f f f f f f f f f f f f # # # 5 9 9 B B u D D   ",
"  # # # # # 7 E E A A A f f f f f f f f f f f f f f f f f f f f f f f f # # # 9 9 9 u u u D D   ",
"  l l F G G % % % H I I f f f f f f f f f f f f f f f f f f f f f f f f J J J K K L M s s . .   ",
"  l l G 3 3 % % & I I I f f f f f f f f f f f f f f f f f f f f f f f f J J J K K L s s s . .   ",
"  l l G 3 G % & & I I I f f f f f f f f f f f f f f f f f f f f f f f f J J J L L N M s s . .   ",
"  4 4 % % % . . . f f f f f f f f f . . . , O , I I I { { { f f f f f f f f f C D C q # # # #   ",
"  4 4 % % & . . . f f f f f f f f f . . . O O O I I I { { { f f f f f f f f f D D D # # # # #   ",
"  4 4 & % & . . . f f f f f f f f f . . . , O , I I I { { { f f f f f f f f f C D D # # # # #   ",
"  % & + + + P Q Q f f f f f f f f f . . . R R R # # # # # # f f f f f f f f f % & & S S S 0 }   ",
"  % % + + + Q Q Q f f f f f f f f f . . . R R R # # # # # # f f f f f f f f f % % % S S S } }   ",
"  % % + + + Q Q Q f f f f f f f f f . . . R R R # # # # # # f f f f f f f f f % % % S S S } }   ",
"  % % % % & T T T f f f f f f f f f f f f f f f f f f f f f f f f f f f f f f & % % % % % 5 5   ",
"  % % % % % T T T f f f f f f f f f f f f f f f f f f f f f f f f f f f f f f & % % % % % 9 9   ",
"  & & & & & T T T f f f f f f f f f f f f f f f f f f f f f f f f f f f f f f & % % % % % 9 9   ",
"  . . . . k r 5 5 9 9 9 f f f f f f f f f f f f f f f f f f f f f f f f # # # # # # % % % % %   ",
"  . . . . . 5 9 9 9 9 9 f f f f f f f f f f f f f f f f f f f f f f f f # # # # # # % % % % %   ",
"  . . . . . r 9 9 5 5 5 f f f f f f f f f f f f f f f f f f f f f f f f # # # # # # % % % % %   ",
"  i i U V U a W W i h h X X X Y Y h % % % 5 5 5 Z Z B `  . .......# # # +.+.+.# # @.! #.#.$.r   ",
"  i i V V V W W W h h h X X X Y Y Y & % % 9 9 9 Z Z B  . . .......# # # +.+.+.# # # #.#.#.$.r   ",
"  i i V V V W W W h h h X X X Y Y Y & % % 9 9 9 B Z B `  . .......# # # %.+.+.# # # #.#.#.r r   ",
"  &.&.#.#.#.*.=.*.-.-.-.} } 0 U Q Q q q q % % % ;.% % & & & # # # { { { >.4 4 @ @ @ ,.,.,.9 9   ",
"  &.&.#.#.#.=.=.*.-.-.-.} } } Q Q Q q q q % % % % % % % % % # # # { { { 4 4 4 @ @ @ ,.'.'.9 9   ",
"  &.&.#.#.#.*.=.*.-.-.-.} } } Q Q Q q q q % % % & & & % % % # # # { { { 4 4 4 @ @ @ ,.'.'.9 9   ",
"  P P &.&.&.o o o ).).!.~.~.~.{.{.{.9 9 5 % % & ].].].* * * ^.^./.;.; ; (.b b _.:.:.'.'.'.B B   ",
"  P P &.&.&.o o o !.!.!.' ' ' ~.~.~.9 9 9 % % & ].].].* * * ^.^.^.; ; ; b b b :.:.:.'.'.'.B B   ",
"                                                                                                "};
