/* XPM */
static char * tile1selected_xpm[] = {
"48 48 125 2",
"  	c #FAE04E",
". 	c #B1B1B1",
"+ 	c #A7A6A7",
"@ 	c #949494",
"# 	c #7F7F7F",
"$ 	c #5F5F5F",
"% 	c #5C5C5C",
"& 	c #5B5B5B",
"* 	c #818181",
"= 	c #B4B4B4",
"- 	c #8F8F8F",
"; 	c #5E5E5E",
"> 	c #676767",
", 	c #686868",
"' 	c #2A2A2A",
") 	c #2B2B2B",
"! 	c #888888",
"~ 	c #878787",
"{ 	c #909090",
"] 	c #393939",
"^ 	c #3A3A3A",
"/ 	c #6F6F6F",
"( 	c #6E6E6E",
"_ 	c #9D9D9D",
": 	c #2C2C2C",
"< 	c #595959",
"[ 	c #2E2E2E",
"} 	c #848484",
"| 	c #323232",
"1 	c #333333",
"2 	c #252525",
"3 	c #242424",
"4 	c #8B8B8B",
"5 	c #373737",
"6 	c #5A5A5A",
"7 	c #2F2F2F",
"8 	c #262626",
"9 	c #383838",
"0 	c #838383",
"a 	c #717171",
"b 	c #474747",
"c 	c #484848",
"d 	c #313131",
"e 	c #B9B9B9",
"f 	c #B8B8B8",
"g 	c #0000FF",
"h 	c #3C3C3C",
"i 	c #3D3D3D",
"j 	c #A9A9A9",
"k 	c #B7B7B7",
"l 	c #B3B3B3",
"m 	c #B2B2B2",
"n 	c #858585",
"o 	c #A4A4A4",
"p 	c #9F9F9F",
"q 	c #9E9E9E",
"r 	c #9C9C9C",
"s 	c #525252",
"t 	c #525152",
"u 	c #7D7D7D",
"v 	c #AAAAAA",
"w 	c #515051",
"x 	c #ABABAB",
"y 	c #727272",
"z 	c #7E7E7E",
"A 	c #797979",
"B 	c #C4C4C4",
"C 	c #787878",
"D 	c #636363",
"E 	c #626262",
"F 	c #2D2D2D",
"G 	c #8E8E8E",
"H 	c #A3A3A3",
"I 	c #565656",
"J 	c #555555",
"K 	c #545454",
"L 	c #535353",
"M 	c #4C4C4C",
"N 	c #363636",
"O 	c #353535",
"P 	c #616161",
"Q 	c #C1C1C1",
"R 	c #C0C0C0",
"S 	c #303030",
"T 	c #222222",
"U 	c #232323",
"V 	c #BABABA",
"W 	c #494949",
"X 	c #3E3E3E",
"Y 	c #212121",
"Z 	c #1E1E1E",
"` 	c #C5C5C5",
" .	c #1B1B1B",
"..	c #3B3B3B",
"+.	c #929292",
"@.	c #5D5D5D",
"#.	c #808080",
"$.	c #868686",
"%.	c #9B9B9B",
"&.	c #A0A0A0",
"*.	c #ACACAC",
"=.	c #7A7A7A",
"-.	c #7B7B7B",
";.	c #707070",
">.	c #A8A8A8",
",.	c #B6B6B6",
"'.	c #CCCCCC",
").	c #CBCBCB",
"!.	c #898989",
"~.	c #919191",
"{.	c #767676",
"].	c #434343",
"^.	c #444444",
"/.	c #A2A2A2",
"(.	c #8C8C8C",
"_.	c #4D4D4D",
":.	c #4E4E4E",
"<.	c #292929",
"[.	c #282828",
"}.	c #AFAFAF",
"|.	c #575757",
"1.	c #585858",
"2.	c #464646",
"3.	c #4A4A4A",
"4.	c #4B4B4B",
"                                                                                                ",
"  . . . . . . . . + + + @ @ @ # # # $ $ $ % % % % % & . . . . . . . . . * * * % % & = = = - -   ",
"  . . . . . . . . + + + @ @ @ # # # ; ; ; & & & % % & . . . . . . . . . * * * % % % = = = - -   ",
"  . . . . . > , > # # # ' ) ) % % & . . . . . . & % % # # # ! ! ~ # # # { { { ] ^ ] / / ( _ _   ",
"  . . . . . , , , # # # ) : : % % & . . . . . . & % % # # # ! ! ! # # # { { { ] ^ ^ / / / _ _   ",
"  . . . . . > , , # # # ) : ) % & & . . . . . . % % % # # # ! ! ! # # # { { { ] ^ ] / / / _ _   ",
"  < < # # # # # # [ [ [ & & & . . . . . . } } } | 1 1 2 2 3 4 4 4 # # # 5 5 5 % % % % % % } }   ",
"  6 6 # # # # # # [ 7 7 & & 6 . . . . . . } } } | 1 1 8 8 2 4 4 4 # # # 5 9 9 % % % % % % } }   ",
"  6 6 # # # # # # [ 7 [ & 6 6 . . . . . . 0 } } 1 1 1 8 8 2 4 4 4 # # # 5 9 9 % % % & & & } }   ",
"  a a b c c d d d % % % e f f > , > @ @ @ g g g g g g & & & 5 5 9 h i h % % % j j j k k f 6 &   ",
"  a a c c c | | | % % & f f f , , , @ @ @ g g g g g g & & & 9 9 9 i i i % % % j j j k k k 6 &   ",
"  a a b b b | | d % % & f f f > , , @ @ @ g g g g g g & & & 5 5 5 h h h & % % j j j k k k 6 &   ",
"  l l . . m % % % % % & m . . n n n g g g g g g g g g o o o p q q r r r s t t u u u v v v % %   ",
"  l l . . . & % % % % & . . . n n n g g g g g g g g g o o o q q q r r r t t t u u u v v v % %   ",
"  l l . . . & % % % % & . . . n n n g g g g g g g g g o o o q q q r r r w t t u u u v v x % %   ",
"  y y n n } z u u % % % A A A g g g g g g g g g g g g B B B C A A ! ! ! D D E & & & F [ [ ] ^   ",
"  y y n n n u u u % % % A A A g g g g g g g g g g g g B B B A A A ! ! ! D D D & & & 7 7 7 ^ ^   ",
"  y y n n n u u u % % % A A A g g g g g g g g g g g g B B B C A A ! ! ! D D D & & & [ [ [ ^ ^   ",
"  # # # # # # # # % % % g g g g g g g g g g g g g g g G G G H H H # # # y y y # # # z z z I I   ",
"  # # # # # # # # % % % g g g g g g g g g g g g g g g G G G H H H # # # y y y # # # z z z I I   ",
"  # # # # # # # # & % % g g g g g g g g g g g g g g g G G G H H H # # # y y y # # # z z z J J   ",
"  # # # # # 7 7 7 J K L v v x . . m g g g g g g g g g M M M N N O ! ! ! # # # 5 5 5 E E P Q R   ",
"  # # # # # 7 S S K K L v v v . . . g g g g g g g g g M M M 5 5 N ! ! ! # # # 5 9 9 E E P R R   ",
"  # # # # # 7 S S L L L x v v . . . g g g g g g g g g M M M 5 5 N ! ! ! # # # 9 9 9 P P P R R   ",
"  u u T U U % % % V e e . . . z # # g g g g g g g g g z z z $ $ $ W W c X X X Y Y Z ` B B . .   ",
"  u u U 3 3 % % & e e e . . . # # # g g g g g g g g g z z z $ $ $ W W W X X X Y Y Z B B B . .   ",
"  u u U 3 U % & & e e e . . . # # # g g g g g g g g g z z z $ $ $ W W W X X X Z Z  .` B B . .   ",
"  4 4 % % % . . . = = = ! ! ! ^ ..] g g g g g g g g g { { { +.+.+.% % % ; ; @.Q R Q z # # # #   ",
"  4 4 % % & . . . = = = ! ! ! ^ ..^ g g g g g g g g g { { { +.+.+.% % % ; ; @.R R R # # # # #   ",
"  4 4 & % & . . . = = = ~ ! ! ^ ..^ g g g g g g g g g { { { +.+.+.% % % ; ; @.Q R R # # # # #   ",
"  % & + + + C A A z # # #.# # 1 1 | g g g g g g g g g # # # $.$.$.5 9 9 $ $ $ % & & %.%.%.0 }   ",
"  % % + + + A A A # # # # # # | 1 | g g g g g g g g g # # # $.$.$.5 9 9 $ $ $ % % % %.%.%.} }   ",
"  % % + + + A A A # # # # # # 1 1 | g g g g g g g g g # # # $.$.$.5 9 9 $ $ $ % % % %.%.%.} }   ",
"  % % % % & &.&.&.u u u g g g g g g g g g g g g g g g g g g g g g t t w *.*.*.& % % % % % 5 5   ",
"  % % % % % &.&.&.u u u g g g g g g g g g g g g g g g g g g g g g t t w *.*.*.& % % % % % 9 9   ",
"  & & & & & &.&.&.u u u g g g g g g g g g g g g g g g g g g g g g t w w *.*.*.& % % % % % 9 9   ",
"  . . . . m N 5 5 9 9 9 g g g g g g g g g g g g g g g g g g g g g &.&.&.# # # # # # % % % % %   ",
"  . . . . . 5 9 9 9 9 9 g g g g g g g g g g g g g g g g g g g g g &.&.&.# # # # # # % % % % %   ",
"  . . . . . N 9 9 5 5 5 g g g g g g g g g g g g g g g g g g g g g &.&.&.# # # # # # % % % % %   ",
"  f f =.-.=.a ;.;.f k k >.>.>.,.,.k % % % 5 5 5 D D E '.).).o o o # # # +.+.+.# # #.! !.!.O N   ",
"  f f -.-.-.;.;.;.k k k >.>.>.,.,.,.& % % 9 9 9 D D E ).).).o o o # # # +.+.+.# # # !.!.!.O N   ",
"  f f -.-.-.;.;.;.k k k >.>.>.,.,.,.& % % 9 9 9 E D E '.).).o o o # # # ~.+.+.# # # !.!.!.N N   ",
"  {.{.!.!.!.].^.]./././.} } 0 =.A A z z z % % % @.% % & & & # # # { { { (.4 4 @ @ @ h h h 9 9   ",
"  {.{.!.!.!.^.^.]./././.} } } A A A z z z % % % % % % % % % # # # { { { 4 4 4 @ @ @ h i i 9 9   ",
"  {.{.!.!.!.].^.]./././.} } } A A A z z z % % % & & & % % % # # # { { { 4 4 4 @ @ @ h i i 9 9   ",
"  C C {.{.{.y y y _._.:.<.<.<.[.[.[.9 9 5 % % & }.}.}.* * * |.|.1.@.; ; 2.b b 3.4.4.i i i E E   ",
"  C C {.{.{.y y y :.:.:.' ' ' <.<.<.9 9 9 % % & }.}.}.* * * |.|.|.; ; ; b b b 4.4.4.i i i E E   ",
"                                                                                                "};
