/* XPM */
static char * tile7_xpm[] = {
"48 48 123 2",
"  	c #000000",
". 	c #B1B1B1",
"+ 	c #A7A6A7",
"@ 	c #949494",
"# 	c #7F7F7F",
"$ 	c #5F5F5F",
"% 	c #5C5C5C",
"& 	c #5B5B5B",
"* 	c #818181",
"= 	c #B4B4B4",
"- 	c #8F8F8F",
"; 	c #5E5E5E",
"> 	c #676767",
", 	c #686868",
"' 	c #2A2A2A",
") 	c #2B2B2B",
"! 	c #888888",
"~ 	c #878787",
"{ 	c #909090",
"] 	c #393939",
"^ 	c #3A3A3A",
"/ 	c #6F6F6F",
"( 	c #6E6E6E",
"_ 	c #9D9D9D",
": 	c #2C2C2C",
"< 	c #595959",
"[ 	c #2E2E2E",
"} 	c #848484",
"| 	c #323232",
"1 	c #333333",
"2 	c #252525",
"3 	c #242424",
"4 	c #8B8B8B",
"5 	c #373737",
"6 	c #5A5A5A",
"7 	c #2F2F2F",
"8 	c #262626",
"9 	c #383838",
"0 	c #838383",
"a 	c #717171",
"b 	c #474747",
"c 	c #484848",
"d 	c #313131",
"e 	c #A9A9A9",
"f 	c #B7B7B7",
"g 	c #B8B8B8",
"h 	c #B3B3B3",
"i 	c #B2B2B2",
"j 	c #7D7D7D",
"k 	c #AAAAAA",
"l 	c #ABABAB",
"m 	c #727272",
"n 	c #858585",
"o 	c #7E7E7E",
"p 	c #797979",
"q 	c #8A8A8A",
"r 	c #363636",
"s 	c #C4C4C4",
"t 	c #2D2D2D",
"u 	c #616161",
"v 	c #606060",
"w 	c #8E8E8E",
"x 	c #565656",
"y 	c #555555",
"z 	c #545454",
"A 	c #535353",
"B 	c #535253",
"C 	c #525152",
"D 	c #626262",
"E 	c #C1C1C1",
"F 	c #C0C0C0",
"G 	c #303030",
"H 	c #515051",
"I 	c #222222",
"J 	c #232323",
"K 	c #BABABA",
"L 	c #B9B9B9",
"M 	c #6D6D6D",
"N 	c #A8A8A8",
"O 	c #3E3E3E",
"P 	c #212121",
"Q 	c #1E1E1E",
"R 	c #C5C5C5",
"S 	c #6C6C6C",
"T 	c #1B1B1B",
"U 	c #3B3B3B",
"V 	c #696969",
"W 	c #5D5D5D",
"X 	c #787878",
"Y 	c #808080",
"Z 	c #959595",
"` 	c #9B9B9B",
" .	c #A0A0A0",
"..	c #ACACAC",
"+.	c #636363",
"@.	c #7A7A7A",
"#.	c #7B7B7B",
"$.	c #707070",
"%.	c #B6B6B6",
"&.	c #CCCCCC",
"*.	c #CBCBCB",
"=.	c #A4A4A4",
"-.	c #929292",
";.	c #898989",
">.	c #353535",
",.	c #919191",
"'.	c #767676",
").	c #434343",
"!.	c #444444",
"~.	c #A2A2A2",
"{.	c #8C8C8C",
"].	c #3C3C3C",
"^.	c #3D3D3D",
"/.	c #4D4D4D",
"(.	c #4E4E4E",
"_.	c #292929",
":.	c #282828",
"<.	c #AFAFAF",
"[.	c #575757",
"}.	c #585858",
"|.	c #464646",
"1.	c #4A4A4A",
"2.	c #4B4B4B",
"                                                                                                ",
"  . . . . . . . . + + + @ @ @ # # # $ $ $ % % % % % & . . . . . . . . . * * * % % & = = = - -   ",
"  . . . . . . . . + + + @ @ @ # # # ; ; ; & & & % % & . . . . . . . . . * * * % % % = = = - -   ",
"  . . . . . > , > # # # ' ) ) % % & . . . . . . & % % # # # ! ! ~ # # # { { { ] ^ ] / / ( _ _   ",
"  . . . . . , , , # # # ) : : % % & . . . . . . & % % # # # ! ! ! # # # { { { ] ^ ^ / / / _ _   ",
"  . . . . . > , , # # # ) : ) % & & . . . . . . % % % # # # ! ! ! # # # { { { ] ^ ] / / / _ _   ",
"  < < # # # # # # [ [ [ & & & . . . . . . } } } | 1 1 2 2 3 4 4 4 # # # 5 5 5 % % % % % % } }   ",
"  6 6 # # # # # # [ 7 7 & & 6 . . . . . . } } } | 1 1 8 8 2 4 4 4 # # # 5 9 9 % % % % % % } }   ",
"  6 6 # # # # # # [ 7 [ & 6 6 . . . . . . 0 } } 1 1 1 8 8 2 4 4 4 # # # 5 9 9 % % % & & & } }   ",
"  a a b c c d d d                                                             e e e f f g 6 &   ",
"  a a c c c | | |                                                             e e e f f f 6 &   ",
"  a a b b b | | d                                                             e e e f f f 6 &   ",
"  h h . . i % % %                                                             j j j k k k % %   ",
"  h h . . . & % %                                                             j j j k k k % %   ",
"  h h . . . & % %                                                             j j j k k l % %   ",
"  m m n n } o j j % % % p p p q 4 4 # # # 5 5 r e e e s s s                   & & & t [ [ ] ^   ",
"  m m n n n j j j % % % p p p 4 4 4 # # # r 5 r e e e s s s                   & & & 7 7 7 ^ ^   ",
"  m m n n n j j j % % % p p p 4 4 4 # # # r 5 r e e e s s s                   & & & [ [ [ ^ ^   ",
"  # # # # # # # # % % % , , , 5 5 5 5 5 5 $ $ $ u u v w w w                   # # # o o o x x   ",
"  # # # # # # # # % % % , , , 9 9 9 9 9 9 $ $ $ u u u w w w                   # # # o o o x x   ",
"  # # # # # # # # & % % , , , 5 5 5 9 9 9 $ $ $ u u u w w w                   # # # o o o y y   ",
"  # # # # # 7 7 7 y z A k k l . . i % % & B C C ; ; ;                   # # # 5 5 5 D D u E F   ",
"  # # # # # 7 G G z z A k k k . . . & % % C C C ; ; ;                   # # # 5 9 9 D D u F F   ",
"  # # # # # 7 G G A A A l k k . . . & % % H H H ; ; ;                   # # # 9 9 9 u u u F F   ",
"  j j I J J % % % K L L . . . o # # M M M . . . e N N                   O O O P P Q R s s . .   ",
"  j j J 3 3 % % & L L L . . . # # # M M M . . . N N N                   O O O P P Q s s s . .   ",
"  j j J 3 J % & & L L L . . . # # # M M S . . . N N N                   O O O Q Q T R s s . .   ",
"  4 4 % % % . . . = = = ! ! ! ^ U ] . . . , V ,                   % % % ; ; W E F E o # # # #   ",
"  4 4 % % & . . . = = = ! ! ! ^ U ^ . . . V V V                   % % % ; ; W F F F # # # # #   ",
"  4 4 & % & . . . = = = ~ ! ! ^ U ^ . . . , V ,                   % % % ; ; W E F F # # # # #   ",
"  % & + + + X p p o # # Y # # 1 1 | . . . Z Z Z                   5 9 9 $ $ $ % & & ` ` ` 0 }   ",
"  % % + + + p p p # # # # # # | 1 | . . . Z Z Z                   5 9 9 $ $ $ % % % ` ` ` } }   ",
"  % % + + + p p p # # # # # # 1 1 | . . . Z Z Z                   5 9 9 $ $ $ % % % ` ` ` } }   ",
"  % % % % &  . . .j j j / / / 5 9 9 # # #                   5 5 5 C C H ......& % % % % % 5 5   ",
"  % % % % %  . . .j j j / / / 9 9 5 # # #                   5 9 9 C C H ......& % % % % % 9 9   ",
"  & & & & &  . . .j j j / / / 9 9 5 # # #                   r 5 5 C H H ......& % % % % % 9 9   ",
"  . . . . i r 5 5 9 9 9 9 9 9 9 9 9 +.+.+.                  i . .  . . .# # # # # # % % % % %   ",
"  . . . . . 5 9 9 9 9 9 9 9 9 9 9 9 +.+.+.                  . . .  . . .# # # # # # % % % % %   ",
"  . . . . . r 9 9 5 5 5 5 5 5 5 5 r +.+.+.                  . . .  . . .# # # # # # % % % % %   ",
"  g g @.#.@.a $.$.g f f N N N %.%.f % % % 5 5 5 +.+.D &.*.*.=.=.=.# # # -.-.-.# # Y ! ;.;.>.r   ",
"  g g #.#.#.$.$.$.f f f N N N %.%.%.& % % 9 9 9 +.+.D *.*.*.=.=.=.# # # -.-.-.# # # ;.;.;.>.r   ",
"  g g #.#.#.$.$.$.f f f N N N %.%.%.& % % 9 9 9 D +.D &.*.*.=.=.=.# # # ,.-.-.# # # ;.;.;.r r   ",
"  '.'.;.;.;.).!.).~.~.~.} } 0 @.p p o o o % % % W % % & & & # # # { { { {.4 4 @ @ @ ].].].9 9   ",
"  '.'.;.;.;.!.!.).~.~.~.} } } p p p o o o % % % % % % % % % # # # { { { 4 4 4 @ @ @ ].^.^.9 9   ",
"  '.'.;.;.;.).!.).~.~.~.} } } p p p o o o % % % & & & % % % # # # { { { 4 4 4 @ @ @ ].^.^.9 9   ",
"  X X '.'.'.m m m /./.(._._._.:.:.:.9 9 5 % % & <.<.<.* * * [.[.}.W ; ; |.b b 1.2.2.^.^.^.D D   ",
"  X X '.'.'.m m m (.(.(.' ' ' _._._.9 9 9 % % & <.<.<.* * * [.[.[.; ; ; b b b 2.2.2.^.^.^.D D   ",
"                                                                                                "};
