/* XPM */
static char * tile4selected_xpm[] = {
"48 48 116 2",
"  	c #FAE04E",
". 	c #B1B1B1",
"+ 	c #A7A6A7",
"@ 	c #949494",
"# 	c #7F7F7F",
"$ 	c #5F5F5F",
"% 	c #5C5C5C",
"& 	c #5B5B5B",
"* 	c #818181",
"= 	c #B4B4B4",
"- 	c #8F8F8F",
"; 	c #5E5E5E",
"> 	c #676767",
", 	c #686868",
"' 	c #2A2A2A",
") 	c #2B2B2B",
"! 	c #888888",
"~ 	c #878787",
"{ 	c #909090",
"] 	c #393939",
"^ 	c #3A3A3A",
"/ 	c #6F6F6F",
"( 	c #6E6E6E",
"_ 	c #9D9D9D",
": 	c #2C2C2C",
"< 	c #595959",
"[ 	c #2E2E2E",
"} 	c #848484",
"| 	c #323232",
"1 	c #333333",
"2 	c #252525",
"3 	c #242424",
"4 	c #8B8B8B",
"5 	c #373737",
"6 	c #5A5A5A",
"7 	c #2F2F2F",
"8 	c #262626",
"9 	c #383838",
"0 	c #838383",
"a 	c #717171",
"b 	c #474747",
"c 	c #484848",
"d 	c #313131",
"e 	c #B9B9B9",
"f 	c #B8B8B8",
"g 	c #000080",
"h 	c #A9A9A9",
"i 	c #B7B7B7",
"j 	c #B3B3B3",
"k 	c #B2B2B2",
"l 	c #525252",
"m 	c #525152",
"n 	c #7D7D7D",
"o 	c #AAAAAA",
"p 	c #515051",
"q 	c #ABABAB",
"r 	c #727272",
"s 	c #858585",
"t 	c #7E7E7E",
"u 	c #363636",
"v 	c #636363",
"w 	c #626262",
"x 	c #2D2D2D",
"y 	c #616161",
"z 	c #606060",
"A 	c #565656",
"B 	c #555555",
"C 	c #C1C1C1",
"D 	c #C0C0C0",
"E 	c #303030",
"F 	c #222222",
"G 	c #232323",
"H 	c #212121",
"I 	c #1E1E1E",
"J 	c #C5C5C5",
"K 	c #C4C4C4",
"L 	c #1B1B1B",
"M 	c #3B3B3B",
"N 	c #696969",
"O 	c #5D5D5D",
"P 	c #787878",
"Q 	c #797979",
"R 	c #808080",
"S 	c #959595",
"T 	c #9B9B9B",
"U 	c #A0A0A0",
"V 	c #929292",
"W 	c #ACACAC",
"X 	c #464646",
"Y 	c #7A7A7A",
"Z 	c #7B7B7B",
"` 	c #707070",
" .	c #A8A8A8",
"..	c #B6B6B6",
"+.	c #CCCCCC",
"@.	c #CBCBCB",
"#.	c #A4A4A4",
"$.	c #898989",
"%.	c #353535",
"&.	c #919191",
"*.	c #767676",
"=.	c #434343",
"-.	c #444444",
";.	c #A2A2A2",
">.	c #8C8C8C",
",.	c #3C3C3C",
"'.	c #3D3D3D",
").	c #4D4D4D",
"!.	c #4E4E4E",
"~.	c #292929",
"{.	c #282828",
"].	c #AFAFAF",
"^.	c #575757",
"/.	c #585858",
"(.	c #4A4A4A",
"_.	c #4B4B4B",
"                                                                                                ",
"  . . . . . . . . + + + @ @ @ # # # $ $ $ % % % % % & . . . . . . . . . * * * % % & = = = - -   ",
"  . . . . . . . . + + + @ @ @ # # # ; ; ; & & & % % & . . . . . . . . . * * * % % % = = = - -   ",
"  . . . . . > , > # # # ' ) ) % % & . . . . . . & % % # # # ! ! ~ # # # { { { ] ^ ] / / ( _ _   ",
"  . . . . . , , , # # # ) : : % % & . . . . . . & % % # # # ! ! ! # # # { { { ] ^ ^ / / / _ _   ",
"  . . . . . > , , # # # ) : ) % & & . . . . . . % % % # # # ! ! ! # # # { { { ] ^ ] / / / _ _   ",
"  < < # # # # # # [ [ [ & & & . . . . . . } } } | 1 1 2 2 3 4 4 4 # # # 5 5 5 % % % % % % } }   ",
"  6 6 # # # # # # [ 7 7 & & 6 . . . . . . } } } | 1 1 8 8 2 4 4 4 # # # 5 9 9 % % % % % % } }   ",
"  6 6 # # # # # # [ 7 [ & 6 6 . . . . . . 0 } } 1 1 1 8 8 2 4 4 4 # # # 5 9 9 % % % & & & } }   ",
"  a a b c c d d d % % % e f f g g g g g g g g g 5 9 9 g g g g g g g g g % % % h h h i i f 6 &   ",
"  a a c c c | | | % % & f f f g g g g g g g g g 5 9 9 g g g g g g g g g % % % h h h i i i 6 &   ",
"  a a b b b | | d % % & f f f g g g g g g g g g 5 9 9 g g g g g g g g g & % % h h h i i i 6 &   ",
"  j j . . k % % % % % & k . . g g g g g g g g g % % % g g g g g g g g g l m m n n n o o o % %   ",
"  j j . . . & % % % % & . . . g g g g g g g g g % % % g g g g g g g g g m m m n n n o o o % %   ",
"  j j . . . & % % % % & . . . g g g g g g g g g % % & g g g g g g g g g p m m n n n o o q % %   ",
"  r r s s } t n n % % % g g g g g g g g g 5 5 u h h h g g g g g g g g g v v w & & & x [ [ ] ^   ",
"  r r s s s n n n % % % g g g g g g g g g u 5 u h h h g g g g g g g g g v v v & & & 7 7 7 ^ ^   ",
"  r r s s s n n n % % % g g g g g g g g g u 5 u h h h g g g g g g g g g v v v & & & [ [ [ ^ ^   ",
"  # # # # # # # # % % % g g g g g g g g g $ $ $ y y z g g g g g g g g g r r r # # # t t t A A   ",
"  # # # # # # # # % % % g g g g g g g g g $ $ $ y y y g g g g g g g g g r r r # # # t t t A A   ",
"  # # # # # # # # & % % g g g g g g g g g $ $ $ y y y g g g g g g g g g r r r # # # t t t B B   ",
"  # # # # # 7 7 7 g g g g g g g g g g g g g g g g g g g g g g g g g g g g g g 5 5 5 w w y C D   ",
"  # # # # # 7 E E g g g g g g g g g g g g g g g g g g g g g g g g g g g g g g 5 9 9 w w y D D   ",
"  # # # # # 7 E E g g g g g g g g g g g g g g g g g g g g g g g g g g g g g g 9 9 9 y y y D D   ",
"  n n F G G % % % g g g g g g g g g g g g g g g g g g g g g g g g g g g g g g H H I J K K . .   ",
"  n n G 3 3 % % & g g g g g g g g g g g g g g g g g g g g g g g g g g g g g g H H I K K K . .   ",
"  n n G 3 G % & & g g g g g g g g g g g g g g g g g g g g g g g g g g g g g g I I L J K K . .   ",
"  4 4 % % % . . . = = = ! ! ! ^ M ] . . . , N , e e e g g g g g g g g g ; ; O C D C t # # # #   ",
"  4 4 % % & . . . = = = ! ! ! ^ M ^ . . . N N N e e e g g g g g g g g g ; ; O D D D # # # # #   ",
"  4 4 & % & . . . = = = ~ ! ! ^ M ^ . . . , N , e e e g g g g g g g g g ; ; O C D D # # # # #   ",
"  % & + + + P Q Q t # # R # # 1 1 | . . . S S S # # # g g g g g g g g g $ $ $ % & & T T T 0 }   ",
"  % % + + + Q Q Q # # # # # # | 1 | . . . S S S # # # g g g g g g g g g $ $ $ % % % T T T } }   ",
"  % % + + + Q Q Q # # # # # # 1 1 | . . . S S S # # # g g g g g g g g g $ $ $ % % % T T T } }   ",
"  % % % % & U U U n n n / / / 5 9 9 # # # * * * V V V g g g g g g g g g W W W & % % % % % 5 5   ",
"  % % % % % U U U n n n / / / 9 9 5 # # # * * * V V V g g g g g g g g g W W W & % % % % % 9 9   ",
"  & & & & & U U U n n n / / / 9 9 5 # # # * * * V V V g g g g g g g g g W W W & % % % % % 9 9   ",
"  . . . . k u 5 5 9 9 9 9 9 9 9 9 9 v v v # # # X X b g g g g g g g g g # # # # # # % % % % %   ",
"  . . . . . 5 9 9 9 9 9 9 9 9 9 9 9 v v v # # # b b b g g g g g g g g g # # # # # # % % % % %   ",
"  . . . . . u 9 9 5 5 5 5 5 5 5 5 u v v v # # # b b b g g g g g g g g g # # # # # # % % % % %   ",
"  f f Y Z Y a ` ` f i i  . . .....i % % % 5 5 5 v v w +.@.@.#.#.#.# # # V V V # # R ! $.$.%.u   ",
"  f f Z Z Z ` ` ` i i i  . . .......& % % 9 9 9 v v w @.@.@.#.#.#.# # # V V V # # # $.$.$.%.u   ",
"  f f Z Z Z ` ` ` i i i  . . .......& % % 9 9 9 w v w +.@.@.#.#.#.# # # &.V V # # # $.$.$.u u   ",
"  *.*.$.$.$.=.-.=.;.;.;.} } 0 Y Q Q t t t % % % O % % & & & # # # { { { >.4 4 @ @ @ ,.,.,.9 9   ",
"  *.*.$.$.$.-.-.=.;.;.;.} } } Q Q Q t t t % % % % % % % % % # # # { { { 4 4 4 @ @ @ ,.'.'.9 9   ",
"  *.*.$.$.$.=.-.=.;.;.;.} } } Q Q Q t t t % % % & & & % % % # # # { { { 4 4 4 @ @ @ ,.'.'.9 9   ",
"  P P *.*.*.r r r ).).!.~.~.~.{.{.{.9 9 5 % % & ].].].* * * ^.^./.O ; ; X b b (._._.'.'.'.w w   ",
"  P P *.*.*.r r r !.!.!.' ' ' ~.~.~.9 9 9 % % & ].].].* * * ^.^.^.; ; ; b b b _._._.'.'.'.w w   ",
"                                                                                                "};
