/* XPM */
static char * tile5selected_xpm[] = {
"48 48 114 2",
"  	c #FAE04E",
". 	c #B1B1B1",
"+ 	c #A7A6A7",
"@ 	c #949494",
"# 	c #7F7F7F",
"$ 	c #5F5F5F",
"% 	c #5C5C5C",
"& 	c #5B5B5B",
"* 	c #818181",
"= 	c #B4B4B4",
"- 	c #8F8F8F",
"; 	c #5E5E5E",
"> 	c #676767",
", 	c #686868",
"' 	c #2A2A2A",
") 	c #2B2B2B",
"! 	c #888888",
"~ 	c #878787",
"{ 	c #909090",
"] 	c #393939",
"^ 	c #3A3A3A",
"/ 	c #6F6F6F",
"( 	c #6E6E6E",
"_ 	c #9D9D9D",
": 	c #2C2C2C",
"< 	c #595959",
"[ 	c #2E2E2E",
"} 	c #848484",
"| 	c #323232",
"1 	c #333333",
"2 	c #252525",
"3 	c #242424",
"4 	c #8B8B8B",
"5 	c #373737",
"6 	c #5A5A5A",
"7 	c #2F2F2F",
"8 	c #262626",
"9 	c #383838",
"0 	c #838383",
"a 	c #717171",
"b 	c #474747",
"c 	c #484848",
"d 	c #313131",
"e 	c #800000",
"f 	c #A9A9A9",
"g 	c #B7B7B7",
"h 	c #B8B8B8",
"i 	c #B3B3B3",
"j 	c #B2B2B2",
"k 	c #7D7D7D",
"l 	c #AAAAAA",
"m 	c #ABABAB",
"n 	c #727272",
"o 	c #858585",
"p 	c #7E7E7E",
"q 	c #363636",
"r 	c #C4C4C4",
"s 	c #787878",
"t 	c #797979",
"u 	c #636363",
"v 	c #626262",
"w 	c #2D2D2D",
"x 	c #616161",
"y 	c #606060",
"z 	c #8E8E8E",
"A 	c #A3A3A3",
"B 	c #565656",
"C 	c #555555",
"D 	c #C1C1C1",
"E 	c #C0C0C0",
"F 	c #303030",
"G 	c #222222",
"H 	c #232323",
"I 	c #212121",
"J 	c #1E1E1E",
"K 	c #C5C5C5",
"L 	c #1B1B1B",
"M 	c #3B3B3B",
"N 	c #696969",
"O 	c #B9B9B9",
"P 	c #808080",
"Q 	c #959595",
"R 	c #9B9B9B",
"S 	c #A0A0A0",
"T 	c #7A7A7A",
"U 	c #7B7B7B",
"V 	c #707070",
"W 	c #A8A8A8",
"X 	c #B6B6B6",
"Y 	c #CCCCCC",
"Z 	c #CBCBCB",
"` 	c #A4A4A4",
" .	c #929292",
"..	c #898989",
"+.	c #353535",
"@.	c #919191",
"#.	c #767676",
"$.	c #434343",
"%.	c #444444",
"&.	c #A2A2A2",
"*.	c #5D5D5D",
"=.	c #8C8C8C",
"-.	c #3C3C3C",
";.	c #3D3D3D",
">.	c #4D4D4D",
",.	c #4E4E4E",
"'.	c #292929",
").	c #282828",
"!.	c #AFAFAF",
"~.	c #575757",
"{.	c #585858",
"].	c #464646",
"^.	c #4A4A4A",
"/.	c #4B4B4B",
"                                                                                                ",
"  . . . . . . . . + + + @ @ @ # # # $ $ $ % % % % % & . . . . . . . . . * * * % % & = = = - -   ",
"  . . . . . . . . + + + @ @ @ # # # ; ; ; & & & % % & . . . . . . . . . * * * % % % = = = - -   ",
"  . . . . . > , > # # # ' ) ) % % & . . . . . . & % % # # # ! ! ~ # # # { { { ] ^ ] / / ( _ _   ",
"  . . . . . , , , # # # ) : : % % & . . . . . . & % % # # # ! ! ! # # # { { { ] ^ ^ / / / _ _   ",
"  . . . . . > , , # # # ) : ) % & & . . . . . . % % % # # # ! ! ! # # # { { { ] ^ ] / / / _ _   ",
"  < < # # # # # # [ [ [ & & & . . . . . . } } } | 1 1 2 2 3 4 4 4 # # # 5 5 5 % % % % % % } }   ",
"  6 6 # # # # # # [ 7 7 & & 6 . . . . . . } } } | 1 1 8 8 2 4 4 4 # # # 5 9 9 % % % % % % } }   ",
"  6 6 # # # # # # [ 7 [ & 6 6 . . . . . . 0 } } 1 1 1 8 8 2 4 4 4 # # # 5 9 9 % % % & & & } }   ",
"  a a b c c d d d e e e e e e e e e e e e e e e e e e e e e e e e e e e e e e f f f g g h 6 &   ",
"  a a c c c | | | e e e e e e e e e e e e e e e e e e e e e e e e e e e e e e f f f g g g 6 &   ",
"  a a b b b | | d e e e e e e e e e e e e e e e e e e e e e e e e e e e e e e f f f g g g 6 &   ",
"  i i . . j % % % e e e e e e e e e e e e e e e e e e e e e e e e e e e e e e k k k l l l % %   ",
"  i i . . . & % % e e e e e e e e e e e e e e e e e e e e e e e e e e e e e e k k k l l l % %   ",
"  i i . . . & % % e e e e e e e e e e e e e e e e e e e e e e e e e e e e e e k k k l l m % %   ",
"  n n o o } p k k e e e e e e e e e # # # 5 5 q f f f r r r s t t ! ! ! u u v & & & w [ [ ] ^   ",
"  n n o o o k k k e e e e e e e e e # # # q 5 q f f f r r r t t t ! ! ! u u u & & & 7 7 7 ^ ^   ",
"  n n o o o k k k e e e e e e e e e # # # q 5 q f f f r r r s t t ! ! ! u u u & & & [ [ [ ^ ^   ",
"  # # # # # # # # e e e e e e e e e 5 5 5 $ $ $ x x y z z z A A A # # # n n n # # # p p p B B   ",
"  # # # # # # # # e e e e e e e e e 9 9 9 $ $ $ x x x z z z A A A # # # n n n # # # p p p B B   ",
"  # # # # # # # # e e e e e e e e e 9 9 9 $ $ $ x x x z z z A A A # # # n n n # # # p p p C C   ",
"  # # # # # 7 7 7 e e e e e e e e e e e e e e e e e e e e e e e e e e e # # # 5 5 5 v v x D E   ",
"  # # # # # 7 F F e e e e e e e e e e e e e e e e e e e e e e e e e e e # # # 5 9 9 v v x E E   ",
"  # # # # # 7 F F e e e e e e e e e e e e e e e e e e e e e e e e e e e # # # 9 9 9 x x x E E   ",
"  k k G H H % % % e e e e e e e e e e e e e e e e e e e e e e e e e e e e e e I I J K r r . .   ",
"  k k H 3 3 % % & e e e e e e e e e e e e e e e e e e e e e e e e e e e e e e I I J r r r . .   ",
"  k k H 3 H % & & e e e e e e e e e e e e e e e e e e e e e e e e e e e e e e J J L K r r . .   ",
"  4 4 % % % . . . = = = ! ! ! ^ M ] . . . , N , O O O { { { e e e e e e e e e D E D p # # # #   ",
"  4 4 % % & . . . = = = ! ! ! ^ M ^ . . . N N N O O O { { { e e e e e e e e e E E E # # # # #   ",
"  4 4 & % & . . . = = = ~ ! ! ^ M ^ . . . , N , O O O { { { e e e e e e e e e D E E # # # # #   ",
"  % & + + + s t t p # # P # # 1 1 | . . . Q Q Q # # # # # # e e e e e e e e e % & & R R R 0 }   ",
"  % % + + + t t t # # # # # # | 1 | . . . Q Q Q # # # # # # e e e e e e e e e % % % R R R } }   ",
"  % % + + + t t t # # # # # # 1 1 | . . . Q Q Q # # # # # # e e e e e e e e e % % % R R R } }   ",
"  % % % % & S S S e e e e e e e e e e e e e e e e e e e e e e e e e e e e e e & % % % % % 5 5   ",
"  % % % % % S S S e e e e e e e e e e e e e e e e e e e e e e e e e e e e e e & % % % % % 9 9   ",
"  & & & & & S S S e e e e e e e e e e e e e e e e e e e e e e e e e e e e e e & % % % % % 9 9   ",
"  . . . . j q 5 5 e e e e e e e e e e e e e e e e e e e e e e e e e e e # # # # # # % % % % %   ",
"  . . . . . 5 9 9 e e e e e e e e e e e e e e e e e e e e e e e e e e e # # # # # # % % % % %   ",
"  . . . . . q 9 9 e e e e e e e e e e e e e e e e e e e e e e e e e e e # # # # # # % % % % %   ",
"  h h T U T a V V h g g W W W X X g % % % 5 5 5 u u v Y Z Z ` ` ` # # #  . . .# # P ! ....+.q   ",
"  h h U U U V V V g g g W W W X X X & % % 9 9 9 u u v Z Z Z ` ` ` # # #  . . .# # # ......+.q   ",
"  h h U U U V V V g g g W W W X X X & % % 9 9 9 v u v Y Z Z ` ` ` # # # @. . .# # # ......q q   ",
"  #.#.......$.%.$.&.&.&.} } 0 T t t p p p % % % *.% % & & & # # # { { { =.4 4 @ @ @ -.-.-.9 9   ",
"  #.#.......%.%.$.&.&.&.} } } t t t p p p % % % % % % % % % # # # { { { 4 4 4 @ @ @ -.;.;.9 9   ",
"  #.#.......$.%.$.&.&.&.} } } t t t p p p % % % & & & % % % # # # { { { 4 4 4 @ @ @ -.;.;.9 9   ",
"  s s #.#.#.n n n >.>.,.'.'.'.).).).9 9 5 % % & !.!.!.* * * ~.~.{.*.; ; ].b b ^././.;.;.;.v v   ",
"  s s #.#.#.n n n ,.,.,.' ' ' '.'.'.9 9 9 % % & !.!.!.* * * ~.~.~.; ; ; b b b /././.;.;.;.v v   ",
"                                                                                                "};
