/* XPM */
static char * tile2_xpm[] = {
"48 48 120 2",
"  	c #000000",
". 	c #B1B1B1",
"+ 	c #A7A6A7",
"@ 	c #949494",
"# 	c #7F7F7F",
"$ 	c #5F5F5F",
"% 	c #5C5C5C",
"& 	c #5B5B5B",
"* 	c #818181",
"= 	c #B4B4B4",
"- 	c #8F8F8F",
"; 	c #5E5E5E",
"> 	c #676767",
", 	c #686868",
"' 	c #2A2A2A",
") 	c #2B2B2B",
"! 	c #888888",
"~ 	c #878787",
"{ 	c #909090",
"] 	c #393939",
"^ 	c #3A3A3A",
"/ 	c #6F6F6F",
"( 	c #6E6E6E",
"_ 	c #9D9D9D",
": 	c #2C2C2C",
"< 	c #595959",
"[ 	c #2E2E2E",
"} 	c #848484",
"| 	c #323232",
"1 	c #333333",
"2 	c #252525",
"3 	c #242424",
"4 	c #8B8B8B",
"5 	c #373737",
"6 	c #5A5A5A",
"7 	c #2F2F2F",
"8 	c #262626",
"9 	c #383838",
"0 	c #838383",
"a 	c #717171",
"b 	c #474747",
"c 	c #484848",
"d 	c #313131",
"e 	c #008000",
"f 	c #A9A9A9",
"g 	c #B7B7B7",
"h 	c #B8B8B8",
"i 	c #B3B3B3",
"j 	c #B2B2B2",
"k 	c #7D7D7D",
"l 	c #AAAAAA",
"m 	c #ABABAB",
"n 	c #727272",
"o 	c #858585",
"p 	c #7E7E7E",
"q 	c #363636",
"r 	c #C4C4C4",
"s 	c #2D2D2D",
"t 	c #616161",
"u 	c #606060",
"v 	c #8E8E8E",
"w 	c #565656",
"x 	c #555555",
"y 	c #545454",
"z 	c #535353",
"A 	c #535253",
"B 	c #525152",
"C 	c #626262",
"D 	c #C1C1C1",
"E 	c #C0C0C0",
"F 	c #303030",
"G 	c #515051",
"H 	c #222222",
"I 	c #232323",
"J 	c #BABABA",
"K 	c #B9B9B9",
"L 	c #494949",
"M 	c #3E3E3E",
"N 	c #212121",
"O 	c #1E1E1E",
"P 	c #C5C5C5",
"Q 	c #1B1B1B",
"R 	c #929292",
"S 	c #5D5D5D",
"T 	c #787878",
"U 	c #797979",
"V 	c #959595",
"W 	c #868686",
"X 	c #9B9B9B",
"Y 	c #A0A0A0",
"Z 	c #7A7A7A",
"` 	c #7B7B7B",
" .	c #707070",
"..	c #A8A8A8",
"+.	c #B6B6B6",
"@.	c #636363",
"#.	c #CCCCCC",
"$.	c #CBCBCB",
"%.	c #A4A4A4",
"&.	c #808080",
"*.	c #898989",
"=.	c #353535",
"-.	c #919191",
";.	c #767676",
">.	c #434343",
",.	c #444444",
"'.	c #A2A2A2",
").	c #8C8C8C",
"!.	c #3C3C3C",
"~.	c #3D3D3D",
"{.	c #4D4D4D",
"].	c #4E4E4E",
"^.	c #292929",
"/.	c #282828",
"(.	c #AFAFAF",
"_.	c #575757",
":.	c #585858",
"<.	c #464646",
"[.	c #4A4A4A",
"}.	c #4B4B4B",
"                                                                                                ",
"  . . . . . . . . + + + @ @ @ # # # $ $ $ % % % % % & . . . . . . . . . * * * % % & = = = - -   ",
"  . . . . . . . . + + + @ @ @ # # # ; ; ; & & & % % & . . . . . . . . . * * * % % % = = = - -   ",
"  . . . . . > , > # # # ' ) ) % % & . . . . . . & % % # # # ! ! ~ # # # { { { ] ^ ] / / ( _ _   ",
"  . . . . . , , , # # # ) : : % % & . . . . . . & % % # # # ! ! ! # # # { { { ] ^ ^ / / / _ _   ",
"  . . . . . > , , # # # ) : ) % & & . . . . . . % % % # # # ! ! ! # # # { { { ] ^ ] / / / _ _   ",
"  < < # # # # # # [ [ [ & & & . . . . . . } } } | 1 1 2 2 3 4 4 4 # # # 5 5 5 % % % % % % } }   ",
"  6 6 # # # # # # [ 7 7 & & 6 . . . . . . } } } | 1 1 8 8 2 4 4 4 # # # 5 9 9 % % % % % % } }   ",
"  6 6 # # # # # # [ 7 [ & 6 6 . . . . . . 0 } } 1 1 1 8 8 2 4 4 4 # # # 5 9 9 % % % & & & } }   ",
"  a a b c c d d d % % % e e e e e e e e e e e e e e e e e e e e e e e e % % % f f f g g h 6 &   ",
"  a a c c c | | | % % & e e e e e e e e e e e e e e e e e e e e e e e e % % % f f f g g g 6 &   ",
"  a a b b b | | d % % & e e e e e e e e e e e e e e e e e e e e e e e e & % % f f f g g g 6 &   ",
"  i i . . j % % % e e e e e e e e e e e e e e e e e e e e e e e e e e e e e e k k k l l l % %   ",
"  i i . . . & % % e e e e e e e e e e e e e e e e e e e e e e e e e e e e e e k k k l l l % %   ",
"  i i . . . & % % e e e e e e e e e e e e e e e e e e e e e e e e e e e e e e k k k l l m % %   ",
"  n n o o } p k k e e e e e e e e e # # # 5 5 q f f f r r r e e e e e e e e e & & & s [ [ ] ^   ",
"  n n o o o k k k e e e e e e e e e # # # q 5 q f f f r r r e e e e e e e e e & & & 7 7 7 ^ ^   ",
"  n n o o o k k k e e e e e e e e e # # # q 5 q f f f r r r e e e e e e e e e & & & [ [ [ ^ ^   ",
"  # # # # # # # # % % % , , , 5 5 5 5 5 5 $ $ $ t t u v v v e e e e e e e e e # # # p p p w w   ",
"  # # # # # # # # % % % , , , 9 9 9 9 9 9 $ $ $ t t t v v v e e e e e e e e e # # # p p p w w   ",
"  # # # # # # # # & % % , , , 5 5 5 9 9 9 $ $ $ t t t v v v e e e e e e e e e # # # p p p x x   ",
"  # # # # # 7 7 7 x y z l l m . . j % % & A B B e e e e e e e e e e e e # # # 5 5 5 C C t D E   ",
"  # # # # # 7 F F y y z l l l . . . & % % B B B e e e e e e e e e e e e # # # 5 9 9 C C t E E   ",
"  # # # # # 7 F F z z z m l l . . . & % % G G G e e e e e e e e e e e e # # # 9 9 9 t t t E E   ",
"  k k H I I % % % J K K . . . p # # e e e e e e e e e e e e e e e L L c M M M N N O P r r . .   ",
"  k k I 3 3 % % & K K K . . . # # # e e e e e e e e e e e e e e e L L L M M M N N O r r r . .   ",
"  k k I 3 I % & & K K K . . . # # # e e e e e e e e e e e e e e e L L L M M M O O Q P r r . .   ",
"  4 4 % % % . . . = = = e e e e e e e e e e e e e e e { { { R R R % % % ; ; S D E D p # # # #   ",
"  4 4 % % & . . . = = = e e e e e e e e e e e e e e e { { { R R R % % % ; ; S E E E # # # # #   ",
"  4 4 & % & . . . = = = e e e e e e e e e e e e e e e { { { R R R % % % ; ; S D E E # # # # #   ",
"  % & + + + T U U e e e e e e e e e e e e V V V # # # # # # W W W 5 9 9 $ $ $ % & & X X X 0 }   ",
"  % % + + + U U U e e e e e e e e e e e e V V V # # # # # # W W W 5 9 9 $ $ $ % % % X X X } }   ",
"  % % + + + U U U e e e e e e e e e e e e V V V # # # # # # W W W 5 9 9 $ $ $ % % % X X X } }   ",
"  % % % % & Y Y Y e e e e e e e e e e e e e e e e e e e e e e e e e e e e e e & % % % % % 5 5   ",
"  % % % % % Y Y Y e e e e e e e e e e e e e e e e e e e e e e e e e e e e e e & % % % % % 9 9   ",
"  & & & & & Y Y Y e e e e e e e e e e e e e e e e e e e e e e e e e e e e e e & % % % % % 9 9   ",
"  . . . . j q 5 5 e e e e e e e e e e e e e e e e e e e e e e e e e e e e e e # # # % % % % %   ",
"  . . . . . 5 9 9 e e e e e e e e e e e e e e e e e e e e e e e e e e e e e e # # # % % % % %   ",
"  . . . . . q 9 9 e e e e e e e e e e e e e e e e e e e e e e e e e e e e e e # # # % % % % %   ",
"  h h Z ` Z a  . .h g g ......+.+.g % % % 5 5 5 @.@.C #.$.$.%.%.%.# # # R R R # # &.! *.*.=.q   ",
"  h h ` ` `  . . .g g g ......+.+.+.& % % 9 9 9 @.@.C $.$.$.%.%.%.# # # R R R # # # *.*.*.=.q   ",
"  h h ` ` `  . . .g g g ......+.+.+.& % % 9 9 9 C @.C #.$.$.%.%.%.# # # -.R R # # # *.*.*.q q   ",
"  ;.;.*.*.*.>.,.>.'.'.'.} } 0 Z U U p p p % % % S % % & & & # # # { { { ).4 4 @ @ @ !.!.!.9 9   ",
"  ;.;.*.*.*.,.,.>.'.'.'.} } } U U U p p p % % % % % % % % % # # # { { { 4 4 4 @ @ @ !.~.~.9 9   ",
"  ;.;.*.*.*.>.,.>.'.'.'.} } } U U U p p p % % % & & & % % % # # # { { { 4 4 4 @ @ @ !.~.~.9 9   ",
"  T T ;.;.;.n n n {.{.].^.^.^./././.9 9 5 % % & (.(.(.* * * _._.:.S ; ; <.b b [.}.}.~.~.~.C C   ",
"  T T ;.;.;.n n n ].].].' ' ' ^.^.^.9 9 9 % % & (.(.(.* * * _._._.; ; ; b b b }.}.}.~.~.~.C C   ",
"                                                                                                "};
