/* XPM */
static char * tnt_xpm[] = {
"48 48 679 2",
"  	c #000000",
". 	c #DC431C",
"+ 	c #C93D1A",
"@ 	c #C83D1C",
"# 	c #B93713",
"$ 	c #B83713",
"% 	c #B93712",
"& 	c #A33615",
"* 	c #A23616",
"= 	c #B03614",
"- 	c #D1441D",
"; 	c #DB431A",
"> 	c #A23615",
", 	c #A23517",
"' 	c #AE3614",
") 	c #D1431D",
"! 	c #DC431A",
"~ 	c #DB421B",
"{ 	c #B83715",
"] 	c #A33517",
"^ 	c #A23518",
"/ 	c #AB3310",
"( 	c #D24620",
"_ 	c #DB441A",
": 	c #CA3D1D",
"< 	c #A63516",
"[ 	c #DC431B",
"} 	c #DB431C",
"| 	c #C83D1A",
"1 	c #C73C1B",
"2 	c #C63C1C",
"3 	c #B83714",
"4 	c #B73713",
"5 	c #B63710",
"6 	c #A23617",
"7 	c #AC3714",
"8 	c #D4431D",
"9 	c #DC441D",
"0 	c #C73D1B",
"a 	c #C53D1C",
"b 	c #B63712",
"c 	c #A23715",
"d 	c #A13617",
"e 	c #AC3412",
"f 	c #D2441E",
"g 	c #DB431B",
"h 	c #C93D1C",
"i 	c #C83D1B",
"j 	c #B93714",
"k 	c #B73613",
"l 	c #A33518",
"m 	c #A33519",
"n 	c #AA3313",
"o 	c #D24520",
"p 	c #DB4419",
"q 	c #DC441A",
"r 	c #CA3E1D",
"s 	c #C73D1C",
"t 	c #B73813",
"u 	c #A23618",
"v 	c #DB421C",
"w 	c #C43C18",
"x 	c #C23D1A",
"y 	c #BD3C19",
"z 	c #AD3411",
"A 	c #AB3313",
"B 	c #A93312",
"C 	c #942E17",
"D 	c #932E16",
"E 	c #962F0E",
"F 	c #DB4223",
"G 	c #DD431A",
"H 	c #C53C18",
"I 	c #C43C1A",
"J 	c #C03C1A",
"K 	c #AE3512",
"L 	c #AB3513",
"M 	c #AA3314",
"N 	c #922F15",
"O 	c #942F0E",
"P 	c #DA4222",
"Q 	c #DB441B",
"R 	c #C13C18",
"S 	c #AD3414",
"T 	c #AB3414",
"U 	c #AA3413",
"V 	c #932F17",
"W 	c #922F16",
"X 	c #932F0F",
"Y 	c #D84123",
"Z 	c #C23C1B",
"` 	c #AF3612",
" .	c #AB3413",
"..	c #952D13",
"+.	c #922E15",
"@.	c #C23D18",
"#.	c #C13E1A",
"$.	c #BE3C19",
"%.	c #AC3410",
"&.	c #AA3412",
"*.	c #A83413",
"=.	c #952D17",
"-.	c #932E17",
";.	c #952F0F",
">.	c #C33C18",
",.	c #AD3511",
"'.	c #AA3512",
").	c #912F17",
"!.	c #912F15",
"~.	c #93300F",
"{.	c #DA4223",
"].	c #C43D1A",
"^.	c #C23C1A",
"/.	c #AC3413",
"(.	c #912F16",
"_.	c #92300F",
":.	c #D94023",
"<.	c #C63D1B",
"[.	c #C33C1A",
"}.	c #C03D1A",
"|.	c #AE3613",
"1.	c #AA3414",
"2.	c #A83512",
"3.	c #942E15",
"4.	c #C03C19",
"5.	c #AA3411",
"6.	c #AA3415",
"7.	c #A93515",
"8.	c #942D16",
"9.	c #922F17",
"0.	c #962F0F",
"a.	c #DC4222",
"b.	c #DE431A",
"c.	c #C33D18",
"d.	c #C33D1A",
"e.	c #AC3315",
"f.	c #902E16",
"g.	c #C53C1B",
"h.	c #C13C1A",
"i.	c #AC3313",
"j.	c #AB3412",
"k.	c #DA4023",
"l.	c #DC4419",
"m.	c #AB3415",
"n.	c #A83412",
"o.	c #942E16",
"p.	c #C03E1A",
"q.	c #A83513",
"r.	c #DA4322",
"s.	c #912F14",
"t.	c #932F10",
"u.	c #C43D1B",
"v.	c #C13D1A",
"w.	c #AB3512",
"x.	c #962D17",
"y.	c #C13B19",
"z.	c #A73514",
"A.	c #932D15",
"B.	c #A93413",
"C.	c #A73513",
"D.	c #922E16",
"E.	c #DB4222",
"F.	c #AA3312",
"G.	c #A93513",
"H.	c #902E15",
"I.	c #C23D19",
"J.	c #AB3514",
"K.	c #942D15",
"L.	c #91300F",
"M.	c #952E16",
"N.	c #A83515",
"O.	c #932D16",
"P.	c #A83514",
"Q.	c #932E15",
"R.	c #A93414",
"S.	c #D84926",
"T.	c #D74827",
"U.	c #C04220",
"V.	c #C04222",
"W.	c #BC4122",
"X.	c #A9391B",
"Y.	c #A8391C",
"Z.	c #A63A1C",
"`.	c #90331D",
" +	c #91331E",
".+	c #993318",
"++	c #D04B2A",
"@+	c #D94925",
"#+	c #D94727",
"$+	c #C04322",
"%+	c #BE4322",
"&+	c #BC4222",
"*+	c #A9391C",
"=+	c #A7391D",
"-+	c #A8381D",
";+	c #91341C",
">+	c #8F341F",
",+	c #96331A",
"'+	c #D14A2A",
")+	c #D64A25",
"!+	c #D74927",
"~+	c #C14322",
"{+	c #BE4223",
"]+	c #BD4122",
"^+	c #AA3A1B",
"/+	c #91331C",
"(+	c #963317",
"_+	c #D1482B",
":+	c #D84924",
"<+	c #C34322",
"[+	c #C04223",
"}+	c #BF4223",
"|+	c #A8391B",
"1+	c #A9381E",
"2+	c #92331B",
"3+	c #8D341B",
"4+	c #D2CEC7",
"5+	c #D2CDC8",
"6+	c #D2CDC9",
"7+	c #D3CDC8",
"8+	c #D3CDC9",
"9+	c #D1CEC8",
"0+	c #D2CEC6",
"a+	c #D1CDCB",
"b+	c #D1CDCC",
"c+	c #D3CECC",
"d+	c #DFD9D8",
"e+	c #E1D8D9",
"f+	c #E2D8D9",
"g+	c #E2D8D8",
"h+	c #E0D8D9",
"i+	c #DED9D9",
"j+	c #DFD9D9",
"k+	c #DFD7D8",
"l+	c #D7CECF",
"m+	c #D5CDCE",
"n+	c #D5CECE",
"o+	c #DDD6D6",
"p+	c #E0D8DA",
"q+	c #E0D9D7",
"r+	c #E0D8D7",
"s+	c #DED8D6",
"t+	c #D2CFCD",
"u+	c #CFCDCB",
"v+	c #D0CDCA",
"w+	c #D2CDCA",
"x+	c #D2CECB",
"y+	c #E0D7D8",
"z+	c #E1D8DB",
"A+	c #E2D7DB",
"B+	c #E0D8D8",
"C+	c #DED9D7",
"D+	c #D2CFCC",
"E+	c #D0CDC9",
"F+	c #D0CECC",
"G+	c #CECFCA",
"H+	c #CDD0CA",
"I+	c #CDCFCC",
"J+	c #CDD0C9",
"K+	c #CDCFCB",
"L+	c #CDCFCE",
"M+	c #CFCFCF",
"N+	c #DCD9DB",
"O+	c #DDD9DB",
"P+	c #DCDADB",
"Q+	c #DCDBDB",
"R+	c #DBDBDB",
"S+	c #DDDADB",
"T+	c #DCD8D9",
"U+	c #D2D0D0",
"V+	c #D1CFD0",
"W+	c #DAD8D9",
"X+	c #DADADA",
"Y+	c #D0D1D0",
"Z+	c #CED0CF",
"`+	c #CECFCF",
" @	c #D0CFCF",
".@	c #DCDCDC",
"+@	c #DEDBDC",
"@@	c #DBDBD9",
"#@	c #D0D1CC",
"$@	c #CFCECA",
"%@	c #CECECA",
"&@	c #CBCCC8",
"*@	c #CCCCC9",
"=@	c #CCCCCA",
"-@	c #CCCCCB",
";@	c #CCCCCC",
">@	c #CECECE",
",@	c #D9D7D8",
"'@	c #DAD9D9",
")@	c #DBD9DA",
"!@	c #DAD9DA",
"~@	c #DED9DB",
"{@	c #DBD8D9",
"]@	c #D1D1D1",
"^@	c #D1D0D0",
"/@	c #D9D6D7",
"(@	c #DBD9D9",
"_@	c #CECDCE",
":@	c #CDCDCD",
"<@	c #D8D7D7",
"[@	c #D8D8D8",
"}@	c #D9D8D9",
"|@	c #DBDADB",
"1@	c #CFD0CA",
"2@	c #D0CDD0",
"3@	c #CFCECE",
"4@	c #CECECB",
"5@	c #C7C7C4",
"6@	c #060704",
"7@	c #050604",
"8@	c #050504",
"9@	c #050505",
"0@	c #070405",
"a@	c #0D0C0C",
"b@	c #D0D0D0",
"c@	c #CFCDCE",
"d@	c #0A0B0B",
"e@	c #050605",
"f@	c #090909",
"g@	c #DAD8D8",
"h@	c #DADBDB",
"i@	c #151515",
"j@	c #C9C9C9",
"k@	c #1A1819",
"l@	c #040404",
"m@	c #D0CDCE",
"n@	c #CFCECD",
"o@	c #CECECC",
"p@	c #010200",
"q@	c #070707",
"r@	c #DDDBDC",
"s@	c #111011",
"t@	c #010101",
"u@	c #C8C8C8",
"v@	c #171717",
"w@	c #CFCECF",
"x@	c #CECECD",
"y@	c #0C0C0C",
"z@	c #CACACA",
"A@	c #111111",
"B@	c #000100",
"C@	c #181818",
"D@	c #030303",
"E@	c #CFD0CD",
"F@	c #CECFCB",
"G@	c #CECED0",
"H@	c #C5C5C5",
"I@	c #0E0E0E",
"J@	c #060606",
"K@	c #CBCCCC",
"L@	c #101010",
"M@	c #010000",
"N@	c #1E1E1E",
"O@	c #C2C2C2",
"P@	c #CECECF",
"Q@	c #C7C7C7",
"R@	c #020202",
"S@	c #CBCBCB",
"T@	c #C4C4C4",
"U@	c #0A0A0A",
"V@	c #C6C6C6",
"W@	c #B1B1B1",
"X@	c #B0B0B0",
"Y@	c #ACACAC",
"Z@	c #AFAFAF",
"`@	c #A9A9A9",
" #	c #AAAAAA",
".#	c #0F0F0F",
"+#	c #A6A6A6",
"@#	c #AFB0AF",
"##	c #ABABAB",
"$#	c #B2B2B1",
"%#	c #B0B0AF",
"&#	c #ADADAD",
"*#	c #0E0F0E",
"=#	c #AFAFAE",
"-#	c #CDCECA",
";#	c #CDCEC9",
">#	c #CACBC7",
",#	c #ABACAA",
"'#	c #B1B1B0",
")#	c #B3B4B1",
"!#	c #CCCDC8",
"~#	c #C9C9C6",
"{#	c #ADAEAC",
"]#	c #B2B2B0",
"^#	c #C7C7C3",
"/#	c #C8C9C5",
"(#	c #C8C8C5",
"_#	c #B4B4B2",
":#	c #C8C9C7",
"<#	c #CFD0CB",
"[#	c #B0B0AE",
"}#	c #B3B3B2",
"|#	c #CCCDC9",
"1#	c #B0B1B0",
"2#	c #CDCDCA",
"3#	c #AFAFB0",
"4#	c #B2AEAD",
"5#	c #B1AEAD",
"6#	c #B1AEAC",
"7#	c #B4B1AF",
"8#	c #D0CECA",
"9#	c #D1CFCB",
"0#	c #B2AEAF",
"a#	c #B3AEAF",
"b#	c #B3AFAE",
"c#	c #B3AFAD",
"d#	c #B5B2AF",
"e#	c #CFCDC8",
"f#	c #D2CFCA",
"g#	c #B4B1AD",
"h#	c #B0AFAE",
"i#	c #B2AEAE",
"j#	c #B1AFAE",
"k#	c #B2AFAE",
"l#	c #B3AEAE",
"m#	c #D1CFC8",
"n#	c #D1D1C8",
"o#	c #D1D0C9",
"p#	c #B3B0AF",
"q#	c #B3AEB0",
"r#	c #B1AEB0",
"s#	c #B1AFAD",
"t#	c #B2B0AD",
"u#	c #D0CDC7",
"v#	c #D2CEC8",
"w#	c #B4B2AF",
"x#	c #B2AEB0",
"y#	c #B0AFAF",
"z#	c #B1AEB1",
"A#	c #B14126",
"B#	c #AF4025",
"C#	c #A73A21",
"D#	c #A53B23",
"E#	c #933824",
"F#	c #8F3823",
"G#	c #8F3623",
"H#	c #7A2E1B",
"I#	c #792E1B",
"J#	c #832E1A",
"K#	c #A84026",
"L#	c #B23F25",
"M#	c #B14024",
"N#	c #AA3D22",
"O#	c #A93C23",
"P#	c #A63C24",
"Q#	c #923722",
"R#	c #913925",
"S#	c #8E3624",
"T#	c #7B2F1C",
"U#	c #792E1C",
"V#	c #812F1A",
"W#	c #A74226",
"X#	c #B24025",
"Y#	c #B14026",
"Z#	c #A83C22",
"`#	c #A53D23",
" $	c #943622",
".$	c #903723",
"+$	c #8E3722",
"@$	c #7D2F1B",
"#$	c #792F1C",
"$$	c #802D1A",
"%$	c #AA432C",
"&$	c #B4412A",
"*$	c #B34229",
"=$	c #AA3C21",
"-$	c #A83C21",
";$	c #A53C21",
">$	c #92351F",
",$	c #8F3522",
"'$	c #8F3521",
")$	c #7D301B",
"!$	c #792F1B",
"~$	c #B53817",
"{$	c #AA3315",
"]$	c #79240E",
"^$	c #78250D",
"/$	c #802207",
"($	c #AC3C1C",
"_$	c #B53818",
":$	c #79250C",
"<$	c #802209",
"[$	c #AC3B1E",
"}$	c #B53819",
"|$	c #AB3314",
"1$	c #7A250E",
"2$	c #7F2108",
"3$	c #AC3A1C",
"4$	c #B63918",
"5$	c #AB3315",
"6$	c #912E14",
"7$	c #7B260F",
"8$	c #78250F",
"9$	c #BB3614",
"0$	c #BA3714",
"a$	c #AE3310",
"b$	c #AD3312",
"c$	c #A73415",
"d$	c #902E14",
"e$	c #79240D",
"f$	c #78250E",
"g$	c #822208",
"h$	c #B2391A",
"i$	c #BA3713",
"j$	c #AD3310",
"k$	c #AC3312",
"l$	c #A93313",
"m$	c #922F14",
"n$	c #8F2F16",
"o$	c #78260B",
"p$	c #812208",
"q$	c #B2391B",
"r$	c #BA3715",
"s$	c #AD3410",
"t$	c #AB3411",
"u$	c #942F13",
"v$	c #7A250F",
"w$	c #7F2107",
"x$	c #B03919",
"y$	c #BB3715",
"z$	c #7B260E",
"A$	c #D6441E",
"B$	c #D3431E",
"C$	c #C03D1B",
"D$	c #BE3D1B",
"E$	c #A83212",
"F$	c #902F15",
"G$	c #9D2C11",
"H$	c #CB4626",
"I$	c #D4421D",
"J$	c #BF3D1A",
"K$	c #A73414",
"L$	c #912D16",
"M$	c #9F2F13",
"N$	c #C74323",
"O$	c #D5441E",
"P$	c #BF3E19",
"Q$	c #BE3D1A",
"R$	c #A73412",
"S$	c #A83414",
"T$	c #912E13",
"U$	c #9A2B12",
"V$	c #C94623",
"W$	c #D6441C",
"X$	c #D5431E",
"Y$	c #AA3514",
"Z$	c #D9431C",
"`$	c #C43E19",
" %	c #A02C0F",
".%	c #D24521",
"+%	c #DA421A",
"@%	c #C43D19",
"#%	c #A13013",
"$%	c #CE421F",
"%%	c #C53D1A",
"&%	c #9C2B12",
"*%	c #D14423",
"=%	c #C53D19",
"-%	c #AC3614",
";%	c #AA3513",
">%	c #952E15",
",%	c #C33D19",
"'%	c #9A2E0E",
")%	c #D64421",
"!%	c #DD4319",
"~%	c #DC421C",
"{%	c #993011",
"]%	c #D44220",
"^%	c #A93512",
"/%	c #972E10",
"(%	c #D74224",
"_%	c #DA441A",
":%	c #AC3514",
"<%	c #C23D1B",
"[%	c #BF3C19",
"}%	c #D94322",
"|%	c #DD431D",
"1%	c #C53C19",
"2%	c #D94121",
"3%	c #C43C19",
"4%	c #922F0F",
"5%	c #DB4124",
"6%	c #DA441B",
"7%	c #AC3513",
"8%	c #D9431B",
"9%	c #DD431B",
"0%	c #D94122",
"a%	c #C53D18",
"b%	c #AC3612",
"c%	c #C23D1C",
"d%	c #DE4319",
"e%	c #DC431E",
"f%	c #DC4319",
"g%	c #DA4124",
"h%	c #A73413",
"i%	c #DA4323",
"j%	c #C23C1C",
"k%	c #AC3515",
"l%	c #D9421B",
"m%	c #C33C19",
"n%	c #C33B1B",
"o%	c #C13C19",
"p%	c #A83415",
"q%	c #942D17",
"r%	c #972E0F",
"s%	c #D84322",
"t%	c #DA4319",
"u%	c #C23B1C",
"v%	c #93300E",
"w%	c #D94321",
"x%	c #C13C1B",
"y%	c #A93314",
"z%	c #D74121",
"A%	c #DD421A",
"B%	c #C63D19",
"C%	c #AC3516",
"D%	c #952E14",
"E%	c #C73D19",
"F%	c #C63D18",
"G%	c #B23817",
"H%	c #B33719",
"I%	c #B23818",
"J%	c #A53517",
"K%	c #A53615",
"L%	c #A43517",
"M%	c #922E17",
"N%	c #9B2E11",
"O%	c #BF401E",
"P%	c #C73E18",
"Q%	c #C63C17",
"R%	c #B43817",
"S%	c #B43718",
"T%	c #B33717",
"U%	c #A53616",
"V%	c #A43616",
"W%	c #902F17",
"X%	c #9B3012",
"Y%	c #BC3D19",
"Z%	c #C73F19",
"`%	c #C63F19",
" &	c #B43819",
".&	c #B53719",
"+&	c #B53619",
"@&	c #A53614",
"#&	c #A43516",
"$&	c #922D16",
"%&	c #982D10",
"&&	c #BD3F1D",
"*&	c #C63E18",
"=&	c #B43816",
"-&	c #B43719",
";&	c #A43717",
">&	c #A53617",
",&	c #932F14",
"'&	c #C43E18",
")&	c #C33C17",
"!&	c #B13817",
"~&	c #B23718",
"{&	c #AF3818",
"]&	c #BE3F1D",
"^&	c #C53E17",
"/&	c #C43C17",
"(&	c #B13717",
"_&	c #B23719",
":&	c #A23716",
"<&	c #8F2E17",
"[&	c #B93D18",
"}&	c #C53E16",
"|&	c #C53E18",
"1&	c #A43617",
"2&	c #992D10",
"3&	c #BC3E1C",
"4&	c #B23717",
"5&	c #A33618",
"6&	c #A33616",
"                                                                                                ",
"  . . + @ @ # $ % & * = - ; . + @ @ # # $ > , ' ) ! ~ + @ @ $ $ { ] ^ / ( _ ! : @ @ # # $ < ,   ",
"  [ } | 1 2 3 4 5 * 6 7 8 ! 9 | 0 a 3 4 b c d e f ! g h h i j 4 k l m n o p q r s s { t t < u   ",
"  [ v w x y z A B C D E F G . H I J K L M N N O P ! Q I x R S T U V W X Y p q 1 I Z `  .U ..+.  ",
"  . v @.#.$.%.&.*.=.-.;.F G . >.x J ,.'.*.).!.~.{.! Q ].x ^././.&.(.!._.:.p _ <.[.}.|.1.2.3.+.  ",
"  . v w [.4.5.6.7.8.9.0.a.b.. c.d.^.5.e.1.f.(.~.P ! Q g.[.h.i. .j.+.!._.k.l._ <.x @.m.U n.o.).  ",
"  . v @.p.$.e.&.q.8.-.0.r.G . c.d.^.M e 1.f.s.t.{.! Q u.v.^. .U j.+.!._.k.l._ <.x x w.U n x.!.  ",
"  . v @.#.y.n 1.z.A.N 0.r.G . c.d.^.n U U f.!.~.P ! Q g.[.h. .U j.+.!._.k.l._ <.x x w.U B.8.!.  ",
"  . v c.d.4.U 6.C.o.D.0.E.G . c.x h.F.U G.H.!.~.P ! Q u.x ^. .U j.+.!._.k.l._ <.x I.J.U G.8.!.  ",
"  . v c.d.$.U 1.q.K.-.0.E.G . c.x v.F.U G.H.!.~.P ! Q u.x ^. .U j.+.!.L.k.l._ <.x @.T U G.8.!.  ",
"  . v c.x $.U U q.A.D 0.r.G . c.x v.F.U G.H.!.~.P ! Q g.[.h. .U j.+.!.L.k.l._ <.x @. .U G.M.!.  ",
"  . v c.x $.U U N.O.N 0.r.G . c.x v.F.U G.H.!.~.P ! Q u.v.^. .U j.+.!.L.k.l._ <.x @. .U G.M.!.  ",
"  . v c.x $.U U P.A.N 0.a.b.. c.x v.F.U G.H.!.~.P ! Q g.I v. .U j.+.!.L.k.l._ <.x @. .U G.M.!.  ",
"  . v c.x $.U U P.Q.N 0.r.G . c.x v.F.1.R.H.!.~.r.! Q u.x ^.w.U  .+.!.L.k.l._ <.x @. .U G.M.!.  ",
"  S.T.U.V.W.X.Y.Z.`. +.+++@+#+$+%+&+*+=+-+;+>+,+'+)+!+~+{+]+^+X.-+/+`.(+_+:+)+<+[+}+^+|+1+2+3+  ",
"  4+5+6+7+8+9+9+0+a+b+c+d+e+e+e+f+g+h+d+d+i+j+k+l+m+n+o+p+p+q+r+s+t+u+v+a+w+x+y+z+A+j+B+C+D+E+  ",
"  F+F+G+H+I+J+H+K+L+L+M+N+O+P+P+O+O+Q+Q+R+R+S+T+U+M+V+W+P+P+P+P+X+Y+Z+Z+`+`+ @P+.@+@.@S+@@#@$@  ",
"  G+G+G+G+%@&@*@=@-@;@>@,@W+'@)@)@)@W+!@X+P+~@{@]@M+^@/@W+(@(@)@(@_@;@;@;@;@:@<@[@}@P+P+|@1@G+  ",
"  2@3@4@G+5@6@7@7@8@9@9@0@9@a@M+b@c@d@e@f@;@>@b@g@X+h@i@9@9@j@M+]@k@l@l@9@9@9@9@9@9@M+P+|@1@G+  ",
"  m@n@o@4@5@p@              q@>@M+;@9@  9@;@>@b@{@P+r@s@  t@u@M+]@v@        t@      M+S+P+1@G+  ",
"  w@x@o@4@5@8@9@l@    t@l@9@y@>@M+;@9@  9@z@:@M+[@X+|@A@B@t@u@M+b@C@l@l@    t@D@D@D@M+Q+Q+E@F@  ",
"  G@>@>@>@x@;@:@H@t@  I@;@;@;@>@>@;@9@  t@9@9@J@K@b@b@L@M@t@u@>@>@:@;@>@N@  t@O@;@;@>@>@>@P@G@  ",
"  P@P@>@>@>@>@>@Q@t@  I@>@>@>@>@>@;@9@        R@S@>@>@L@  t@u@>@>@>@>@b@N@  t@T@>@>@>@>@>@>@>@  ",
"  >@>@P@G@>@>@>@Q@t@  I@>@>@>@>@>@;@9@  t@t@R@D@S@>@>@L@  t@u@>@>@>@>@b@N@  t@T@>@>@>@>@>@>@>@  ",
"  >@>@>@>@>@>@>@Q@t@  I@>@>@>@>@>@;@9@  l@j@S@S@A@U@f@    t@u@>@>@>@>@b@N@  t@T@>@>@>@>@>@>@>@  ",
"  >@>@>@>@>@>@>@Q@t@  I@>@>@>@>@>@;@9@  9@;@>@>@f@t@      t@u@>@>@>@>@b@N@  t@T@>@>@>@>@>@>@>@  ",
"  >@>@:@:@>@>@:@V@t@  I@>@>@>@>@>@S@9@  9@;@>@>@y@D@R@t@  t@u@>@>@>@>@b@N@  t@O@:@>@>@>@>@>@>@  ",
"  >@S@W@X@X@X@W@Y@    I@>@>@>@W@W@Z@l@  9@;@>@>@z@z@z@I@t@t@u@>@>@>@>@b@N@  t@`@W@X@X@X@X@;@>@  ",
"  >@;@Z@Z@Z@Z@Z@ #    I@>@>@:@X@Z@Y@l@  9@;@>@>@>@M+M+.#t@t@u@>@>@>@>@b@N@  t@+#Z@Z@Z@Z@Z@;@>@  ",
"  >@;@Z@Z@Z@Z@@###t@t@I@:@:@S@$#%#&#l@  9@S@>@>@>@>@>@*#t@t@Q@>@>@>@>@b@N@  t@+#Z@Z@Z@Z@Z@S@>@  ",
"  W@W@Z@Z@=#-#;#>#,# #Y@W@'#)#>#!#~#{###Y@X@X@X@X@X@]#^#/#(#_#W@X@X@X@%#5@/#:#W@Z@Z@Z@Z@Z@X@X@  ",
"  Z@Z@Z@Z@%#F@<#;#[#Z@X@X@X@}#-#<#|#$#Z@Z@Z@Z@Z@Z@Z@[#G+<#F@1#Z@Z@Z@Z@[#2#G+F@$#Z@Z@Z@Z@Z@Z@3#  ",
"  4#5#6#5#7#8#9#E+[#0#a#b#c#d#e#f#e#g#6#4#h#i#j#k#l#b#m#n#o#p#q#r#j#s#t#u#v#f#w#k#l#l#x#0#y#z#  ",
"  A#B#C#C#D#E#F#G#H#I#J#K#L#M#N#O#P#Q#R#S#T#U#V#W#X#Y#N#Z#`# $.$+$@$#$$$%$&$*$=$-$;$>$,$'$)$!$  ",
"  ~$~$/.e.{$O.(.f.]$^$/$($_$_$F.U R.!.).H.:$^$<$[$_$}$6.|$1.o.!.(.1$^$2$3$~$4$/.5$6.6$!.!.7$8$  ",
"  9$0$a$b$c$O.D d$e$f$g$h$i$0$j$k$l$m$(.n$o$^$p$q$r$0$s$t$U u$m$!.v$f$w$x$9$y$j$t$U +.(.N z$8$  ",
"  A$B$C$D$y E$*.*.H.F$G$H$A$I$}.J$4.B B.K$L$f.M$N$O$8 P$Q$J R$S$c$T$H.U$V$W$X$}.Q$J Y$B.*.Q.f.  ",
"  . Z$`$I.4.B U P.D W  %.%G +%@%x v.F.U P.D (.#%$%; ~ %%d.^./.U G.Q.!.&%*%_ ; =%x x -%;%1.>%!.  ",
"  . Z$,%x 4.B U P.D 9.'%)%!%~%I x v.F.U P.D !.{%]%! g ].d.^./.U ^%Q.!./%(%_%_ =%I x :%U R.>%N   ",
"  [ Z$[.<%[%B U P.D W E }%G |%1%x v.F.U P.D !.~.2%! [ 3%x v.L U ^%Q.!.4%5%6%Q H d.x 7%U R.>%N   ",
"  ! 8%,%I.$.B U P.Q.N 0.F G 9%w x v.F.U q.Q.(.t.0%l.! 3%x v.L U ^%Q.!.4%5%Q g a%x x b%U 1.>%!.  ",
"  ! 8%[.c%$.B U C.Q.N E a.d%e%I x v.F.U q.Q.(.t.{.f%! ].x v.L U ^%Q.!.4%g%Q [ a%x x b%U R.>%Q.  ",
"  ! 8%[.c%$.B U h%Q.N 0.i%G [ w x v.F.U q.Q.!.~.P ! [ ].x v.L U ^%Q.!.4%g%6%g a%x x b%U 1.>%!.  ",
"  ! 8%[.j%y.B U h%Q.N E a.b.; @%x v.F.U q.Q.!.~.P [ [ ].x v.L U ^%Q.!.4%g%Q [ =%x I.k%U 1.>%!.  ",
"  . l%m%n%o%B  .p%q%N r%s%G t%`$j%u%5$|$R.D !.v%w%[ [ u.x%h. .{$y%8.!.4%z%! A%B%j%x C%m.6.D%!.  ",
"  E%F%G%H%I%J%K%L%M%W N%O%P%Q%R%S%T%U%U%V%W%!.X%Y%Z%`% &.&+&@&#&#&$&!.%&&&*&E%=&R%-&;&J%>&,&!.  ",
"  '&)&!&~&{&#&#&l 9.).N%]&^&/&(&_&~&:&l ^ <&!.X%[&}&|&-&~&H%1&* u A.!.2&3&^&'&R%4&~&5&#&6&,&!.  ",
"                                                                                                "};
